<?xml version="1.0" encoding="UTF-8"?>
<svg xmlns="http://www.w3.org/2000/svg" xmlns:xlink="http://www.w3.org/1999/xlink" viewBox="0 0 40.82 48.53">
  <defs>
    <style>
      .cls-1 {
        fill: #ecb022;
      }

      .cls-2 {
        opacity: .22;
      }

      .cls-2, .cls-3, .cls-4, .cls-5, .cls-6, .cls-7, .cls-8, .cls-9, .cls-10, .cls-11 {
        fill: #fed04e;
      }

      .cls-3 {
        opacity: .11;
      }

      .cls-12 {
        mix-blend-mode: screen;
        opacity: .2;
      }

      .cls-13 {
        mask: url(#mask-1);
      }

      .cls-14 {
        fill: #fdd04d;
      }

      .cls-15 {
        mask: url(#mask);
      }

      .cls-16 {
        fill: #f1bb31;
      }

      .cls-17 {
        fill: url(#linear-gradient-2);
        opacity: .3;
      }

      .cls-17, .cls-18 {
        mix-blend-mode: multiply;
      }

      .cls-5 {
        opacity: 0;
      }

      .cls-19 {
        fill: #e9ab1b;
      }

      .cls-6 {
        opacity: .89;
      }

      .cls-7 {
        opacity: .33;
      }

      .cls-20 {
        fill: #e3a00d;
      }

      .cls-21 {
        isolation: isolate;
      }

      .cls-8 {
        opacity: .78;
      }

      .cls-22 {
        fill: #efb529;
      }

      .cls-9 {
        opacity: .44;
      }

      .cls-10 {
        opacity: .56;
      }

      .cls-23 {
        fill: #e6a514;
      }

      .cls-18 {
        fill: url(#linear-gradient);
      }

      .cls-24 {
        fill: #facb46;
      }

      .cls-25 {
        fill: #f4c038;
      }

      .cls-11 {
        opacity: .67;
      }

      .cls-26 {
        fill: #f7c53f;
      }

      .cls-27 {
        filter: url(#luminosity-noclip);
      }
    </style>
    <filter id="luminosity-noclip" x="0" y="0" width="40.82" height="48.53" color-interpolation-filters="sRGB" filterUnits="userSpaceOnUse">
      <feFlood flood-color="#fff" result="bg"/>
      <feBlend in="SourceGraphic" in2="bg"/>
    </filter>
    <filter id="luminosity-noclip-2" x="0" y="-8278.15" width="40.82" height="32766" color-interpolation-filters="sRGB" filterUnits="userSpaceOnUse">
      <feFlood flood-color="#fff" result="bg"/>
      <feBlend in="SourceGraphic" in2="bg"/>
    </filter>
    <mask id="mask-1" x="0" y="-8278.15" width="40.82" height="32766" maskUnits="userSpaceOnUse"/>
    <linearGradient id="linear-gradient" x1="116.33" y1="48.53" x2="116.33" y2="0" gradientTransform="translate(136.74) rotate(-180) scale(1 -1)" gradientUnits="userSpaceOnUse">
      <stop offset="0" stop-color="#fff"/>
      <stop offset="0" stop-color="#fcfcfc"/>
      <stop offset=".08" stop-color="#c8c8c8"/>
      <stop offset=".17" stop-color="#999"/>
      <stop offset=".26" stop-color="#6f6f6f"/>
      <stop offset=".35" stop-color="#4d4d4d"/>
      <stop offset=".45" stop-color="#313131"/>
      <stop offset=".56" stop-color="#1b1b1b"/>
      <stop offset=".67" stop-color="#0b0b0b"/>
      <stop offset=".81" stop-color="#020202"/>
      <stop offset="1" stop-color="#000"/>
    </linearGradient>
    <mask id="mask" x="0" y="0" width="40.82" height="48.53" maskUnits="userSpaceOnUse">
      <g class="cls-27">
        <g class="cls-13">
          <path class="cls-18" d="M1.08,20.02c1.4-.84,4.46.89,5.64,2.02,2.41,2.3,9.19,6.99,9.19,6.13-.01-5.84,0-23.44,0-23.44,0-1.59,1.29-2.87,2.87-2.87s2.87,1.29,2.87,2.87c0,0,.01,11.54,0,15.82,0,.22.68.34.68.1.02-4.68,0-17.7,0-17.7,0-1.63,1.33-2.96,2.96-2.96s2.96,1.32,2.96,2.96c0,0-.02,14.75,0,19.05,0,.23.68.38.68.15-.06-4.89,0-17.42,0-17.42,0-1.59,1.29-2.87,2.87-2.87s2.87,1.29,2.87,2.87c0,0,.01,14.15,0,17.79,0,.19.53.03.53-.15-.02-2.75,0-8.35,0-11.14,0-1.39,1.13-2.52,2.52-2.52s2.52,1.13,2.52,2.52c0,0-.36,11.72,0,15.61.3,3.21.59,6.97.59,8.66,0,8.17-5.48,13.02-14.06,13.02s-14.99-11.71-18.79-16.72c-1.56-2.07-7.05-7.6-7.05-7.6-1.11-1.2-1.41-3.25.16-4.18Z"/>
        </g>
      </g>
    </mask>
    <linearGradient id="linear-gradient-2" x1="116.33" y1="48.53" x2="116.33" y2="0" gradientTransform="translate(136.74) rotate(-180) scale(1 -1)" gradientUnits="userSpaceOnUse">
      <stop offset="0" stop-color="#e3a00d"/>
      <stop offset=".12" stop-color="#e3a00d"/>
      <stop offset="1" stop-color="#e3a00d"/>
    </linearGradient>
  </defs>
  <g class="cls-21">
    <g id="Ebene_2" data-name="Ebene 2">
      <g id="_1" data-name=" 1">
        <g>
          <g>
            <g>
              <path class="cls-20" d="M1.08,20.02c1.4-.84,4.46.89,5.64,2.02,2.41,2.3,9.19,6.99,9.19,6.13-.01-5.84,0-23.44,0-23.44,0-1.59,1.29-2.87,2.87-2.87s2.87,1.29,2.87,2.87c0,0,.01,11.54,0,15.82,0,.22.68.34.68.1.02-4.68,0-17.7,0-17.7,0-1.63,1.33-2.96,2.96-2.96s2.96,1.32,2.96,2.96c0,0-.02,14.75,0,19.05,0,.23.68.38.68.15-.06-4.89,0-17.42,0-17.42,0-1.59,1.29-2.87,2.87-2.87s2.87,1.29,2.87,2.87c0,0,.01,14.15,0,17.79,0,.19.53.03.53-.15-.02-2.75,0-8.35,0-11.14,0-1.39,1.13-2.52,2.52-2.52s2.52,1.13,2.52,2.52c0,0-.36,11.72,0,15.61.3,3.21.59,6.97.59,8.66,0,8.17-5.48,13.02-14.06,13.02s-14.99-11.71-18.79-16.72c-1.56-2.07-7.05-7.6-7.05-7.6-1.11-1.2-1.41-3.25.16-4.18Z"/>
              <path class="cls-23" d="M25.27.13c1.29,0,2.35.86,2.73,2.01.09.27.14.6.14.96,0,.36-.02,13.78,0,18.46,0,.18,0,.34.02.48.02.23.65.38.68.17.04-.35.09-.76.11-1.22.07-2.02,0-5.27,0-7.93,0-1.74,0-3.42,0-4.81,0-1.86.01-3.15.01-3.27,0-.68.22-1.31.58-1.82.47-.67,1.24-1.12,2.11-1.15.34-.01.67.03.99.13,1.11.36,1.91,1.4,1.91,2.63,0,.07,0,.8,0,1.94,0,2.23,0,5.73,0,8.99,0,1.65,0,3.23,0,4.55,0,.88-.02,1.75,0,2.28,0,.18.5.06.52-.08.02-.14.03-.29.05-.46.05-.48.09-1.08.08-1.7-.02-2.75,0-6.24,0-8.49,0-.1,0-.23,0-.32,0-.6.25-1.34.62-1.76.43-.49,1.03-.83,1.73-.87.31-.01.61.03.89.12.95.32,1.64,1.23,1.64,2.29,0,.05-.36,11.7,0,15.57.29,3.18.58,6.94.58,8.62,0,8.1-5.43,12.76-13.97,12.76-6.9,0-12.39-7.51-16.23-13.05-.79-1.14-1.51-2.19-2.16-3.07-.1-.14-.21-.28-.31-.41-1.59-2.08-6.98-7.52-7-7.54-.53-.57-.86-1.33-.9-2.06-.02-.45.08-.89.31-1.27.18-.29.43-.56.78-.75,1.08-.58,3.1.31,4.47,1.24.46.32.88.65,1.19.94.99.92,2.59,2.17,4.2,3.31.66.47,1.32.92,1.94,1.32.8.52,1.55.97,2.11,1.2.55.23.87.3.88.07.06-2.27-.03-6.52-.03-10.34,0-2.19,0-4.4,0-6.38,0-2.01,0-3.77,0-5.02,0-.96,0-1.56,0-1.63,0-1.24.81-2.28,1.92-2.64.31-.1.63-.14.97-.13.87.04,1.63.48,2.1,1.14.28.39.47.85.55,1.35.02.16.04.32.04.49,0,.24,0,3.37,0,6.88,0,1.35,0,2.74,0,4.07,0,.63,0,1.24,0,1.82,0,.65-.01,1.33.01,1.87.02.38.06.72.1,1.01.03.2.66.29.68.06.01-.17.02-.36.02-.56.02-4.94,0-16.72,0-17.04,0-.35.05-.67.14-.93.35-1.18,1.45-2.04,2.74-2.04Z"/>
              <path class="cls-19" d="M25.26.27c1.28,0,2.32.88,2.67,2.04.07.24.13.56.13.96,0,.71-.02,13.82,0,18.36,0,.18.01.34.03.48.03.23.62.37.67.19.09-.3.2-.68.23-1.13.16-1.86.01-5.38,0-7.89,0-1.71,0-3.37,0-4.78,0-1.75.01-3.02.01-3.25,0-.67.19-1.3.51-1.83.41-.69,1.14-1.18,2-1.25.33-.03.66,0,.98.09,1.12.31,1.94,1.35,1.94,2.57,0,.14,0,.86,0,1.93,0,2.31.01,5.75,0,8.96,0,1.62-.02,3.2,0,4.53,0,.81-.03,1.78.01,2.29.02.18.47.1.51-.01.04-.11.07-.23.11-.39.11-.44.18-1.04.17-1.66-.03-2.75,0-6.14,0-8.45,0-.09,0-.24,0-.32,0-.53.24-1.39.55-1.77.4-.49.95-.89,1.63-.96.3-.03.6,0,.89.08.96.28,1.66,1.18,1.66,2.23,0,.1-.36,11.67,0,15.53.29,3.16.58,6.92.58,8.59,0,8.03-5.39,12.5-13.88,12.5-6.87,0-12.34-7.39-16.15-12.9-.78-1.13-1.5-2.18-2.15-3.05-.1-.14-.2-.27-.31-.41-1.62-2.1-6.91-7.44-6.96-7.48-.53-.57-.86-1.33-.87-2.05-.01-.46.12-.88.37-1.24.18-.26.41-.51.76-.67,1.1-.52,3.13.41,4.43,1.34.47.34.9.69,1.25,1,1.04.94,2.61,2.17,4.19,3.27.66.46,1.31.9,1.94,1.3.78.49,1.53.95,2.11,1.15.51.17.8.22.82-.04.12-2.27-.05-6.75-.05-10.3,0-2.17,0-4.36,0-6.35,0-1.96,0-3.7,0-4.99,0-.92,0-1.53,0-1.67,0-1.23.83-2.27,1.95-2.58.31-.09.64-.12.96-.09.85.08,1.58.56,1.99,1.24.24.4.41.86.48,1.36.02.16.03.32.03.49,0,.49,0,3.49,0,6.85,0,1.34,0,2.72,0,4.05,0,.62,0,1.23,0,1.81,0,.61-.02,1.34.03,1.85.04.37.12.69.2.94.06.17.65.25.69.02.03-.16.04-.35.04-.55.02-4.8,0-16.3,0-16.96,0-.38.04-.7.12-.93.31-1.19,1.39-2.07,2.68-2.07Z"/>
              <path class="cls-1" d="M25.25.4c1.27,0,2.28.9,2.61,2.07.06.21.11.53.11.95,0,1.07-.02,13.86,0,18.26,0,.18.02.34.04.48.05.23.59.37.67.22.14-.25.3-.6.36-1.04.24-1.69.02-5.48.02-7.85,0-1.69,0-3.32,0-4.75,0-1.65,0-2.89.01-3.23,0-.67.17-1.29.44-1.83.35-.71,1.05-1.23,1.89-1.35.33-.04.65-.03.97.05,1.13.27,1.97,1.29,1.97,2.51,0,.21,0,.92,0,1.93,0,2.4.02,5.76,0,8.93,0,1.6-.02,3.16-.01,4.52,0,.75-.05,1.81.02,2.31.03.17.44.13.51.05.06-.07.11-.18.17-.31.17-.41.27-1,.26-1.61-.05-2.74,0-6.05,0-8.42,0-.08,0-.24,0-.31,0-.45.22-1.45.47-1.78.37-.51.87-.95,1.54-1.05.3-.04.59-.03.88.04.96.24,1.68,1.12,1.68,2.16,0,.16-.36,11.65,0,15.5.29,3.13.58,6.89.58,8.56,0,7.96-5.34,12.24-13.79,12.24-6.84,0-12.29-7.27-16.07-12.74-.78-1.13-1.49-2.16-2.13-3.02-.1-.13-.2-.27-.31-.4-1.65-2.12-6.85-7.36-6.91-7.42-.53-.57-.85-1.33-.85-2.04,0-.46.15-.86.42-1.22.17-.23.4-.45.73-.59,1.12-.46,3.15.51,4.39,1.43.48.36.93.73,1.31,1.06,1.08.95,2.62,2.16,4.19,3.24.66.45,1.31.89,1.94,1.28.76.47,1.51.94,2.11,1.09.47.12.74.13.76-.16.17-2.27-.07-6.97-.08-10.25,0-2.16,0-4.32.01-6.32,0-1.91,0-3.63,0-4.96,0-.88,0-1.49,0-1.71,0-1.22.85-2.25,1.98-2.52.31-.07.64-.09.96-.04.83.12,1.53.63,1.88,1.34.21.41.35.88.41,1.37.02.16.03.32.03.49,0,.73,0,3.62,0,6.81,0,1.33,0,2.7,0,4.03,0,.62,0,1.22,0,1.8,0,.58-.03,1.36.05,1.84.06.36.18.65.31.86.09.15.64.2.69-.02.04-.16.06-.34.06-.55.02-4.66,0-15.89,0-16.87,0-.41.04-.72.1-.92.26-1.19,1.34-2.09,2.62-2.09Z"/>
              <path class="cls-22" d="M25.24.54c1.27,0,2.24.93,2.55,2.09.05.17.09.5.09.94,0,1.43-.02,13.9,0,18.16,0,.18.02.34.06.48.06.23.55.36.67.24.18-.2.4-.52.48-.95.31-1.53.04-5.59.03-7.81-.01-1.66,0-3.28,0-4.72,0-1.55,0-2.75.01-3.22,0-.66.14-1.29.37-1.84.3-.74.96-1.29,1.78-1.45.32-.06.64-.06.96,0,1.14.22,2,1.24,2,2.45,0,.28,0,.98,0,1.92,0,2.48.02,5.77,0,8.89,0,1.58-.03,3.13-.02,4.5,0,.69-.06,1.85.03,2.32.03.17.41.16.5.12.08-.04.15-.12.22-.24.24-.38.37-.96.35-1.57-.06-2.74,0-5.96,0-8.38,0-.06,0-.25,0-.31,0-.38.2-1.51.39-1.8.35-.52.79-1.01,1.44-1.14.29-.06.58-.06.87,0,.97.2,1.7,1.07,1.7,2.1,0,.21-.35,11.62,0,15.46.29,3.1.58,6.87.58,8.53,0,7.89-5.3,11.98-13.7,11.98-6.81,0-12.23-7.16-16-12.58-.77-1.12-1.48-2.14-2.12-3-.1-.13-.2-.26-.3-.4-1.68-2.14-6.78-7.28-6.87-7.37-.53-.57-.84-1.33-.83-2.03.01-.46.18-.85.47-1.19.17-.21.39-.4.7-.51,1.14-.4,3.18.62,4.35,1.53.49.38.96.77,1.37,1.12,1.13.97,2.64,2.15,4.18,3.2.65.44,1.3.88,1.94,1.26.74.45,1.48.92,2.11,1.03.42.07.67.04.7-.28.21-2.27-.1-7.2-.1-10.2,0-2.14,0-4.29.01-6.29,0-1.86,0-3.56,0-4.94,0-.84,0-1.46,0-1.74,0-1.22.87-2.23,2.01-2.45.32-.06.64-.06.95,0,.81.15,1.47.71,1.77,1.44.17.42.29.89.34,1.38.02.16.02.32.02.48,0,.98,0,3.75,0,6.77,0,1.33,0,2.69,0,4,0,.61,0,1.21,0,1.79,0,.55-.04,1.37.06,1.82.08.34.24.61.41.79.12.13.62.15.7-.06.05-.15.08-.33.08-.54.02-4.52,0-15.47,0-16.78,0-.43.03-.75.08-.91.22-1.2,1.28-2.11,2.55-2.11Z"/>
              <path class="cls-16" d="M25.23.67c1.26,0,2.2.95,2.48,2.12.03.14.07.46.07.93,0,1.79-.02,13.94,0,18.05,0,.18.03.34.07.48.08.23.52.36.66.27.23-.15.5-.44.61-.85.37-1.36.05-5.69.04-7.77-.02-1.63,0-3.23,0-4.69,0-1.45,0-2.62.01-3.2,0-.65.12-1.28.3-1.84.24-.76.87-1.35,1.67-1.55.31-.07.63-.09.95-.04,1.15.18,2.03,1.18,2.03,2.39,0,.35,0,1.04,0,1.92,0,2.57.02,5.78,0,8.86,0,1.56-.04,3.09-.02,4.49,0,.63-.08,1.88.04,2.33.04.16.38.2.49.19.1,0,.19-.06.28-.16.31-.34.46-.92.44-1.52-.08-2.74,0-5.86,0-8.35,0-.05,0-.26,0-.3,0-.3.12-1.61.31-1.81.2-.6.71-1.06,1.35-1.23.28-.07.57-.09.87-.04.97.16,1.72,1.02,1.72,2.04,0,.26-.35,11.6,0,15.43.28,3.08.58,6.84.58,8.5,0,7.81-5.25,11.72-13.61,11.72-6.78,0-12.18-7.04-15.92-12.43-.77-1.11-1.47-2.13-2.1-2.97-.1-.13-.2-.26-.3-.39-1.7-2.15-6.71-7.2-6.82-7.31-.53-.57-.84-1.34-.8-2.03.02-.46.21-.84.52-1.17.17-.18.37-.35.67-.44,1.16-.33,3.2.72,4.31,1.62.5.4.99.81,1.43,1.18,1.17.99,2.65,2.14,4.18,3.17.65.44,1.29.86,1.94,1.24.72.42,1.5.72,2.11.98.34.14.6-.04.64-.4.25-2.27-.12-7.42-.12-10.15-.01-2.12,0-4.25.02-6.26.01-1.8.01-3.49,0-4.91,0-.8,0-1.42,0-1.78,0-1.21.89-2.21,2.04-2.39.32-.05.64-.03.95.04.8.19,1.42.78,1.66,1.54.14.43.23.9.27,1.39.01.16.02.32.02.48,0,1.22,0,3.88,0,6.74,0,1.32,0,2.67-.01,3.98,0,.6,0,1.2,0,1.78.01.52-.05,1.39.08,1.81.1.33.31.58.51.71.15.1.61.1.7-.11.07-.15.1-.32.11-.53.02-4.38,0-15.06,0-16.7,0-.46.02-.78.07-.91.17-1.2,1.22-2.14,2.49-2.14Z"/>
              <path class="cls-25" d="M25.21.81c1.25,0,2.15.97,2.42,2.15.02.1.05.43.05.93,0,2.14-.02,13.98,0,17.95,0,.19.03.35.09.48.09.23.49.36.66.29.27-.1.59-.36.73-.76.42-1.2.07-5.8.05-7.73-.02-1.6,0-3.18,0-4.66,0-1.35,0-2.49.01-3.18,0-.64.09-1.27.23-1.85.18-.78.78-1.41,1.56-1.64.3-.09.62-.12.95-.08,1.16.13,2.06,1.13,2.06,2.33,0,.42,0,1.09,0,1.91,0,2.65.03,5.79.01,8.83,0,1.54-.05,3.06-.02,4.47,0,.57-.09,1.91.05,2.34.05.16.35.23.49.25.12.02.24,0,.34-.09.38-.3.55-.89.53-1.48-.09-2.73-.01-5.77,0-8.31,0-.04,0-.26,0-.3,0-.23.09-1.67.24-1.82.15-.62.63-1.12,1.25-1.32.27-.09.56-.12.86-.08.98.12,1.74.97,1.74,1.97,0,.31-.35,11.57,0,15.39.28,3.05.58,6.81.58,8.47,0,7.74-5.2,11.45-13.52,11.45-6.75,0-12.13-6.92-15.84-12.27-.76-1.1-1.46-2.11-2.09-2.95-.09-.12-.19-.25-.3-.39-1.73-2.17-6.64-7.12-6.77-7.25-.53-.56-.83-1.34-.78-2.02.03-.46.24-.83.57-1.14.16-.15.36-.29.64-.36,1.19-.26,3.22.83,4.27,1.72.51.43,1.01.85,1.49,1.24,1.21,1.01,2.67,2.14,4.18,3.13.65.43,1.28.85,1.94,1.22.7.4,1.46.71,2.11.92.31.1.53-.13.58-.51.29-2.27-.14-7.64-.15-10.1-.01-2.1,0-4.21.02-6.23.01-1.75.01-3.42,0-4.88,0-.76,0-1.39,0-1.82,0-1.2.91-2.2,2.06-2.33.32-.04.64,0,.94.08.78.23,1.37.86,1.55,1.64.1.44.17.92.2,1.4,0,.16.01.32.01.48,0,1.46,0,4.01,0,6.7,0,1.31,0,2.65-.01,3.95,0,.6,0,1.19.01,1.77.01.48-.06,1.4.1,1.8.13.32.37.54.61.64.18.08.59.06.7-.15.08-.14.12-.32.13-.52.02-4.24,0-14.64,0-16.61,0-.48.02-.8.05-.9.13-1.21,1.17-2.16,2.43-2.16Z"/>
              <path class="cls-26" d="M25.2.94c1.25,0,2.11.98,2.36,2.17.01.07.04.4.04.92,0,2.5-.02,14.01,0,17.85,0,.19.04.35.1.48.11.22.45.35.66.31.31-.06.68-.29.85-.67.47-1.04.08-5.91.06-7.69-.02-1.58,0-3.14,0-4.63,0-1.25,0-2.35.01-3.17,0-.64.07-1.26.16-1.86.12-.81.69-1.47,1.45-1.74.3-.1.61-.15.94-.12,1.17.09,2.09,1.07,2.09,2.27,0,.49,0,1.15,0,1.91,0,2.74.03,5.8.01,8.8-.01,1.51-.06,3.03-.03,4.46,0,.5-.11,1.94.06,2.35.06.15.32.26.48.32.13.05.28.06.4,0,.45-.26.64-.85.62-1.43-.11-2.73-.01-5.67,0-8.28,0-.03,0-.27,0-.29,0-.15.06-1.74.16-1.84.1-.64.55-1.18,1.16-1.41.27-.1.56-.15.85-.12.99.08,1.77.91,1.77,1.91-.01.36-.35,11.55,0,15.35.28,3.03.57,6.79.57,8.43,0,7.67-5.16,11.19-13.43,11.19-6.72,0-12.08-6.8-15.77-12.11-.76-1.1-1.45-2.1-2.07-2.92-.09-.12-.19-.25-.3-.38-1.76-2.19-6.58-7.04-6.73-7.19-.53-.56-.82-1.34-.76-2.01.04-.46.26-.82.62-1.12.15-.13.35-.24.62-.28,1.22-.18,3.24.94,4.23,1.81.52.45,1.04.89,1.55,1.31,1.25,1.03,2.69,2.13,4.17,3.1.65.42,1.28.84,1.94,1.21.68.38,1.4.74,2.12.86.27.04.46-.21.52-.63.33-2.28-.16-7.87-.17-10.06-.01-2.08,0-4.17.02-6.2.02-1.7.01-3.35,0-4.86,0-.72,0-1.36,0-1.86,0-1.2.93-2.18,2.09-2.27.33-.02.64.02.94.13.76.27,1.32.93,1.44,1.73.07.46.12.93.13,1.41,0,.16,0,.32,0,.48,0,1.71,0,4.14.01,6.66,0,1.31,0,2.63-.02,3.93,0,.59,0,1.18.01,1.76.02.45-.07,1.42.11,1.78.15.3.44.5.72.56.21.05.58,0,.71-.19.09-.14.15-.31.15-.52.02-4.11,0-14.23,0-16.52,0-.51.01-.83.03-.9.09-1.22,1.11-2.18,2.36-2.18Z"/>
              <path class="cls-24" d="M25.19,1.08c1.24,0,2.07,1,2.3,2.2,0,.04.02.36.02.91,0,2.86-.02,14.05,0,17.75,0,.19.04.35.11.48.12.22.42.34.65.34.36-.01.77-.21.98-.57.5-.89.09-6.01.07-7.65-.03-1.55,0-3.09,0-4.6,0-1.15,0-2.22.01-3.15,0-.63.04-1.25.09-1.86.06-.83.59-1.53,1.34-1.84.29-.12.6-.18.93-.16,1.18.05,2.12,1.02,2.12,2.21,0,.56,0,1.21,0,1.9,0,2.83.04,5.81.01,8.77-.01,1.49-.07,2.99-.03,4.44,0,.44-.12,1.97.07,2.37.07.14.29.29.47.39.15.08.32.12.45.07.53-.21.74-.81.71-1.38-.12-2.73-.02-5.58-.01-8.25,0-.01,0-.28,0-.29,0-.08.03-1.8.08-1.85.05-.67.47-1.23,1.06-1.5.26-.12.55-.18.85-.17.99.04,1.79.86,1.79,1.84-.01.42-.35,11.52,0,15.32.28,3,.57,6.76.57,8.4,0,7.6-5.11,10.93-13.35,10.93-6.69,0-12.03-6.68-15.69-11.96-.75-1.09-1.44-2.08-2.06-2.9-.09-.12-.19-.24-.3-.38-1.79-2.21-6.51-6.96-6.68-7.13-.53-.56-.81-1.35-.73-2.01.05-.46.29-.82.67-1.09.14-.1.34-.18.59-.2,1.25-.1,3.26,1.06,4.19,1.91.52.48,1.07.93,1.61,1.37,1.3,1.05,2.7,2.12,4.17,3.06.64.41,1.27.82,1.93,1.19.66.36,1.37.97,2.12.8.23-.05.38-.3.46-.75.36-2.28-.18-8.09-.2-10.01-.02-2.06,0-4.13.02-6.17.02-1.65.01-3.27,0-4.83,0-.68,0-1.32,0-1.89,0-1.19.94-2.16,2.12-2.21.33-.01.65.05.94.17.74.31,1.27,1.01,1.33,1.83.03.47.06.94.07,1.42,0,.16,0,.31,0,.47,0,1.95,0,4.26.01,6.62.01,1.3,0,2.61-.02,3.91,0,.59-.01,1.17.01,1.75.02.42-.07,1.43.13,1.77.17.29.5.45.82.49.25.03.56-.04.71-.23.1-.13.17-.3.17-.51.02-3.97,0-13.81,0-16.44,0-.53,0-.86.02-.89.04-1.22,1.06-2.2,2.3-2.2Z"/>
              <path class="cls-14" d="M26.44,45.81c8.19,0,13.26-3.14,13.26-10.67,0-1.64-.29-5.4-.57-8.37-.35-3.78-.02-14.81,0-15.28,0-.97-.81-1.78-1.81-1.78s-1.81.81-1.81,1.8v2.15c0,2.73-.13,5.49,0,8.21.03.57-.2,1.19-.8,1.34-.32.08-.83-.34-.98-.6-.21-.38-.07-2-.08-2.38-.04-1.47.02-2.96.04-4.43.03-2.91-.02-5.82-.01-8.74,0-.63,0-1.27,0-1.9,0-1.18-.96-2.14-2.15-2.14s-2.15.96-2.15,2.14c0,1.67-.04,3.34-.03,5,.02,1.52-.02,3.04.01,4.56.03,1.49.46,6.87-.08,7.61-.5.69-1.87.7-1.88-.35-.02-4.19,0-18.55,0-18.55,0-1.23-1-2.23-2.24-2.23s-2.24,1-2.24,2.23c0,0,.02,12.68,0,17.23,0,.93-1.37.99-1.83.36-.23-.31-.13-1.37-.15-1.75-.03-.58-.03-1.16-.02-1.74.02-1.3.03-2.59.02-3.88-.02-2.35,0-4.71-.01-7.06,0-.48,0-.96,0-1.43,0-1.18-.96-2.14-2.15-2.14s-2.15.96-2.15,2.14c0,.64-.01,1.29,0,1.93.02,1.6.03,3.2,0,4.8-.03,2.04-.04,4.09-.03,6.14.02,1.99.89,10.41-.18,10.83-.75.29-1.48-.41-2.12-.75-.67-.36-1.29-.76-1.93-1.17-1.45-.92-2.83-1.96-4.17-3.03-.57-.45-1.14-.92-1.67-1.43-.88-.84-2.88-2-4.16-2-.24,0-.42.04-.56.12-.41.25-.66.61-.72,1.07-.09.65.19,1.44.71,2,.21.21,5.39,5.43,6.93,7.45.61.81,1.3,1.79,2.05,2.87,3.64,5.24,8.95,11.8,15.61,11.8Z"/>
            </g>
            <g class="cls-12">
              <path class="cls-5" d="M17.77,5.62c0-.85.2-2.72,1.05-2.72.85,0,1.53.7,1.53,1.55-.03,5-.23,10.03-.09,15.03.06,1.99-.42,4.29,2.38,3.74,2.12-.42,1.24-2.45,1.34-3.95.25-3.6.06-7.29-.02-10.9-.03-1.16-.02-2.34-.01-3.5,0-.71,0-1.41,0-2.12,0-.89.73-1.61,1.63-1.61.89,0,1.62.73,1.62,1.63-.02,5.11-.04,10.23-.06,15.34,0,1.31-.58,3.25.09,4.46.62,1.13,2.21,1.36,2.93.22.61-.95.33-2.59.36-3.67.05-1.47.41-6.8.27-8.26-.23-2.31-.51-4.5.2-6.21.93-2.27,1.9-1.3,2.27.3.68,2.98-.1,7.5.03,12.48.08,3.03-1.3,7.62,1.54,6.85,3.26-.88,1.04-8.08,1.57-11.38.22-1.37.33-3.68,1.98-2.14.74.69.38,2.99.39,4.93.03,4.43.67,13.01.13,15.49-.82,3.71-6.72-.42-8.9-1.09-3.26-.99-5.08-.22-6.61.39-4.93,1.97-6.73-1.92-6.27-4.24,1.21-6.11.65-20.61.65-20.61Z"/>
              <path class="cls-3" d="M18.91,3.07c.76.13,1.38.77,1.37,1.6-.01,1.11-.04,2.23-.06,3.34-.06,3.82-.15,7.65-.05,11.46.02.59-.02,1.22.01,1.77.06,1.19.41,2.08,2.11,1.81,1.55-.25,1.33-1.44,1.28-2.57-.01-.26-.01-.51.01-.75.1-.91.19-1.84.25-2.79.04-.61.06-1.23.1-1.86.09-1.7.1-3.44.08-5.17,0-1.09,0-2.19,0-3.28,0-.37,0-.73,0-1.09,0-.3,0-.59,0-.89,0-.49.22-.93.57-1.21.24-.2.55-.33.88-.34.8-.04,1.44.57,1.44,1.32,0,4.3-.03,8.6-.05,12.9,0,.42-.08.92-.14,1.44-.1.87-.15,1.65.21,2.31.31.56.89.78,1.45.77.44-.04.87-.27,1.15-.74.54-.91.29-2.43.32-3.45.01-.39.05-1.03.08-1.79.09-1.65.21-4.18.18-5.39,0-.22-.01-.41-.02-.55-.07-.91-.12-1.79-.11-2.59.02-1.1.13-2.08.49-2.9.22-.52.43.85.64.67.02.02.04.05.06.08.06.08.13.19.28.29.11.08.27.14.43.16.14.01.26,0,.36-.05.13-.06.19-.13.24-.19.01-.02.02-.04.03-.06.03-.01.05-.06.08-.11.09-.13.21-.31.27-.25,0,.01,0-.03,0-.02.03-.09.05-.16.16-.17.04-.03.11.03.14.15.5,2.2.2,5.25.07,8.72-.04,1.09-.06,2.23-.04,3.39.03,1.33-.21,2.94-.24,4.28-.03,1.45.17,2.55,1.28,2.51.09,0,.2-.02.3-.03,1.55-.25,1.65-2.12,1.64-4.31,0-.53,0-1.1.01-1.67h0c-.01-.31,0-.62.01-.93.02-1.03.04-2.02.2-2.82.25-1.31.32-3.42,1.83-2.22.64.51.35,2.39.33,3.97,0,.45,0,.99.04,1.65,0,.08.01.12.02.2.02.3.04.49.13.94.1.52.07,1.22.08,1.86,0,.33.02.65.03.98.04,1.1.08,2.24.11,3.36.08,2.71.08,5.2-.17,6.34-.18.81-.6,1.23-1.2,1.39-1.33.35-3.44-.61-5.2-1.46-.96-.46-1.81-.89-2.4-1.07-1.68-.51-2.98-.55-4.07-.38-.92.14-1.67.43-2.37.7-1.05.41-1.96.57-2.73.55-1.16-.04-2.02-.52-2.6-1.19,0,0,0,0,0,0-.83-.85-1.07-2.12-.97-3.11.08-.8.15-1.76.26-2.75.73-6.71.32-17.81.31-18.13,0-.18,0-.39.02-.59.07-.94.39-2.15,1.05-2.04Z"/>
              <path class="cls-2" d="M19.01,3.24c.66.24,1.23.85,1.22,1.66-.01,1.1-.06,2.19-.07,3.29-.06,3.75-.15,7.53-.05,11.29.02.55-.01,1.13.01,1.65.05,1.11.35,1.95,1.85,1.78,1.36-.15,1.2-1.12,1.2-2.06,0-.21.01-.43.05-.63.14-.77.27-1.56.39-2.39.07-.54.12-1.09.2-1.64.2-1.52.28-3.11.3-4.71.01-1.01.02-2.05.02-3.06,0-.34,0-.68,0-1.02,0-.28,0-.56,0-.83,0-.46.19-.87.5-1.14.22-.19.48-.32.77-.36.7-.08,1.27.41,1.27,1.02,0,3.49-.02,6.97-.05,10.46,0,.34-.07.74-.13,1.17-.08.76-.14,1.3.18,1.88.27.49.77.57,1.27.56.38-.06.76-.29,1-.73.48-.86.25-2.26.28-3.22.01-.37.04-.97.07-1.67.08-1.45.18-3.97.16-5.03,0-.2,0-.38-.01-.52-.04-.85-.04-1.65.02-2.36.08-.96.23-1.76.55-2.42.19-.46.37,2.66.55,2.51.02.06.03.14.04.23.03.21.08.48.28.7.15.17.4.29.65.3.22.01.41-.05.55-.18.18-.16.23-.38.27-.56.01-.06.01-.11.03-.16.02-.06.05-.18.08-.32.1-.4.22-.95.26-1.04,0,0,0-.08,0-.07,0-.34.01-.63.16-.83.08-.11.2-.04.25.16.49,2.14.21,5.09.08,8.45-.04,1.06-.07,2.16-.05,3.29.02,1.29-.19,2.84-.21,4.15-.03,1.36.14,2.42,1.11,2.51.08,0,.17,0,.26,0,1.34.11,1.38-1.43,1.5-3.24.03-.42.1-.89.17-1.4,0,0,0,0,0,0,0-.27.07-.55.1-.83.12-.93.21-1.85.38-2.63.28-1.24.31-3.13,1.68-2.31.55.33.35,1.78.27,3.01-.01.2-.04.5.02.94,0,.07.02.05.02.12.03.2.04.17.21.66.16.48.09,1.3.1,1.99,0,.35,0,.7.02,1.05.03,1.14.08,2.38.12,3.6.09,2.87.12,5.61-.15,6.8-.18.8-.59,1.2-1.21,1.34-1.32.31-3.4-.64-5.13-1.48-.94-.45-1.78-.87-2.37-1.05-1.61-.49-2.87-.54-3.95-.4-.89.12-1.63.39-2.31.64-1.02.38-1.89.56-2.65.56-1.11,0-1.96-.39-2.56-.98,0,0,0,0,0,0-.88-.7-1.14-1.9-1.15-2.86,0-.81.02-1.8.13-2.77.78-6.55.38-17.72.35-18.38,0-.21,0-.41.02-.6.06-.96.43-2.17,1.07-1.93Z"/>
              <path class="cls-7" d="M19.1,3.42c.56.33,1.07.92,1.06,1.72-.02,1.08-.07,2.16-.09,3.24-.06,3.69-.14,7.42-.04,11.11.01.51-.01,1.05.01,1.53.05,1.03.3,1.81,1.6,1.75,1.18-.05,1.06-.8,1.12-1.55.01-.17.03-.34.08-.51.17-.62.35-1.29.52-2,.11-.46.18-.94.3-1.42.32-1.34.47-2.78.52-4.24.03-.94.04-1.9.04-2.84,0-.32,0-.63-.01-.95,0-.26,0-.52,0-.78,0-.43.16-.81.43-1.07.19-.19.42-.32.67-.37.6-.12,1.09.24,1.09.72.01,2.67-.01,5.34-.05,8.02,0,.25-.06.57-.11.89-.07.65-.12.94.15,1.44.23.42.66.37,1.08.36.33-.08.65-.31.86-.72.41-.81.22-2.09.24-2.99,0-.36.03-.91.06-1.55.07-1.24.16-3.76.14-4.66,0-.19,0-.35,0-.48-.02-.78.03-1.51.15-2.12.15-.82.33-1.45.61-1.94.16-.39.31,4.47.46,4.34.02.11.02.24.02.37,0,.35.03.77.28,1.11.2.26.52.44.87.45.3.01.57-.1.75-.3.24-.27.27-.62.3-.93,0-.09,0-.18.02-.26.02-.11.05-.3.08-.53.1-.66.23-1.58.24-1.82,0,0,0-.13,0-.13-.03-.58-.05-1.11.17-1.49.11-.19.29-.12.36.16.47,2.07.22,4.93.09,8.18-.04,1.02-.07,2.09-.06,3.18.01,1.26-.16,2.74-.18,4.02-.02,1.27.12,2.3.93,2.5.07.02.14.03.22.04,1.15.2,1.09-.74,1.36-2.16.06-.32.19-.69.33-1.12,0,0,0,0,0,0,.02-.24.13-.47.2-.72.23-.82.37-1.68.57-2.44.3-1.17.42-3.05,1.53-2.4.5.07.23,1.17.21,2.05-.04-.05-.07,0,0,.24,0,.06.03-.02.03.04.03.1.04-.16.29.38.21.43.12,1.38.12,2.12,0,.37,0,.75.01,1.12.03,1.18.08,2.51.12,3.84.1,3.02.15,6.02-.13,7.27-.17.79-.58,1.17-1.21,1.29-1.31.27-3.36-.68-5.06-1.5-.93-.45-1.76-.86-2.34-1.04-1.54-.47-2.77-.54-3.83-.41-.87.1-1.59.35-2.25.58-.98.35-1.83.54-2.56.58-1.07.06-1.9-.27-2.51-.77,0,0,0,0,0,0-.91-.57-1.22-1.68-1.32-2.6-.1-.83-.11-1.84,0-2.79.82-6.39.43-17.64.4-18.62,0-.23,0-.44,0-.61.06-.98.46-2.2,1.09-1.82Z"/>
              <path class="cls-9" d="M19.2,3.59c.53.3.92,1,.9,1.78-.02,1.06-.09,2.13-.11,3.19-.06,3.62-.14,7.3-.04,10.94.01.47,0,.96,0,1.41.04.94.25,1.68,1.34,1.72,1,.04.93-.48,1.04-1.04.03-.13.06-.26.11-.38.2-.48.43-1.01.65-1.61.14-.38.24-.79.39-1.2.43-1.16.66-2.45.74-3.78.05-.86.06-1.76.05-2.62,0-.29,0-.59-.02-.87,0-.24-.01-.48-.01-.72,0-.39.13-.75.35-1,.16-.18.35-.32.56-.38.51-.16.92.08.92.42.03,1.86,0,3.71-.04,5.58,0,.17-.06.39-.1.62-.06.55-.11.59.12,1.01.19.35.55.16.9.15.27-.11.54-.34.71-.72.34-.77.18-1.92.2-2.76,0-.35.03-.85.05-1.43.06-1.03.13-3.54.12-4.3,0-.17,0-.32,0-.44,0-.72.11-1.37.27-1.88.22-.68.44-1.14.66-1.46.13-.33.24,6.28.38,6.17.01.15,0,.33,0,.51-.02.49-.03,1.06.28,1.52.24.36.65.58,1.09.59.38,0,.72-.15.94-.43.29-.37.31-.87.33-1.3,0-.13,0-.25.02-.36.02-.15.05-.42.08-.74.1-.93.24-2.22.23-2.61,0,0-.01-.19-.01-.18-.06-.83-.11-1.59.17-2.15.14-.27.38-.19.46.17.46,2.01.23,4.76.1,7.91-.04.99-.07,2.02-.07,3.08,0,1.22-.14,2.64-.15,3.89-.01,1.19.1,2.18.75,2.5.06.03.12.05.18.08.98.44.8-.08,1.22-1.08.09-.22.29-.49.49-.84,0,0,0,0,0,0,.09-.19.19-.4.29-.62.32-.72.53-1.52.75-2.26.33-1.1.45-2.84,1.38-2.48.43-.14.18.56.14,1.09-.05-.3-.1-.5,0-.47,0,.05.03-.1.03-.04.04,0,.02-.49.38.1.24.39.14,1.46.14,2.25,0,.4,0,.8,0,1.19.03,1.23.08,2.64.13,4.08.11,3.18.18,6.42-.11,7.73-.17.77-.57,1.14-1.22,1.24-1.31.22-3.33-.72-5-1.53-.92-.44-1.73-.84-2.31-1.02-1.47-.44-2.66-.53-3.71-.43-.84.09-1.55.3-2.19.52-.95.32-1.76.53-2.47.6-1.03.1-1.85-.14-2.47-.56,0,0,0,0,0,0-.93-.45-1.3-1.47-1.5-2.34-.19-.85-.24-1.89-.12-2.81.86-6.23.49-17.55.45-18.86,0-.25,0-.47,0-.62.05-.99.61-2.35,1.12-1.72Z"/>
              <path class="cls-10" d="M19.29,3.76c.38.45.77,1.07.75,1.83-.03,1.04-.11,2.09-.12,3.13-.06,3.56-.14,7.18-.04,10.76.01.43,0,.88,0,1.29.03.86.2,1.54,1.08,1.69.82.14.8-.16.96-.53.04-.09.08-.17.14-.26.23-.33.51-.73.78-1.21.17-.3.3-.64.49-.98.56-.98.84-2.12.95-3.31.07-.79.08-1.61.07-2.4,0-.27-.01-.54-.02-.8,0-.22-.01-.44-.02-.66,0-.36.1-.69.28-.93.13-.17.28-.31.45-.4.41-.2.74-.08.75.11.04,1.05.01,2.08-.04,3.14,0,.09-.05.21-.08.35-.05.44-.09.24.09.57.15.28.43-.04.72-.05.22-.13.43-.36.57-.71.28-.72.14-1.75.16-2.53,0-.33.02-.79.04-1.31.04-.83.11-3.33.1-3.94,0-.15,0-.29,0-.41.03-.65.19-1.23.4-1.64.28-.54.54-.82.72-.97.11-.26.18,8.09.29,8.01.01.2,0,.42-.02.66-.04.63-.08,1.35.28,1.92.28.45.78.73,1.31.74.46,0,.87-.2,1.13-.56.35-.47.36-1.11.36-1.67,0-.17,0-.33.01-.46.02-.2.05-.54.09-.96.11-1.2.25-2.86.22-3.4,0,0-.02-.24-.02-.23-.09-1.07-.17-2.07.18-2.81.16-.35.47-.26.57.17.44,1.94.24,4.6.11,7.64-.04.95-.07,1.95-.07,2.97,0,1.19-.12,2.54-.13,3.75,0,1.1.08,2.07.58,2.5.05.04.1.07.14.11.81.71.71.67,1.08,0,.16-.09.38-.28.65-.57,0,0,0,0,0,0,.12-.16.25-.32.38-.52.42-.61.69-1.35.94-2.07.35-1.03.48-2.63,1.23-2.57.35-.35.13-.04.08.13-.07-.54-.13-.99-.02-1.17,0,.04.04-.17.04-.12.04-.09,0-.8.46-.18.27.36.17,1.54.15,2.38,0,.42-.01.85,0,1.27.02,1.27.08,2.78.14,4.32.12,3.34.21,6.83-.09,8.2-.17.76-.56,1.12-1.22,1.19-1.3.18-3.29-.76-4.93-1.55-.91-.44-1.7-.83-2.28-1.01-1.4-.42-2.56-.53-3.59-.44-.81.07-1.51.26-2.14.46-.91.29-1.69.51-2.38.62-.99.15-1.79-.01-2.42-.35,0,0,0,0,0,0-.94-.34-1.39-1.25-1.67-2.09-.29-.87-.38-1.93-.24-2.83.91-6.07.55-17.47.49-19.1,0-.28,0-.49,0-.63.04-1.01.55-2.31,1.14-1.61Z"/>
              <path class="cls-11" d="M19.39,3.93c.31.5.61,1.15.59,1.89-.03,1.03-.12,2.06-.14,3.08-.06,3.49-.13,7.06-.03,10.59.01.39,0,.8,0,1.18.02.78.16,1.42.83,1.66.65.24.66.16.88-.02.05-.04.1-.09.17-.14.26-.19.58-.45.92-.82.19-.22.37-.49.59-.76.69-.81,1.03-1.78,1.17-2.85.09-.72.1-1.47.09-2.18,0-.25-.02-.49-.02-.72,0-.2-.02-.41-.02-.6,0-.33.07-.63.21-.86.1-.17.22-.31.35-.41.31-.24.56-.24.57-.19.04.24.01.45-.04.7,0,0-.04.03-.07.07-.04.33-.08-.12.06.13.12.21.32-.25.53-.25.16-.15.32-.38.42-.7.21-.67.1-1.58.12-2.3,0-.32.02-.73.03-1.19.03-.62.08-3.12.07-3.57,0-.14,0-.26.01-.37.05-.59.26-1.09.53-1.4.34-.4.64-.51.78-.49.08-.2.12,9.91.2,9.84,0,.24-.02.51-.04.8-.06.76-.13,1.64.28,2.33.32.54.9.88,1.52.88.54,0,1.02-.24,1.32-.68.4-.58.4-1.35.39-2.03,0-.2,0-.4,0-.57.02-.24.05-.67.09-1.17.11-1.47.26-3.5.21-4.18,0,0-.03-.29-.03-.29-.12-1.32-.22-2.55.18-3.47.19-.43.56-.33.67.18.43,1.88.25,4.44.12,7.38-.04.91-.07,1.88-.08,2.87-.01,1.15-.1,2.43-.1,3.62,0,1.01.05,1.96.4,2.49.03.05.07.1.1.15.61,1.01.47,1.36.94,1.08.2.02.48-.08.8-.29,0,0,0,0,0,0,.15-.12.3-.25.47-.42.51-.51.85-1.18,1.12-1.88.37-.97.51-2.42,1.08-2.66.27-.56.06-.64.02-.82-.18-.78-.15-1.49-.04-1.87,0,.03.05-.24.05-.21.05-.19-.05-1.11.54-.46.29.32.19,1.62.17,2.51-.01.45-.02.9-.01,1.34.02,1.31.08,2.91.14,4.56.13,3.5.24,7.24-.07,8.66-.17.75-.55,1.09-1.23,1.15-1.29.13-3.25-.8-4.86-1.57-.89-.43-1.68-.82-2.25-.99-1.33-.4-2.45-.52-3.47-.46-.79.05-1.46.22-2.08.4-.87.26-1.63.5-2.3.64-.94.19-1.74.11-2.38-.14,0,0,0,0,0,0-.95-.25-1.49-1.03-1.85-1.83-.4-.88-.51-1.98-.37-2.86.95-5.91.6-17.39.54-19.35,0-.3-.01-.52,0-.63.03-1.03.62-2.39,1.17-1.5Z"/>
              <path class="cls-8" d="M19.49,4.1c.25.55.46,1.22.43,1.95-.03,1.01-.14,2.02-.16,3.03-.06,3.43-.13,6.95-.03,10.41,0,.35,0,.71,0,1.06.01.7.12,1.3.57,1.63.47.35.52.5.8.48.06,0,.13,0,.21-.02.29-.04.65-.17,1.05-.43.22-.14.44-.34.69-.54.83-.62,1.22-1.45,1.39-2.39.11-.64.13-1.32.1-1.96,0-.22-.02-.44-.03-.65,0-.19-.02-.37-.03-.55-.01-.29.04-.57.14-.79.07-.16.15-.31.24-.43.22-.28.39-.4.4-.49.06-.58.01-1.18-.03-1.74,0-.08-.03-.14-.05-.2-.02.22-.06-.47.03-.3.08.14.21-.45.35-.46.11-.18.21-.4.28-.69.14-.63.07-1.41.08-2.07,0-.3.01-.67.02-1.07.02-.41.06-2.91.05-3.21,0-.12,0-.23.02-.33.07-.52.34-.95.66-1.16.4-.26.74-.2.83-.01.05-.13.06,11.72.12,11.67,0,.28-.03.61-.06.95-.09.9-.19,1.93.28,2.74.36.63,1.03,1.02,1.74,1.03.62,0,1.17-.29,1.52-.81.45-.68.44-1.6.42-2.4,0-.24-.01-.47,0-.67.02-.29.05-.79.09-1.38.12-1.75.27-4.14.2-4.97,0,0-.03-.34-.03-.34-.15-1.56-.28-3.03.19-4.13.22-.51.65-.4.78.18.41,1.82.26,4.28.13,7.11-.04.88-.08,1.8-.09,2.76-.02,1.11-.08,2.33-.07,3.49,0,.92.02,1.86.22,2.49.02.06.04.12.06.18.37,1.32.25,1.97.8,2.15.26.09.57.13.96-.02,0,0,0,0,0,0,.17-.08.36-.18.56-.31.6-.41,1.01-1.01,1.31-1.69.39-.9.54-2.21.93-2.74.19-.76.02-1.25-.04-1.78-.12-1.04-.18-1.99-.05-2.58,0,.02.05-.31.05-.29.06-.28-.09-1.41.63-.74.32.3.21,1.7.19,2.64-.01.47-.03.95-.02,1.41.02,1.36.08,3.04.15,4.8.14,3.65.27,7.65-.06,9.13-.16.74-.54,1.06-1.23,1.1-1.28.09-3.22-.83-4.79-1.59-.88-.43-1.65-.8-2.22-.98-1.25-.38-2.34-.52-3.35-.47-.76.03-1.42.17-2.02.34-.84.24-1.56.48-2.21.65-.9.24-1.68.24-2.33.07t0,0c-.96-.16-1.59-.81-2.02-1.57-.51-.89-.64-2.02-.49-2.88.99-5.75.66-17.3.59-19.59,0-.32-.01-.55-.01-.64.02-1.05.71-2.47,1.19-1.4Z"/>
              <path class="cls-6" d="M19.58,4.27c.19.61.31,1.29.28,2.01-.04.99-.16,1.99-.17,2.98-.06,3.36-.12,6.83-.03,10.24,0,.31,0,.63,0,.94,0,.61.06,1.19.31,1.6.28.47.39.79.72.99.07.04.15.08.24.1.32.1.72.1,1.18-.03.24-.07.5-.19.79-.32.97-.42,1.41-1.12,1.61-1.92.14-.57.15-1.18.12-1.75,0-.2-.02-.39-.03-.58-.01-.17-.02-.33-.03-.49-.01-.26,0-.51.06-.72.04-.16.09-.3.13-.44.12-.32.21-.57.23-.79.07-1.39.03-2.81-.03-4.18,0-.17-.02-.32-.04-.48-.01.11-.05-.82,0-.74.04.07.09-.66.16-.66.05-.2.1-.43.13-.68.07-.58.03-1.25.03-1.85,0-.29,0-.61.01-.95.01-.21.03-2.69.03-2.84,0-.11.01-.21.03-.3.1-.46.41-.82.79-.93.46-.13.85.12.89.47.03-.07,0,13.53.03,13.51,0,.33-.04.7-.08,1.09-.11,1.04-.24,2.22.28,3.14.4.72,1.16,1.17,1.96,1.17.7,0,1.32-.34,1.71-.93.51-.78.48-1.84.45-2.77,0-.28-.02-.54,0-.77.01-.34.05-.91.09-1.59.12-2.02.28-4.78.19-5.76,0,0-.04-.4-.04-.4-.18-1.81-.34-3.51.19-4.78.25-.6.74-.47.89.19.4,1.75.27,4.11.14,6.84-.04.84-.08,1.73-.1,2.66-.03,1.08-.07,2.23-.05,3.36.01.84-.02,1.75.04,2.49,0,.08.01.15.02.22.11,1.6,0,2.73.66,3.23.29.22.67.33,1.12.26h0c.2-.04.42-.11.66-.21.69-.31,1.16-.85,1.49-1.51.41-.84.62-1.99.78-2.83.18-.96-.02-1.86-.11-2.74-.12-1.29-.21-2.49-.07-3.28,0,.01.06-.38.06-.37.06-.38-.14-1.69.71-1.02.34.27.24,1.78.2,2.77-.02.49-.03,1-.03,1.48.01,1.4.08,3.17.15,5.04.15,3.81.3,8.06-.04,9.59-.16.72-.53,1.03-1.24,1.05-1.28.04-3.18-.87-4.72-1.62-.87-.42-1.62-.79-2.19-.96-1.18-.36-2.24-.51-3.23-.49-.74.02-1.38.13-1.97.28-.8.21-1.49.46-2.12.67-.86.28-1.63.37-2.29.28t0,0c-.97-.08-1.69-.59-2.2-1.32-.62-.9-.77-2.07-.62-2.9,1.04-5.59.72-17.22.63-19.83-.01-.35-.02-.57-.02-.65,0-1.07.83-2.54,1.21-1.29Z"/>
              <path class="cls-4" d="M37.01,32.02c.72,0,1.08-.29,1.24-1,.35-1.59.17-6.09.02-10.06-.08-1.97-.15-3.83-.16-5.28,0-.5.02-1.03.04-1.55.04-1.03.15-2.65-.22-2.9-.98-.67-.73.82-.79,1.3l-.07.45c-.16,1-.04,2.45.08,3.98.28,3.38.59,7.2-2.14,7.94-.27.07-.52.11-.75.11h0c-.52,0-.96-.19-1.28-.53-.82-.89-.67-2.6-.5-4.57.08-.85.15-1.74.13-2.49-.05-2.03.04-4.02.13-5.78.13-2.62.24-4.88-.15-6.57-.17-.73-.71-.87-.99-.19-.6,1.45-.4,3.39-.2,5.44l.04.45c.11,1.13-.06,4.26-.18,6.54-.04.77-.08,1.42-.09,1.81,0,.26,0,.56.01.87.04,1.06.08,2.25-.48,3.14-.43.67-1.12,1.06-1.9,1.06-.9,0-1.74-.5-2.18-1.32-.57-1.04-.42-2.37-.28-3.55.05-.44.1-.87.11-1.24l.06-15.34c0-.52-.42-.95-.95-.95-.52,0-.95.42-.95.95v2.48c-.01,1.04-.02,2.08,0,3.12l.05,2.04c.08,2.93.17,5.97-.04,8.92-.02.32,0,.69.04,1.08.11,1.22.26,3.06-1.92,3.49-.32.06-.62.1-.89.1-.67,0-1.2-.2-1.59-.58-.72-.73-.71-1.92-.7-3.07,0-.27,0-.55,0-.82-.09-3.35-.03-6.76.03-10.06.03-1.67.39-3.36.07-4.99-.29-1.43-1.23.09-1.24,1.18.02.57.56,14.63-.66,20.74-.16.81,0,2.02.74,2.92.58.7,1.38,1.06,2.37,1.06h0c.67,0,1.43-.17,2.24-.49,1.06-.42,2.28-.91,3.94-.91.98,0,2,.16,3.11.5.57.17,1.31.53,2.16.94,1.51.73,3.38,1.64,4.65,1.64Z"/>
            </g>
            <g class="cls-12">
              <path class="cls-5" d="M4.62,22.44c1.23.85,1.9,2.02,3.15,2.89,1.28.89,2.34,1.91,3.74,2.62,2.02,1.02,4.04,2.08,6.11,2.97,1.87.81,4.01,1.52,5.5,2.99,1.26,1.25,3.1,2.5,4.21,3.76,2.31,2.63,5.41.8,7.41-1.13,1.83-1.76,4.46-2.52,4.63.87.1,1.98-.84,3.63-1.96,5.17-1.81,2.49-5.55,4-8.43,4.43-3.48.52-6.58-.58-9.23-2.89-1.58-1.37-2.87-3.01-4.21-4.61-2.75-3.28-5.01-6.99-7.87-10.08-1.4-1.51-2.86-2.8-4.08-4.46-.49-.66-1.29-1.53-1.22-2.43.1-1.46,1.42-.69,2.26-.11Z"/>
              <path class="cls-3" d="M2.71,22.88c.1-1.44,1.42-.67,2.22-.09,1.13.8,1.86,1.93,3.13,2.8,1.25.86,2.32,1.85,3.69,2.56,1.99,1.02,3.99,2.07,5.99,2.97,1.3.58,2.68,1.11,3.83,1.78.55.32,1.09.72,1.57,1.19,1.23,1.23,3,2.5,4.09,3.76.68.78,1.42,1.19,2.14,1.31,1.85.31,3.77-.92,5.16-2.22.47-.44.99-.81,1.49-1.07,1.4-.71,2.88-.77,3.15,1.51.06.55,0,1.22-.14,1.73-.39,1.46-1.29,2.6-2.14,3.64-1.11,1.35-2.8,2.42-4.58,3.14-1.27.51-2.59.83-3.78.96-3.4.39-6.45-.78-8.97-3.07-1.5-1.36-2.74-2.96-4.03-4.52-.61-.73-1.19-1.49-1.76-2.25-1.84-2.44-3.75-5.14-5.93-7.46-1.22-1.3-2.45-2.43-3.48-3.71-.16-.2-.32-.4-.47-.61-.48-.65-1.25-1.5-1.19-2.36Z"/>
              <path class="cls-2" d="M3.05,23.22c.1-1.42,1.41-.65,2.19-.08,1.04.76,1.82,1.83,3.12,2.71,1.22.83,2.3,1.79,3.65,2.49,1.96,1.03,3.93,2.07,5.88,2.97,1.33.61,2.68,1.16,3.76,1.78.53.3,1.05.7,1.54,1.18,1.2,1.2,2.9,2.51,3.97,3.75.68.79,1.4,1.21,2.07,1.35,1.87.37,3.74-.81,5.12-2.03.48-.42.98-.78,1.47-1.03,1.3-.65,2.79-.98,3.17,1.05.1.54.02,1.33-.13,1.84-.48,1.62-1.56,2.77-2.46,3.73-1.16,1.25-2.84,2.27-4.58,2.93-1.24.47-2.54.74-3.72.83-3.32.26-6.32-.98-8.71-3.24-1.42-1.34-2.61-2.9-3.85-4.42-.58-.72-1.14-1.45-1.69-2.19-1.69-2.25-3.66-4.89-5.81-7.17-1.21-1.28-2.42-2.41-3.37-3.6-.15-.19-.3-.39-.46-.59-.47-.64-1.21-1.47-1.16-2.28Z"/>
              <path class="cls-7" d="M3.39,23.55c.1-1.4,1.4-.63,2.16-.06.95.71,1.78,1.73,3.1,2.62,1.19.8,2.27,1.72,3.6,2.43,1.93,1.03,3.88,2.08,5.76,2.97,1.36.65,2.69,1.21,3.68,1.77.51.29,1.02.68,1.51,1.17,1.17,1.18,2.79,2.52,3.85,3.75.68.79,1.38,1.24,1.99,1.38,1.89.42,3.71-.68,5.08-1.84.48-.41.98-.76,1.46-.99,1.2-.59,2.72-1.18,3.19.59.14.53.04,1.44-.12,1.94-.57,1.79-1.83,2.93-2.79,3.83-1.21,1.14-2.87,2.12-4.57,2.73-1.22.43-2.49.66-3.66.7-3.24.13-6.19-1.18-8.45-3.42-1.34-1.33-2.49-2.84-3.66-4.33-.55-.7-1.09-1.41-1.62-2.13-1.53-2.06-3.57-4.64-5.69-6.87-1.21-1.27-2.4-2.38-3.26-3.48-.14-.18-.29-.37-.44-.57-.46-.62-1.18-1.44-1.12-2.21Z"/>
              <path class="cls-9" d="M3.73,23.88c.09-1.38,1.4-.61,2.12-.05.85.66,1.74,1.63,3.08,2.54,1.16.77,2.25,1.66,3.55,2.37,1.9,1.03,3.83,2.08,5.64,2.97,1.39.68,2.69,1.27,3.61,1.77.48.27.99.66,1.48,1.16,1.14,1.16,2.69,2.53,3.74,3.74.68.79,1.35,1.27,1.92,1.41,1.91.49,3.69-.56,5.04-1.65.49-.39.98-.73,1.45-.96,1.09-.52,2.68-1.38,3.21.13.18.52.06,1.55-.11,2.04-.66,1.96-2.1,3.09-3.11,3.93-1.26,1.04-2.9,1.97-4.56,2.53-1.19.4-2.44.57-3.59.58-3.15,0-6.05-1.38-8.19-3.59-1.27-1.31-2.36-2.78-3.48-4.23-.53-.68-1.04-1.37-1.55-2.07-1.38-1.86-3.48-4.39-5.58-6.57-1.21-1.25-2.37-2.36-3.15-3.36-.13-.17-.28-.36-.42-.56-.46-.61-1.14-1.41-1.09-2.13Z"/>
              <path class="cls-10" d="M4.07,24.21c.09-1.36,1.39-.59,2.09-.03.76.6,1.7,1.54,3.07,2.45,1.12.74,2.23,1.59,3.51,2.3,1.86,1.04,3.77,2.08,5.52,2.97,1.41.71,2.7,1.32,3.53,1.77.46.25.95.64,1.45,1.14,1.12,1.13,2.59,2.53,3.62,3.74.68.8,1.33,1.3,1.85,1.45,1.93.55,3.67-.44,5-1.46.49-.38.98-.71,1.43-.92.99-.46,2.66-1.59,3.23-.33.23.51.08,1.66-.1,2.15-.76,2.12-2.37,3.26-3.44,4.02-1.3.94-2.93,1.82-4.56,2.32-1.17.36-2.38.49-3.53.45-3.07-.12-5.92-1.59-7.93-3.77-1.19-1.29-2.23-2.73-3.3-4.13-.5-.66-.99-1.34-1.48-2-1.23-1.67-3.39-4.15-5.46-6.28-1.21-1.24-2.34-2.33-3.04-3.25-.12-.16-.26-.34-.41-.54-.45-.6-1.1-1.38-1.05-2.06Z"/>
              <path class="cls-11" d="M4.41,24.55c.09-1.34,1.39-.57,2.05-.02.67.55,1.66,1.45,3.05,2.36,1.09.72,2.21,1.53,3.46,2.24,1.83,1.04,3.72,2.09,5.41,2.97,1.44.75,2.7,1.37,3.46,1.77.43.23.92.62,1.42,1.13,1.09,1.11,2.49,2.54,3.5,3.74.68.8,1.31,1.34,1.77,1.48,1.94.63,3.64-.32,4.96-1.27.5-.36.98-.68,1.42-.88.88-.4,2.67-1.81,3.25-.79.29.5.1,1.77-.09,2.25-.86,2.28-2.64,3.42-3.76,4.12-1.35.84-2.97,1.67-4.55,2.12-1.14.32-2.33.41-3.46.32-2.99-.24-5.79-1.79-7.67-3.94-1.11-1.28-2.11-2.67-3.12-4.04-.48-.65-.94-1.3-1.41-1.94-1.08-1.47-3.3-3.9-5.34-5.98-1.2-1.22-2.32-2.31-2.93-3.13-.12-.15-.25-.33-.39-.52-.44-.59-1.06-1.35-1.02-1.98Z"/>
              <path class="cls-8" d="M4.75,24.88c.09-1.31,1.38-.55,2.02,0,.58.5,1.62,1.35,3.04,2.27,1.06.69,2.19,1.46,3.42,2.18,1.8,1.04,3.66,2.09,5.29,2.97,1.46.79,2.71,1.42,3.38,1.76.41.21.89.61,1.39,1.12,1.06,1.09,2.39,2.55,3.38,3.73.68.81,1.29,1.37,1.7,1.52,1.95.71,3.62-.19,4.92-1.09.51-.35.98-.66,1.4-.84.78-.34,2.7-2.03,3.27-1.25.35.48.12,1.87-.07,2.36-.96,2.44-2.91,3.59-4.08,4.22-1.39.74-3,1.52-4.54,1.92-1.11.28-2.28.33-3.4.19-2.91-.36-5.66-1.99-7.41-4.11-1.04-1.26-1.98-2.61-2.94-3.94-.45-.63-.9-1.26-1.34-1.88-.92-1.28-3.21-3.65-5.22-5.68-1.2-1.21-2.29-2.28-2.83-3.01-.11-.15-.24-.32-.38-.5-.43-.57-1.02-1.31-.98-1.9Z"/>
              <path class="cls-6" d="M5.1,25.21c.09-1.29,1.38-.54,1.99,0,.49.44,1.58,1.25,3.02,2.18,1.03.66,2.16,1.4,3.37,2.11,1.77,1.04,3.61,2.1,5.17,2.96,1.49.82,2.71,1.47,3.31,1.76.38.19.85.59,1.35,1.11,1.03,1.06,2.28,2.56,3.26,3.73.68.81,1.27,1.41,1.63,1.55,1.96.8,3.6-.07,4.88-.9.51-.33.98-.64,1.39-.81.67-.28,2.73-2.28,3.29-1.71.44.45.13,1.98-.06,2.46-1.07,2.6-3.18,3.76-4.41,4.31-1.44.65-3.03,1.37-4.54,1.72-1.09.25-2.23.24-3.34.06-2.82-.48-5.53-2.19-7.14-4.29-.96-1.25-1.85-2.56-2.75-3.85-.43-.61-.85-1.22-1.28-1.82-.77-1.08-3.12-3.4-5.11-5.39-1.2-1.19-2.26-2.26-2.72-2.9-.1-.14-.22-.3-.36-.48-.43-.56-.98-1.28-.95-1.83Z"/>
              <path class="cls-4" d="M7.39,25.57c1.5,1.42,12.72,7.99,14.62,8.86,1.56.72,5.04,5.95,6.02,6.41,2.76,1.28,4.85-.94,6.21-1.48.57-.22,2.77-2.56,3.31-2.17.53.38.15,2.09-.05,2.56-1.18,2.76-3.45,3.93-4.73,4.41-1.48.56-3.06,1.22-4.53,1.51-3.71.73-8.07-1.63-10.16-4.54-1.3-1.81-2.51-3.71-3.78-5.5-1-1.43-6.61-6.42-7.6-7.87-.37-.54-1.3-1.56-1.26-2.21.08-1.27,1.38-.52,1.95.02Z"/>
            </g>
          </g>
          <g class="cls-15">
            <path class="cls-17" d="M1.08,20.02c1.4-.84,4.46.89,5.64,2.02,2.41,2.3,9.19,6.99,9.19,6.13-.01-5.84,0-23.44,0-23.44,0-1.59,1.29-2.87,2.87-2.87s2.87,1.29,2.87,2.87c0,0,.01,11.54,0,15.82,0,.22.68.34.68.1.02-4.68,0-17.7,0-17.7,0-1.63,1.33-2.96,2.96-2.96s2.96,1.32,2.96,2.96c0,0-.02,14.75,0,19.05,0,.23.68.38.68.15-.06-4.89,0-17.42,0-17.42,0-1.59,1.29-2.87,2.87-2.87s2.87,1.29,2.87,2.87c0,0,.01,14.15,0,17.79,0,.19.53.03.53-.15-.02-2.75,0-8.35,0-11.14,0-1.39,1.13-2.52,2.52-2.52s2.52,1.13,2.52,2.52c0,0-.36,11.72,0,15.61.3,3.21.59,6.97.59,8.66,0,8.17-5.48,13.02-14.06,13.02s-14.99-11.71-18.79-16.72c-1.56-2.07-7.05-7.6-7.05-7.6-1.11-1.2-1.41-3.25.16-4.18Z"/>
          </g>
        </g>
      </g>
    </g>
  </g>
</svg>