<?xml version="1.0" encoding="UTF-8"?>
<svg xmlns="http://www.w3.org/2000/svg" xmlns:xlink="http://www.w3.org/1999/xlink" viewBox="0 0 34.29 35.94">
  <defs>
    <style>
      .cls-1 {
        fill: #efb62a;
      }

      .cls-2 {
        fill: #faca45;
      }

      .cls-3 {
        fill: #ecb022;
      }

      .cls-4 {
        opacity: .22;
      }

      .cls-4, .cls-5, .cls-6, .cls-7, .cls-8, .cls-9, .cls-10, .cls-11, .cls-12, .cls-13 {
        fill: #fed04e;
      }

      .cls-14 {
        fill: #fcce4a;
      }

      .cls-5 {
        opacity: .11;
      }

      .cls-15 {
        mix-blend-mode: screen;
        opacity: .2;
      }

      .cls-16 {
        fill: #edb124;
      }

      .cls-17 {
        mask: url(#mask-1);
      }

      .cls-18 {
        fill: #eeb427;
      }

      .cls-19 {
        fill: #fdcf4c;
      }

      .cls-20 {
        fill: #f9c943;
      }

      .cls-21 {
        fill: #efb72b;
      }

      .cls-22 {
        fill: #fdd04d;
      }

      .cls-23 {
        fill: #f6c43c;
      }

      .cls-24 {
        mask: url(#mask);
      }

      .cls-25 {
        fill: #f2bc32;
      }

      .cls-26 {
        fill: #f3bd34;
      }

      .cls-27 {
        fill: #f1bb31;
      }

      .cls-28 {
        fill: url(#linear-gradient-4);
        opacity: .3;
      }

      .cls-28, .cls-29, .cls-30, .cls-31 {
        mix-blend-mode: multiply;
      }

      .cls-32 {
        fill: #f5c139;
      }

      .cls-7 {
        opacity: 0;
      }

      .cls-33 {
        fill: #e9ab1b;
      }

      .cls-34 {
        mask: url(#mask-2);
      }

      .cls-35 {
        filter: url(#luminosity-noclip-3);
      }

      .cls-36 {
        fill: #f7c43d;
      }

      .cls-37 {
        fill: #fbcc47;
      }

      .cls-8 {
        opacity: .89;
      }

      .cls-9 {
        opacity: .33;
      }

      .cls-38 {
        fill: #e3a00d;
      }

      .cls-39 {
        fill: #f6c23a;
      }

      .cls-40 {
        isolation: isolate;
      }

      .cls-41 {
        fill: #f9c842;
      }

      .cls-42 {
        fill: #f5c138;
      }

      .cls-43 {
        fill: #f2bb31;
      }

      .cls-44 {
        fill: #f4bf37;
      }

      .cls-45 {
        fill: #f3be35;
      }

      .cls-46 {
        fill: #f1b92e;
      }

      .cls-10 {
        opacity: .78;
      }

      .cls-47 {
        fill: #efb529;
      }

      .cls-48 {
        fill: #f1ba30;
      }

      .cls-49 {
        fill: #eeb326;
      }

      .cls-50 {
        fill: #f8c741;
      }

      .cls-11 {
        opacity: .44;
      }

      .cls-51 {
        fill: #fbcc48;
      }

      .cls-52 {
        fill: #fccf4b;
      }

      .cls-29 {
        fill: url(#linear-gradient-3);
      }

      .cls-53 {
        fill: #f3bc33;
      }

      .cls-54 {
        fill: #f0b72c;
      }

      .cls-55 {
        fill: #f1b92f;
      }

      .cls-12 {
        opacity: .56;
      }

      .cls-56 {
        fill: #fbcd49;
      }

      .cls-57 {
        fill: #e6a514;
      }

      .cls-58 {
        fill: #eeb428;
      }

      .cls-59 {
        fill: #f7c53e;
      }

      .cls-60 {
        fill: #f6c33b;
      }

      .cls-61 {
        fill: #f5c037;
      }

      .cls-62 {
        fill: #f0b82d;
      }

      .cls-30 {
        fill: url(#linear-gradient);
      }

      .cls-63 {
        fill: #facb46;
      }

      .cls-64 {
        fill: #edb225;
      }

      .cls-65 {
        fill: #f4c038;
      }

      .cls-66 {
        fill: #ecb123;
      }

      .cls-67 {
        fill: #f4bf36;
      }

      .cls-13 {
        opacity: .67;
      }

      .cls-68 {
        fill: #f8c63f;
      }

      .cls-69 {
        fill: #f7c53f;
      }

      .cls-31 {
        fill: url(#linear-gradient-2);
        opacity: .4;
      }

      .cls-70 {
        fill: #f8c740;
      }

      .cls-71 {
        mask: url(#mask-3);
      }

      .cls-72 {
        filter: url(#luminosity-noclip);
      }

      .cls-73 {
        fill: #fac944;
      }
    </style>
    <filter id="luminosity-noclip" x=".78" y="6.39" width="25.23" height="17.17" color-interpolation-filters="sRGB" filterUnits="userSpaceOnUse">
      <feFlood flood-color="#fff" result="bg"/>
      <feBlend in="SourceGraphic" in2="bg"/>
    </filter>
    <filter id="luminosity-noclip-2" x=".78" y="-8134.78" width="25.23" height="32766" color-interpolation-filters="sRGB" filterUnits="userSpaceOnUse">
      <feFlood flood-color="#fff" result="bg"/>
      <feBlend in="SourceGraphic" in2="bg"/>
    </filter>
    <mask id="mask-1" x=".78" y="-8134.78" width="25.23" height="32766" maskUnits="userSpaceOnUse"/>
    <linearGradient id="linear-gradient" x1="-57.14" y1="-41.41" x2="-50.44" y2="-28.15" gradientTransform="translate(59.88 58.13) rotate(9.35)" gradientUnits="userSpaceOnUse">
      <stop offset="0" stop-color="#fff"/>
      <stop offset=".16" stop-color="#fbfbfb"/>
      <stop offset=".29" stop-color="#f1f1f1"/>
      <stop offset=".41" stop-color="#e0e0e0"/>
      <stop offset=".52" stop-color="#c8c8c8"/>
      <stop offset=".63" stop-color="#a9a9a9"/>
      <stop offset=".74" stop-color="#838383"/>
      <stop offset=".84" stop-color="#565656"/>
      <stop offset=".94" stop-color="#232323"/>
      <stop offset="1" stop-color="#000"/>
    </linearGradient>
    <mask id="mask" x=".78" y="6.39" width="25.23" height="17.17" maskUnits="userSpaceOnUse">
      <g class="cls-72">
        <g class="cls-17">
          <path class="cls-30" d="M14.46,13.81c-.21-9.79-6.56-8.37-6.42-4.35,0,.2.11.1.1-.1-.07-3.04-6.94.75-7.21,5.04-.22,3.55-.12,3.75-.07,5.61.26,9.02,27.89-1.67,24.94-4.51-2.19-2.11-11.26,1.74-11.33-1.7Z"/>
        </g>
      </g>
    </mask>
    <linearGradient id="linear-gradient-2" x1="-57.14" y1="-41.41" x2="-50.44" y2="-28.15" gradientTransform="translate(59.88 58.13) rotate(9.35)" gradientUnits="userSpaceOnUse">
      <stop offset="0" stop-color="#e3a00d"/>
      <stop offset=".91" stop-color="#e3a00d"/>
      <stop offset="1" stop-color="#e3a00d"/>
    </linearGradient>
    <filter id="luminosity-noclip-3" x=".53" y="3.99" width="33.76" height="31.91" color-interpolation-filters="sRGB" filterUnits="userSpaceOnUse">
      <feFlood flood-color="#fff" result="bg"/>
      <feBlend in="SourceGraphic" in2="bg"/>
    </filter>
    <filter id="luminosity-noclip-4" x=".53" y="-8134.78" width="33.76" height="32766" color-interpolation-filters="sRGB" filterUnits="userSpaceOnUse">
      <feFlood flood-color="#fff" result="bg"/>
      <feBlend in="SourceGraphic" in2="bg"/>
    </filter>
    <mask id="mask-3" x=".53" y="-8134.78" width="33.76" height="32766" maskUnits="userSpaceOnUse"/>
    <linearGradient id="linear-gradient-3" x1="-48.43" y1="-14.28" x2="-48.43" y2="-46.84" gradientTransform="translate(59.88 58.13) rotate(9.35)" gradientUnits="userSpaceOnUse">
      <stop offset="0" stop-color="#fff"/>
      <stop offset="0" stop-color="#fcfcfc"/>
      <stop offset=".08" stop-color="#c8c8c8"/>
      <stop offset=".17" stop-color="#999"/>
      <stop offset=".26" stop-color="#6f6f6f"/>
      <stop offset=".35" stop-color="#4d4d4d"/>
      <stop offset=".45" stop-color="#313131"/>
      <stop offset=".56" stop-color="#1b1b1b"/>
      <stop offset=".67" stop-color="#0b0b0b"/>
      <stop offset=".81" stop-color="#020202"/>
      <stop offset="1" stop-color="#000"/>
    </linearGradient>
    <mask id="mask-2" x=".53" y="3.99" width="33.76" height="31.91" maskUnits="userSpaceOnUse">
      <g class="cls-35">
        <g class="cls-71">
          <path class="cls-29" d="M32.25,16.34c-1.29-1.57-10.65-9.09-10.66-9.35-.17-5.16-6.6-3.07-6.49,1.68,0,.26-.74.44-.75.18-.09-5.4-6.46-3.42-6.32.6,0,.2.11.1.1-.1-.07-3.04-6.07-2.31-6.03-.77,0,0-.91,1.52-1.18,5.82-.22,3.55-.43,9.35-.38,11.21.26,9.02,6.28,10.04,16.28,10.27,9.23.21,12.2-4.9,15-9.64.97-1.65,1.48-3.17,1.89-4.19,1.3-3.23.24-3.65-1.46-5.72Z"/>
        </g>
      </g>
    </mask>
    <linearGradient id="linear-gradient-4" x1="-48.43" y1="-14.28" x2="-48.43" y2="-46.84" gradientTransform="translate(59.88 58.13) rotate(9.35)" gradientUnits="userSpaceOnUse">
      <stop offset="0" stop-color="#e3a00d"/>
      <stop offset=".12" stop-color="#e3a00d"/>
      <stop offset="1" stop-color="#e3a00d"/>
    </linearGradient>
  </defs>
  <g class="cls-40">
    <g id="Ebene_2" data-name="Ebene 2">
      <g id="_1" data-name=" 1">
        <g>
          <g>
            <path class="cls-38" d="M29.63,15.58c.42-6.46-7.37-11.24-7.29-8.72,0,.24-.74.4-.75.13-.17-5.16,0-4.04,0-4.04-.05-1.8-6.59-1.62-6.53.19,0,0-.06.79.05,5.53,0,.26-.74.44-.75.18-.09-5.4-.11-4.84-.11-4.84-.05-1.75-6.39-1.57-6.34.18,0,0,0,1.23.13,5.25,0,.2.11.1.1-.1-.07-3.04-6.07-2.31-6.03-.77,0,0-.91,1.52-1.18,5.82-.22,3.55-.43,9.35-.38,11.21.26,9.02,6.81,9.88,16.28,10.27,9.47.39,11.73-4.24,15.25-10.23,1.45-2.47-2.5-9.14-2.44-10.08Z"/>
            <path class="cls-57" d="M2.46,8.39c.09-1.27,4.94-1.21,5.69.46.06.14.09.3.1.46,0,.16-.08.24-.09.05-.02-.69-.04-1.31-.06-1.81-.07-2.38.07-3.23.2-3.26.1-.65,1.09-1.15,2.17-1.09,1.17.06,2.55.24,3.32.76.28.19.48.42.52.69.07.02.16-.31.2,1.63,0,.48.02,1.22.04,2.26,0,.19.67,0,.66-.26-.01-.58-.02-1.01-.02-1.39-.06-3.26.1-3.95.25-3.95.12-1.1,2.88-1.29,4.69-.51.78.34,1.56.61,1.62,1.04.01-.02-.11-.97.31,3.68.02.25.71.12.73-.08.07-1.08,2-.47,3.67,1.29,1.71,1.81,3.15,4.63,3.11,7.42,0,.35.61,1.95,1.3,3.61.46,1.09.97,2.39,1.22,3.5.26,1.15.18,2.15-.21,2.83-3.5,6.01-5.97,10.35-15.19,9.88-9.3-.49-15.75-1.48-16-10.18-.02-.64,0-1.7.04-2.94.09-2.44.31-5.59.47-8.05.12-1.94.29-3.13.47-4,.29-1.39.69-2,.81-2Z"/>
            <path class="cls-33" d="M2.81,8.19c.21-1.12,4.74-.31,5.45.74.07.1.09.22.09.33,0,.13-.07.18-.08,0-.02-.68-.04-1.33-.06-1.8-.06-2.19.21-3.03.46-3.1.22-.61,1.22-1,2.15-.87,1.05.14,2.22.54,2.96,1.09.27.2.47.42.54.66.14.04.31-.28.35,1.31,0,.28.01.8.03,1.63,0,.12.58-.09.58-.35,0-.66-.01-1.05-.02-1.38-.06-3.03.22-3.77.52-3.77.27-.97,2.7-.92,4.42.29.65.46,1.55.66,1.68.95.03-.04-.03-.82.62,3.32.04.23.67.13.7-.03.18-.86,2.02-.26,3.44,1.48,1.59,1.94,2.7,4.82,2.83,7.23.01.29.52,2.02,1.18,3.58.44,1.04,1.01,2.37,1.26,3.43.27,1.15.1,2.12-.28,2.77-3.48,6.03-6.15,10.09-15.13,9.53-9.13-.59-15.48-1.7-15.73-10.1-.02-.66,0-1.68.06-2.89.11-2.36.42-5.32.59-7.88.14-2.22.27-3.36.42-4.18.25-1.35.71-2,.95-2.01Z"/>
            <path class="cls-3" d="M3.16,7.99c.34-.96,4.32.78,5.21,1.02.05.08.08.14.09.21,0,.09-.06.12-.07-.06-.02-.68-.04-1.34-.06-1.79-.05-2,.35-2.83.73-2.94.34-.56,1.36-.91,2.14-.64.93.32,1.88.85,2.61,1.43.26.2.47.41.57.63.21.05.47-.26.49.99,0,.07,0,.39.02,1,0,.05.5-.17.5-.43,0-.73,0-1.08-.01-1.37-.06-2.79.33-3.58.79-3.6.43-.84,2.51-.61,4.15,1.1.53.56,1.55.72,1.73.86.04-.06.08-.66.93,2.96.05.22.63.14.68.02.29-.64,2.03-.02,3.21,1.66,1.46,2.09,2.24,5.03,2.54,7.04.04.23.43,2.08,1.07,3.55.43.98,1.05,2.35,1.3,3.36.29,1.15.02,2.09-.35,2.72-3.45,6.06-6.34,9.83-15.07,9.17-8.96-.69-15.21-1.93-15.45-10.01-.02-.68,0-1.67.08-2.83.14-2.28.54-5.05.7-7.72.16-2.5.25-3.58.37-4.36.21-1.31.73-2,1.09-2.01Z"/>
            <path class="cls-47" d="M3.51,7.79c.47-.81,4.04,1.76,4.97,1.31.05.05.08.07.08.08,0,.06-.05.06-.06-.11-.02-.68-.05-1.36-.05-1.77-.04-1.81.49-2.63.99-2.77.45-.51,1.51-.81,2.13-.42.83.52,1.54,1.15,2.26,1.76.24.21.47.41.6.6.28.07.61-.23.63.68,0-.14,0-.02,0,.37,0-.02.42-.25.41-.51,0-.8,0-1.12,0-1.36-.06-2.55.45-3.4,1.05-3.42.58-.7,2.37-.35,3.88,1.9.42.63,1.55.77,1.78.78.06-.08.22-.5,1.24,2.59.07.2.59.16.66.08.4-.43,2.02.23,2.98,1.85,1.33,2.25,2.22,5.19,2.26,6.85.1.16.33,2.15.95,3.53.41.92,1.09,2.32,1.34,3.29.3,1.15-.07,2.06-.41,2.67-3.43,6.08-6.52,9.57-15.01,8.82-8.79-.8-14.94-2.15-15.18-9.92-.02-.69.01-1.66.09-2.78.16-2.2.65-4.78.82-7.55.18-2.78.23-3.81.33-4.54.17-1.27.75-2,1.23-2.01Z"/>
            <path class="cls-27" d="M3.87,7.6c.59-.65,3.77,2.74,4.73,1.59.05.01.07-.01.08-.05,0,.02-.04,0-.04-.16-.01-.67-.05-1.37-.05-1.76-.03-1.61.63-2.44,1.26-2.61.57-.47,1.65-.68,2.12-.19.72.75,1.21,1.45,1.91,2.1.23.21.46.4.62.57.35.09.76-.21.77.36,0-.35-.01-.44,0-.26,0-.08.33-.33.33-.59,0-.87,0-1.15,0-1.34-.05-2.31.57-3.22,1.32-3.24.74-.57,2.28-.12,3.61,2.71.33.7,1.55.83,1.83.69.07-.1.4-.33,1.55,2.23.08.19.54.17.64.13.51-.21,2,.49,2.75,2.03,1.18,2.42,1.87,5.37,1.98,6.67.14.1.24,2.21.84,3.5.4.86,1.12,2.3,1.38,3.22.32,1.15-.15,2.03-.48,2.62-3.41,6.11-6.71,9.31-14.95,8.47-8.62-.9-14.67-2.38-14.9-9.83-.02-.71.02-1.65.11-2.72.19-2.11.76-4.51.94-7.38.19-3.06.21-4.04.28-4.72.13-1.23.76-2,1.38-2.01Z"/>
            <path class="cls-65" d="M4.22,7.4c.72-.5,3.49,3.73,4.5,1.87.04-.02.05-.09.07-.18,0-.01-.03-.06-.03-.21-.01-.67-.05-1.39-.05-1.74-.03-1.42.77-2.24,1.53-2.45.69-.42,1.77-.54,2.11.04.59.99.87,1.74,1.56,2.43.22.22.46.4.65.54.42.11.91-.18.91.04-.01-.56-.02-.85-.02-.89,0-.15.25-.41.24-.67,0-.94,0-1.19,0-1.33-.04-2.07.69-3.04,1.59-3.06.9-.44,2.25.12,3.34,3.51.25.78,1.55.88,1.88.6.08-.12.63-.17,1.86,1.87.1.17.5.18.62.18.62,0,1.96.76,2.52,2.21,1,2.61,1.53,5.56,1.7,6.48.17.04.15,2.28.72,3.48.39.8,1.16,2.27,1.42,3.15.34,1.15-.23,2-.54,2.56-3.39,6.13-6.89,9.05-14.89,8.12-8.45-1-14.41-2.61-14.63-9.74-.02-.72.02-1.64.13-2.67.22-2.03.87-4.24,1.06-7.22.21-3.35.19-4.26.23-4.91.09-1.19.78-2,1.52-2.02Z"/>
            <path class="cls-69" d="M4.57,7.2c.84-.34,2.9,4.55,4.26,2.15.03-.06.06-.17.07-.31,0-.05-.02-.12-.02-.26,0-.67-.05-1.41-.05-1.73-.02-1.23.91-2.04,1.79-2.28.81-.38,1.87-.4,2.1.26.42,1.24.54,2.04,1.2,2.77.2.22.45.39.68.51.49.12,1.06-.15,1.05-.28-.02-.77-.03-1.26-.03-1.52,0-.22.16-.5.16-.75,0-1.02.01-1.22.01-1.32-.04-1.83.8-2.86,1.86-2.88,1.05-.3,2.26.36,3.07,4.31.18.86,1.55.94,1.93.52.1-.14.91-.04,2.17,1.51.13.16.46.19.6.23.73.22,1.91,1.03,2.29,2.4.79,2.8,1.18,5.74,1.42,6.29.2-.03.06,2.34.61,3.45.37.75,1.21,2.25,1.46,3.08.36,1.15-.31,1.97-.61,2.51-3.36,6.16-7.08,8.79-14.83,7.77-8.28-1.1-14.14-2.83-14.35-9.66-.02-.74.02-1.62.15-2.61.24-1.95.98-3.97,1.17-7.05.23-3.63.16-4.49.19-5.09.04-1.15.8-2,1.66-2.02Z"/>
            <path class="cls-63" d="M4.92,7c.97-.19,2.81,5.64,4.02,2.43.03-.09.06-.24.06-.44,0-.08,0-.18,0-.31,0-.66-.05-1.42-.05-1.71,0-1.04,1.04-1.84,2.06-2.12.93-.33,1.97-.28,2.09.49.23,1.47.21,2.34.85,3.1.19.23.45.39.7.49.56.14,1.2-.13,1.19-.59-.02-.98-.03-1.68-.04-2.15,0-.29.08-.58.08-.83,0-1.09.02-1.26.02-1.31-.04-1.59.92-2.67,2.13-2.71,1.21-.17,2.3.62,2.8,5.12.1.94,1.54.99,1.98.43.11-.16,1.21.04,2.48,1.14.16.14.42.2.58.29.84.43,1.84,1.3,2.06,2.58.53,3,.84,5.93,1.14,6.1.23-.09-.03,2.41.5,3.42.36.69,1.25,2.22,1.51,3.01.38,1.15-.39,1.94-.67,2.46-3.34,6.18-7.26,8.52-14.77,7.42-8.11-1.21-13.87-3.06-14.08-9.57-.02-.75.03-1.61.17-2.56.27-1.86,1.09-3.7,1.29-6.89.25-3.91.14-4.71.14-5.27,0-1.11.82-1.99,1.8-2.02Z"/>
            <path class="cls-22" d="M15.45,32.98C6.53,31.51.49,29.2,1.84,20.99c.29-1.78,1.2-3.43,1.41-6.72.27-4.19.13-4.94.09-5.45-.03-1.07.84-1.99,1.94-2.02,1.1-.03,2.67,6.67,3.78,2.71.13-.46.01-2.21,0-2.63,0-1.62,4.37-3.08,4.4-1.24.03,1.68-.12,2.63.5,3.44.57.74,2.09.71,2.06-.45-.11-4.62-.03-4.99-.03-4.99-.04-1.35,1.04-2.49,2.4-2.53,1.36-.04,2.36.9,2.53,5.92.04,1.03,1.54,1.04,2.03.34.24-.35,4.98.87,5.18,3.89.21,3.19.5,6.11.85,5.91.27-.15-.12,2.47.38,3.4.34.63,1.29,2.2,1.55,2.94.4,1.15-.47,1.91-.74,2.41-3.32,6.21-7.45,8.26-14.71,7.07Z"/>
          </g>
          <g class="cls-15">
            <path class="cls-7" d="M21.34,9.83c-2.36-.39-1.52-6.28-1.54-7.05-.03-.99-.86-1.76-1.85-1.73-.99.03-1.76.86-1.73,1.85.18,5.64-.19-4.2,0,1.44.05,1.45.75,3.57.05,4.93-.65,1.26-2.39,1.57-3.24.33-.7-1.03-.44-2.85-.52-4.04-.1-1.62-3.13-7.29-3.11-1.79,0,3.34,1.68,8.37-1.49,7.61-3.63-.86-4.71-1.49-4.66.65.11,4.89-.3,4.38.39,7.1,1.24,4.92,10.13-1.6,9.79-1.48,3.56-1.19,5.6-.4,7.31.23,5.51,2.02,7.36-2.34,6.78-4.88-1.53-6.7-3.08-2.64-6.18-3.16Z"/>
            <path class="cls-5" d="M9.5,4.07c-.02-2.01.55-2.46,1.05-2.1.26.18.53.56.79,1,.55.96,1.04,2.27,1.1,2.95.04.47.03,1.03.06,1.6.05.83.17,1.66.6,2.23.23.31.52.51.84.61.84.28,1.85-.12,2.32-.99.2-.36.29-.77.33-1.22.1-1.16-.23-2.5-.27-3.53-.06-1.65-.07-1.9-.06-1.65,0,.28.04,1.16.06,1.51.02.37.02.08-.03-1.6-.02-.6.28-1.13.73-1.43.3-.2.65-.3,1.02-.28.19.01.38.06.54.13.63.2,1.1,1.01,1.13,1.71,0,.09,0,.34-.02.58-.08,1.4-.35,4.76.91,5.92.23.21.5.36.83.41.73.11,1.36-.04,1.93-.25,1.75-.65,2.87-1.97,4.08,3.34.54,2.36-.99,5.9-6.11,4.7-.49-.11-1.04-.19-1.66-.32h0c-.46-.1-.96-.21-1.5-.29-.78-.12-1.65-.17-2.69-.03-.64.09-1.33.25-2.08.5.04-.01-1.01.77-2.44,1.57-1.86,1.04-4.35,2.12-5.91,1.57-.65-.22-1.12-.71-1.34-1.59-.66-2.61-.14-2.8.03-7.07.03-.73.18-1.1.58-1.23h0c.53-.16,1.41.05,2.8.34.32.07.67.13,1.05.2,2.87.54,1.36-4.1,1.33-7.27Z"/>
            <path class="cls-4" d="M9.61,4.37c-.03-1.87.66-2.32,1.1-1.95.23.19.47.56.69,1,.48.93.91,2.19.98,2.88.05.46.06,1,.11,1.54.08.79.26,1.56.7,2.08.23.27.52.46.83.55.82.25,1.78-.14,2.26-.96.2-.34.31-.74.36-1.16.13-1.11-.15-2.4-.19-3.41-.06-1.5-.07-1.78-.07-1.61,0,.18.02.9.03,1.15.02.33.02-.11-.03-1.58-.02-.59.3-1.12.77-1.39.31-.18.66-.24,1.01-.18.18.03.35.09.5.18.55.17.97,1.15.99,1.76,0,.08,0,.37-.02.58-.07,1.37-.34,4.73,1.06,5.81.25.19.53.33.85.37.73.09,1.36-.07,1.9-.3,1.62-.69,2.67-2.16,3.93,3.32.5,2.17-.98,5.86-5.44,4.52-.51.04-1.1-.01-1.77-.13h0c-.5-.09-1.04-.2-1.63-.32-.83-.16-1.76-.27-2.9-.14-.7.08-1.44.25-2.25.52-.04.01-1.07.75-2.43,1.51-1.83,1.02-4.26,2.09-5.8,1.61-.67-.19-1.13-.66-1.34-1.53-.63-2.5,0-3.38.45-7.04.08-.63.23-.95.61-1.06h0c.53-.15,1.36.03,2.62.22.3.04.62.07.96.11,2.58.32,1.23-3.92,1.18-6.94Z"/>
            <path class="cls-9" d="M9.72,4.68c-.04-1.74.77-2.18,1.14-1.8.2.2.4.57.6.99.42.91.78,2.1.87,2.8.05.45.08.97.16,1.47.12.75.34,1.46.8,1.93.24.24.51.41.82.48.8.21,1.71-.16,2.19-.93.2-.32.32-.7.39-1.1.17-1.06-.07-2.29-.11-3.29-.06-1.35-.08-1.66-.09-1.58-.01.09,0,.64,0,.79.01.28.02-.3-.02-1.56-.02-.59.32-1.11.8-1.34.32-.15.67-.18.99-.09.17.05.32.13.45.23.47.15.84,1.29.86,1.81,0,.07,0,.4-.01.58-.05,1.34-.34,4.7,1.2,5.69.27.17.55.29.87.33.73.07,1.35-.11,1.88-.36,1.49-.72,2.48-2.35,3.78,3.31.45,1.99-.83,5.35-4.76,4.34-.52.15-1.15.16-1.89.07h0c-.53-.07-1.11-.19-1.75-.34-.88-.2-1.88-.36-3.11-.24-.75.08-1.55.25-2.41.54-.13.04-1.12.73-2.42,1.45-1.81.99-4.18,2.07-5.7,1.66-.68-.16-1.14-.6-1.35-1.46-.6-2.4.14-3.94.87-7.01.12-.53.28-.8.64-.9h0c.54-.13,1.32,0,2.45.1.27.02.56.02.86.03,2.28.1,1.1-3.75,1.02-6.6Z"/>
            <path class="cls-11" d="M9.82,4.98c-.06-1.61.88-2.04,1.18-1.65.17.22.34.58.5.99.35.88.65,2.02.75,2.73.06.44.11.93.21,1.41.16.71.43,1.36.89,1.77.24.21.51.35.8.42.78.17,1.65-.19,2.13-.9.21-.31.34-.66.42-1.04.21-1.01.01-2.19-.03-3.17-.06-1.2-.08-1.53-.1-1.54-.02,0-.03.37-.02.43.01.23.02-.49-.02-1.54-.02-.59.34-1.1.84-1.3.33-.13.68-.12.98,0,.16.07.3.16.4.28.39.12.72,1.43.73,1.87,0,.06,0,.43,0,.58-.04,1.31-.34,4.68,1.35,5.58.28.15.57.26.89.28.73.06,1.34-.14,1.85-.42,1.37-.75,2.29-2.54,3.62,3.29.41,1.81-.68,4.83-4.09,4.15-.54.26-1.21.34-2.01.27h0c-.57-.06-1.19-.18-1.87-.36-.93-.24-1.99-.46-3.32-.35-.81.07-1.65.25-2.58.56-.21.07-1.17.72-2.41,1.4-1.78.97-4.1,2.04-5.6,1.71-.7-.13-1.15-.55-1.36-1.39-.58-2.29.27-4.47,1.29-6.99.17-.42.33-.65.67-.73h0c.54-.11,1.28.08,2.27-.03.25-.03.5-.04.77-.05,1.98-.11.96-3.58.87-6.27Z"/>
            <path class="cls-12" d="M9.93,5.29c-.07-1.47.98-1.9,1.23-1.5.14.23.27.59.4.98.28.86.52,1.93.63,2.65.07.43.13.9.26,1.35.19.67.51,1.25.99,1.62.24.18.51.3.79.35.76.13,1.58-.21,2.06-.88.21-.29.35-.62.44-.99.24-.96.1-2.08.05-3.05-.05-1.05-.09-1.41-.11-1.51-.03-.11-.05.11-.05.07,0,.19.01-.68-.01-1.52-.02-.59.36-1.09.87-1.26.34-.11.69-.06.97.1.15.08.27.2.35.33.32.1.59,1.58.6,1.92,0,.05,0,.47,0,.59-.02,1.27-.34,4.66,1.49,5.47.3.13.6.22.91.24.73.04,1.33-.16,1.83-.47,1.24-.77,2.1-2.73,3.47,3.28.37,1.62-.54,4.31-3.42,3.97-.55.36-1.26.51-2.12.46h0c-.6-.04-1.27-.17-2-.38-.98-.28-2.1-.56-3.54-.46-.86.06-1.76.25-2.75.58-.29.1-1.22.7-2.4,1.34-1.75.95-4.01,2.02-5.5,1.76-.72-.1-1.16-.5-1.37-1.33-.55-2.18.35-4.97,1.71-6.96.21-.3.38-.5.7-.57h0c.55-.09,1.24-.05,2.1-.15.23-.03.45-.09.68-.14,1.68-.32.83-3.41.71-5.93Z"/>
            <path class="cls-13" d="M10.04,5.59c-.08-1.34,1.08-1.76,1.27-1.35.11.24.21.59.31.98.21.84.39,1.85.52,2.58.08.42.16.87.31,1.28.23.63.59,1.15,1.09,1.47.24.15.5.25.78.29.74.09,1.51-.23,2-.85.21-.27.37-.58.47-.93.28-.91.18-1.98.13-2.92-.05-.91-.09-1.29-.13-1.47-.04-.2-.07-.16-.07-.29,0,.14.01-.87,0-1.5-.02-.58.38-1.09.91-1.21.35-.08.69,0,.95.2.14.1.24.23.31.38.24.07.46,1.72.47,1.98,0,.04,0,.5,0,.59,0,1.24-.34,4.64,1.64,5.36.31.11.62.19.93.2.73.03,1.33-.19,1.8-.53,1.12-.79,1.9-2.93,3.32,3.26.33,1.44-.39,3.79-2.75,3.79-.57.47-1.32.69-2.24.66h0c-.64-.02-1.35-.16-2.12-.4-1.03-.32-2.21-.65-3.75-.57-.92.05-1.87.25-2.91.6-.37.13-1.27.68-2.39,1.28-1.72.92-3.93,1.99-5.39,1.81-.74-.07-1.17-.44-1.38-1.26-.52-2.07.37-5.46,2.13-6.93.23-.19.43-.35.73-.4h0c.55-.07,1.2-.08,1.92-.27.2-.05.39-.15.59-.22,1.37-.52.7-3.23.56-5.59Z"/>
            <path class="cls-10" d="M10.15,5.89c-.09-1.21,1.18-1.62,1.32-1.2.08.26.14.6.21.97.14.81.26,1.77.4,2.51.08.41.19.83.36,1.22.27.59.67,1.05,1.19,1.32.24.12.5.2.77.22.72.05,1.45-.25,1.93-.82.22-.25.38-.55.5-.87.32-.87.26-1.87.2-2.8-.05-.76-.1-1.17-.14-1.44-.05-.3-.1-.42-.1-.65,0,.09.01-1.06,0-1.48-.02-.58.4-1.08.94-1.17.36-.06.7.06.94.29.12.12.21.27.26.43.16.05.33,1.86.33,2.03,0,.02.01.53,0,.59,0,1.21-.35,4.63,1.78,5.25.33.1.64.15.95.16.74.01,1.32-.21,1.78-.58,1-.81,1.71-3.12,3.17,3.24.29,1.25-.24,3.27-2.07,3.61-.59.58-1.37.86-2.35.85h0c-.67,0-1.43-.15-2.24-.43-1.08-.36-2.33-.75-3.96-.67-.97.05-1.98.25-3.08.62-.46.15-1.32.66-2.38,1.22-1.7.9-3.85,1.97-5.29,1.86-.76-.04-1.18-.39-1.38-1.2-.49-1.96.31-6.05,2.54-6.9.25-.09.48-.2.77-.23h0c.56-.05,1.16-.13,1.75-.39.18-.08.33-.2.49-.31,1.07-.71.57-3.06.4-5.26Z"/>
            <path class="cls-8" d="M10.25,6.2c-.1-1.07,1.28-1.47,1.36-1.05.05.27.08.61.11.97.07.79.12,1.68.29,2.43.09.4.21.8.41,1.16.31.55.75.96,1.29,1.17.24.1.5.15.76.16.7.02,1.38-.28,1.87-.79.22-.23.4-.51.53-.81.36-.82.35-1.77.28-2.68-.04-.61-.1-1.05-.16-1.4-.06-.39-.12-.69-.13-1.01,0,.05,0-1.25,0-1.46-.02-.58.42-1.07.98-1.12.37-.03.71.12.93.39.11.14.19.3.21.48.08.02.2,2,.2,2.09,0,.01.02.56.01.59.02,1.18-.35,4.62,1.93,5.14.34.08.67.12.97.12.74,0,1.32-.24,1.75-.64.88-.82,1.52-3.31,3.02,3.23.25,1.07-.09,2.75-1.4,3.43-.6.69-1.43,1.04-2.47,1.05h0c-.71,0-1.5-.14-2.37-.45-1.13-.39-2.44-.84-4.17-.78-1.03.04-2.09.25-3.25.63-.54.18-1.38.65-2.37,1.17-1.67.88-3.76,1.94-5.19,1.91-.78,0-1.19-.34-1.39-1.13-.47-1.86.32-6.4,2.96-6.88.26-.05.52-.05.8-.07h0c.57-.04,1.11-.18,1.57-.51.15-.11.28-.25.4-.39.78-.89.44-2.89.25-4.92Z"/>
            <path class="cls-6" d="M5.75,20.01c-.8.02-1.2-.29-1.4-1.07-.44-1.75.35-7.57,3.38-6.85.3.07.57.1.83.1h0c.57-.02,1.05-.24,1.39-.63.87-1.01.66-2.89.4-5.06-.11-.94,1.38-1.33,1.41-.9.02.29.01.62.01.96,0,1.17-.02,2.49.63,3.45.5.73,1.28,1.14,2.14,1.11.99-.03,1.9-.61,2.36-1.52.6-1.16.38-2.63.19-3.93-.07-.49-.14-.95-.16-1.36v-1.44c-.01-.58.44-1.06,1.02-1.08.57-.02,1.06.44,1.08,1.01l.09,2.74c.04,1.15-.36,4.62,2.07,5.03.36.06.69.09.99.08.74-.02,1.32-.25,1.73-.7.78-.83,1.33-3.5,2.86,3.21.2.88.06,2.23-.73,3.24-.62.8-1.49,1.21-2.59,1.25h0c-.74.02-1.58-.14-2.49-.47-1.18-.43-2.55-.94-4.38-.89-1.08.03-2.2.25-3.42.65-.62.21-1.43.63-2.36,1.11-1.64.85-3.68,1.92-5.08,1.96Z"/>
          </g>
          <g>
            <path class="cls-38" d="M14.7,15.43s-.99-10.48.87-13.99c.65-1.23,5.25-2.05,6-.87,2.23,3.52-.96,15.21-.96,15.21-.12,1.46-1.53,2.57-3.16,2.47-1.63-.09-2.86-1.35-2.75-2.82Z"/>
            <path class="cls-57" d="M14.77,15.45s-.91-10.26.91-13.93c.59-1.2,5.15-2.01,5.84-.86,2.09,3.51-1,15.12-1,15.12-.11,1.4-1.49,2.47-3.07,2.38-1.59-.09-2.79-1.3-2.67-2.71Z"/>
            <path class="cls-33" d="M14.84,15.46s-.84-10.04.95-13.87c.54-1.16,5.05-1.98,5.68-.85,1.95,3.5-1.04,15.04-1.04,15.04-.11,1.35-1.45,2.37-2.99,2.28-1.54-.08-2.71-1.25-2.6-2.6Z"/>
            <path class="cls-3" d="M14.92,15.47s-.75-9.82.98-13.81c.49-1.13,4.95-1.94,5.52-.85,1.8,3.49-1.08,14.96-1.08,14.96-.1,1.29-1.4,2.27-2.9,2.19-1.5-.08-2.63-1.2-2.52-2.49Z"/>
            <path class="cls-47" d="M14.99,15.48s-.66-9.59,1.02-13.75c.44-1.09,4.85-1.9,5.36-.84,1.65,3.48-1.11,14.88-1.11,14.88-.1,1.24-1.36,2.18-2.82,2.1-1.45-.08-2.55-1.15-2.45-2.39Z"/>
            <path class="cls-27" d="M15.07,15.5s-.56-9.36,1.06-13.68c.39-1.05,4.75-1.87,5.2-.83,1.5,3.47-1.15,14.79-1.15,14.79-.1,1.18-1.32,2.08-2.73,2-1.41-.07-2.47-1.09-2.37-2.28Z"/>
            <path class="cls-65" d="M15.14,15.51s-.46-9.12,1.1-13.62c.35-1.01,4.65-1.83,5.04-.83,1.35,3.47-1.19,14.71-1.19,14.71-.09,1.12-1.28,1.98-2.64,1.91-1.36-.07-2.39-1.04-2.3-2.17Z"/>
            <path class="cls-69" d="M15.22,15.52s-.34-8.88,1.14-13.56c.31-.97,4.54-1.79,4.88-.82,1.19,3.47-1.23,14.63-1.23,14.63-.09,1.07-1.24,1.88-2.56,1.82-1.32-.07-2.32-.99-2.22-2.06Z"/>
            <path class="cls-63" d="M15.29,15.54s-.21-8.64,1.17-13.5c.27-.93,4.44-1.75,4.72-.82,1.02,3.46-1.27,14.55-1.27,14.55-.09,1.01-1.2,1.79-2.47,1.72-1.27-.06-2.24-.94-2.15-1.95Z"/>
            <path class="cls-22" d="M15.36,15.55s-.07-8.4,1.21-13.44c.23-.89,4.33-1.71,4.55-.81.85,3.46-1.31,14.47-1.31,14.47-.08.96-1.16,1.69-2.39,1.63-1.23-.06-2.16-.89-2.07-1.85Z"/>
          </g>
          <g>
            <path class="cls-38" d="M26.29,16.7s4.54-9.5,4.01-13.44c-.18-1.38-4.22-3.73-5.33-2.88-3.31,2.54-4.34,14.61-4.34,14.61-.4,1.41.55,2.94,2.12,3.41,1.56.48,3.15-.28,3.55-1.69Z"/>
            <path class="cls-57" d="M26.22,16.69s4.39-9.32,3.95-13.39c-.14-1.33-4.14-3.66-5.18-2.82-3.17,2.57-4.27,14.54-4.27,14.54-.38,1.36.54,2.83,2.07,3.29,1.52.46,3.06-.26,3.44-1.62Z"/>
            <path class="cls-33" d="M26.14,16.67s4.24-9.14,3.89-13.35c-.11-1.28-4.06-3.6-5.04-2.76-3.04,2.61-4.21,14.48-4.21,14.48-.37,1.3.54,2.72,2.02,3.17,1.48.45,2.97-.24,3.34-1.54Z"/>
            <path class="cls-3" d="M26.07,16.66s4.09-8.96,3.84-13.3c-.07-1.23-3.98-3.53-4.89-2.7-2.9,2.65-4.15,14.41-4.15,14.41-.35,1.25.53,2.62,1.97,3.05,1.43.44,2.88-.22,3.23-1.47Z"/>
            <path class="cls-47" d="M25.99,16.65s3.92-8.77,3.78-13.26c-.04-1.18-3.9-3.46-4.74-2.64-2.75,2.7-4.08,14.35-4.08,14.35-.33,1.19.53,2.51,1.92,2.94,1.39.43,2.79-.19,3.12-1.39Z"/>
            <path class="cls-27" d="M25.92,16.63s3.75-8.59,3.72-13.21c0-1.12-3.82-3.39-4.59-2.57-2.61,2.74-4.02,14.29-4.02,14.29-.32,1.14.52,2.4,1.87,2.82,1.35.41,2.7-.17,3.01-1.32Z"/>
            <path class="cls-65" d="M25.85,16.62s3.57-8.41,3.66-13.17c.02-1.07-3.73-3.32-4.44-2.51-2.46,2.79-3.95,14.22-3.95,14.22-.3,1.09.52,2.3,1.82,2.7,1.31.4,2.61-.15,2.91-1.24Z"/>
            <path class="cls-69" d="M25.77,16.61s3.38-8.22,3.61-13.12c.05-1.02-3.65-3.24-4.29-2.45-2.31,2.84-3.89,14.16-3.89,14.16-.29,1.03.51,2.19,1.77,2.58,1.26.39,2.52-.13,2.8-1.17Z"/>
            <path class="cls-63" d="M25.7,16.59s3.17-8.04,3.55-13.08c.07-.97-3.56-3.17-4.14-2.39-2.15,2.9-3.82,14.09-3.82,14.09-.27.98.51,2.09,1.73,2.47,1.22.38,2.43-.11,2.69-1.09Z"/>
            <path class="cls-22" d="M25.63,16.58s2.96-7.86,3.49-13.03c.1-.92-3.48-3.1-3.99-2.33-2,2.95-3.76,14.03-3.76,14.03-.25.92.5,1.98,1.68,2.35,1.18.37,2.34-.09,2.59-1.02Z"/>
          </g>
          <g class="cls-24">
            <path class="cls-31" d="M14.46,13.81c-.21-9.79-6.56-8.37-6.42-4.35,0,.2.11.1.1-.1-.07-3.04-6.94.75-7.21,5.04-.22,3.55-.12,3.75-.07,5.61.26,9.02,27.89-1.67,24.94-4.51-2.19-2.11-11.26,1.74-11.33-1.7Z"/>
          </g>
          <g>
            <path class="cls-38" d="M7.48,15.93s-1.52-10.46.16-14.09c.59-1.28,5.14-2.38,5.95-1.24,2.41,3.4-.19,15.31-.19,15.31-.04,1.47-1.39,2.67-3.03,2.68-1.63,0-2.93-1.18-2.89-2.66Z"/>
            <path class="cls-57" d="M7.55,15.93s-1.44-10.24.2-14.03c.54-1.24,5.05-2.34,5.79-1.23,2.27,3.39-.23,15.23-.23,15.23-.04,1.42-1.36,2.57-2.95,2.58-1.59,0-2.85-1.13-2.81-2.55Z"/>
            <path class="cls-33" d="M7.63,15.94s-1.35-10.03.24-13.97c.48-1.2,4.95-2.29,5.63-1.21,2.13,3.39-.27,15.15-.27,15.15-.04,1.36-1.32,2.47-2.87,2.48-1.54.01-2.77-1.09-2.73-2.45Z"/>
            <path class="cls-3" d="M7.7,15.95s-1.25-9.81.28-13.91c.43-1.16,4.85-2.25,5.47-1.19,1.98,3.39-.31,15.07-.31,15.07-.04,1.3-1.29,2.37-2.79,2.38-1.5.01-2.69-1.04-2.65-2.35Z"/>
            <path class="cls-47" d="M7.78,15.96s-1.15-9.58.32-13.85c.39-1.12,4.75-2.21,5.31-1.18,1.83,3.39-.36,14.99-.36,14.99-.04,1.25-1.25,2.27-2.71,2.28-1.46.01-2.61-.99-2.57-2.24Z"/>
            <path class="cls-27" d="M7.85,15.97s-1.05-9.36.36-13.79C8.55,1.09,12.86,0,13.36,1.01c1.68,3.39-.4,14.91-.4,14.91-.04,1.19-1.22,2.17-2.62,2.18-1.41.01-2.53-.95-2.49-2.14Z"/>
            <path class="cls-65" d="M7.92,15.97s-.93-9.13.4-13.73c.3-1.04,4.55-2.12,4.99-1.14,1.53,3.4-.44,14.83-.44,14.83-.04,1.13-1.18,2.07-2.54,2.08-1.37.02-2.45-.9-2.41-2.04Z"/>
            <path class="cls-69" d="M8,15.98s-.8-8.89.44-13.67c.26-1,4.45-2.08,4.83-1.13,1.37,3.41-.48,14.75-.48,14.75-.04,1.08-1.14,1.97-2.46,1.98-1.32.02-2.37-.85-2.33-1.93Z"/>
            <path class="cls-63" d="M8.07,15.99s-.66-8.66.48-13.62c.22-.96,4.35-2.03,4.67-1.11,1.2,3.41-.53,14.67-.53,14.67-.04,1.02-1.11,1.86-2.38,1.88-1.28.02-2.29-.8-2.25-1.83Z"/>
            <path class="cls-22" d="M8.15,16s-.5-8.42.52-13.56c.19-.91,4.24-1.99,4.51-1.09,1.03,3.42-.57,14.59-.57,14.59-.04.96-1.07,1.77-2.3,1.78-1.23.02-2.21-.76-2.17-1.72Z"/>
          </g>
          <g>
            <path class="cls-3" d="M.89,14.46c.11-1.71,3.4-8.5,5.5,2.17,1.84,9.37,9.17,10.45,17.2,3.38.91-.8-8.95-1.36-10.23-2-2.46-1.22-2.74-2.98-1.79-4.94.94-1.96,12.28-2.2,14.92-1.66,3.42.69,5.55,2.91,7.7,7.43.64,1.36-1.85,6.42-2.64,7.73-3.92,6.54-6.33,9.4-14.76,9.37-9.47-.03-16.02-1.25-16.28-10.27-.06-1.86.15-7.66.38-11.21Z"/>
            <path class="cls-66" d="M.9,14.56c.12-1.74,3.42-8.28,5.61,2.22.14.65.31,1.26.49,1.84,1.54,4.75,4.96,6.66,9.07,5.66.94-.23,1.96-.6,2.96-1.1,1.47-.75,3.02-1.78,4.51-3.24.58-.56-4.36-1.02-7.59-1.48-1.28-.18-2.28-.36-2.62-.56-.94-.47-1.54-1.02-1.87-1.63-.52-.95-.4-2.04.18-3.21.96-1.92,12.09-2.16,14.72-1.64,2.69.53,4.58,2.01,6.29,4.8.44.73.9,1.55,1.34,2.46.43.79-.19,2.85-.97,4.73-.54,1.3-1.2,2.53-1.54,3.11-.56.93-1.08,1.78-1.6,2.57-3,4.55-5.67,6.63-12.26,6.77,0,0,0,0,0,0-.28,0-.57,0-.86,0-9.48-.04-15.98-1.26-16.24-10.23-.06-1.85.14-7.56.37-11.09Z"/>
            <path class="cls-16" d="M.91,14.66c.13-1.77,3.44-8.05,5.72,2.27.14.65.33,1.25.52,1.82,1.54,4.64,5.05,6.51,9.12,5.43.93-.24,1.98-.63,2.96-1.11,1.41-.74,2.92-1.71,4.26-3.18.5-.55-4.44-1.02-7.61-1.48-1.28-.19-2.26-.39-2.58-.6-.91-.46-1.49-1-1.81-1.59-.5-.93-.37-2,.21-3.14.97-1.89,11.91-2.12,14.53-1.62,2.66.52,4.54,1.96,6.23,4.69.43.71.91,1.51,1.33,2.4.48.78-.07,2.84-.81,4.78-.5,1.3-1.2,2.57-1.57,3.18-.56.93-1.08,1.78-1.59,2.56-3,4.56-5.65,6.62-12.22,6.76,0,0,0,0,0,0-.28,0-.56,0-.86,0-9.49-.05-15.94-1.26-16.19-10.19-.06-1.84.11-7.45.36-10.97Z"/>
            <path class="cls-64" d="M.92,14.76c.13-1.8,3.46-7.83,5.83,2.31.15.64.35,1.24.54,1.81,1.54,4.52,5.14,6.34,9.17,5.19.92-.26,2-.66,2.95-1.13,1.35-.72,2.83-1.63,4.02-3.13.43-.54-4.51-1.01-7.62-1.48-1.28-.19-2.24-.41-2.54-.64-.89-.45-1.44-.98-1.74-1.56-.47-.91-.35-1.95.24-3.06.98-1.85,11.73-2.08,14.34-1.6,2.64.5,4.5,1.91,6.16,4.57.42.69.92,1.47,1.33,2.34.53.78.06,2.83-.66,4.82-.47,1.3-1.21,2.61-1.59,3.24-.55.92-1.08,1.78-1.59,2.56-2.99,4.58-5.63,6.61-12.19,6.74,0,0,0,0,0,0-.28,0-.56,0-.86,0-9.5-.06-15.9-1.27-16.15-10.15-.05-1.84.09-7.35.35-10.84Z"/>
            <path class="cls-49" d="M.93,14.86c.14-1.83,3.48-7.6,5.94,2.36.16.64.37,1.23.57,1.79,1.55,4.41,5.23,6.19,9.23,4.95.91-.28,2.02-.69,2.95-1.15,1.3-.71,2.75-1.56,3.77-3.08.36-.53-4.58-1.01-7.64-1.49-1.28-.2-2.22-.43-2.5-.68-.86-.44-1.39-.96-1.67-1.52-.45-.89-.32-1.91.27-2.99.99-1.81,11.55-2.05,14.15-1.57,2.61.48,4.47,1.85,6.1,4.46.41.68.93,1.44,1.33,2.29.59.77.18,2.82-.51,4.86-.44,1.3-1.21,2.64-1.61,3.31-.55.92-1.07,1.77-1.58,2.55-2.99,4.59-5.61,6.6-12.16,6.73,0,0,0,0,0,0-.28,0-.56,0-.85,0-9.5-.07-15.86-1.27-16.11-10.1-.05-1.83.07-7.25.34-10.72Z"/>
            <path class="cls-18" d="M.95,14.96c.15-1.86,3.5-7.38,6.05,2.41.17.63.39,1.22.6,1.78,1.55,4.3,5.32,6.03,9.28,4.72.9-.3,2.04-.72,2.95-1.17,1.24-.7,2.38-1.71,3.53-3.02.18-.58-4.65-1-7.65-1.49-1.29-.21-2.2-.45-2.47-.72-.84-.43-1.34-.94-1.6-1.49-.42-.87-.3-1.86.3-2.92,1-1.77,11.37-2.01,13.96-1.55,2.59.46,4.43,1.8,6.03,4.34.4.66.93,1.4,1.33,2.23.64.77.31,2.81-.36,4.91-.41,1.29-1.22,2.68-1.64,3.37-.55.92-1.07,1.77-1.58,2.55-2.99,4.61-5.59,6.59-12.13,6.71,0,0,0,0,0,0-.28,0-.56,0-.85,0-9.51-.07-15.82-1.28-16.07-10.06-.05-1.82.05-7.14.33-10.6Z"/>
            <path class="cls-58" d="M.96,15.06c.16-1.89,3.53-7.15,6.16,2.45.17.63.42,1.21.62,1.76,1.55,4.19,5.41,5.87,9.33,4.48.89-.32,2.06-.75,2.94-1.19,1.18-.68,2.23-1.68,3.28-2.97.08-.58-4.73-1-7.67-1.49-1.29-.22-2.18-.47-2.43-.76-.81-.42-1.29-.92-1.53-1.45-.39-.85-.27-1.82.33-2.85,1.02-1.73,11.19-1.98,13.77-1.53,2.56.45,4.39,1.75,5.97,4.23.39.64.94,1.37,1.32,2.17.69.76.43,2.8-.21,4.95-.38,1.29-1.22,2.71-1.66,3.44-.55.91-1.07,1.76-1.57,2.54-2.99,4.62-5.57,6.57-12.1,6.7,0,0,0,0,0,0-.28,0-.56,0-.85,0-9.52-.08-15.78-1.28-16.03-10.02-.05-1.81.04-7.04.32-10.48Z"/>
            <path class="cls-47" d="M.97,15.16c.17-1.92,3.56-6.92,6.27,2.5.18.62.44,1.19.65,1.75,1.54,4.08,5.51,5.72,9.38,4.24.88-.33,2.08-.77,2.94-1.2,1.12-.67,2.08-1.65,3.04-2.91-.02-.57-4.8-.99-7.68-1.49-1.29-.23-2.16-.49-2.39-.8-.79-.41-1.24-.9-1.46-1.42-.37-.84-.25-1.77.36-2.78,1.03-1.7,11.01-1.94,13.58-1.51,2.54.43,4.35,1.7,5.9,4.12.38.63.95,1.33,1.32,2.12.74.75.56,2.79-.05,4.99-.36,1.28-1.23,2.75-1.68,3.5-.55.91-1.06,1.76-1.57,2.54-2.99,4.64-5.55,6.56-12.07,6.68,0,0,0,0,0,0-.28,0-.56,0-.85,0-9.53-.09-15.74-1.29-15.99-9.98-.05-1.8.02-6.93.32-10.35Z"/>
            <path class="cls-1" d="M.98,15.26c.18-1.95,3.59-6.7,6.38,2.54.19.62.46,1.18.67,1.73,1.54,3.97,5.6,5.56,9.44,4.01.87-.35,2.1-.8,2.93-1.22,1.06-.66,1.93-1.62,2.79-2.86-.11-.57-4.87-.99-7.7-1.5-1.3-.23-2.14-.51-2.36-.84-.76-.4-1.19-.88-1.39-1.38-.34-.82-.22-1.73.39-2.7,1.04-1.66,10.83-1.9,13.39-1.48,2.51.41,4.32,1.65,5.84,4,.37.61.95,1.29,1.32,2.06.79.75.68,2.77.1,5.04-.33,1.28-1.24,2.78-1.71,3.57-.54.91-1.06,1.75-1.56,2.53-2.99,4.65-5.52,6.55-12.04,6.67,0,0,0,0,0,0-.28,0-.56,0-.85,0-9.53-.1-15.7-1.29-15.95-9.94-.05-1.79,0-6.83.31-10.23Z"/>
            <path class="cls-21" d="M.99,15.36c.18-1.98,3.62-6.47,6.49,2.59.2.62.48,1.17.7,1.72,1.54,3.86,5.69,5.41,9.49,3.77.86-.37,2.12-.83,2.93-1.24,1-.64,1.78-1.59,2.55-2.81-.21-.57-4.95-.99-7.71-1.5-1.3-.24-2.13-.53-2.32-.88-.74-.39-1.13-.86-1.33-1.35-.32-.8-.2-1.68.42-2.63,1.05-1.62,10.65-1.86,13.19-1.46,2.49.39,4.28,1.6,5.77,3.89.36.59.96,1.26,1.31,2,.85.74.8,2.76.25,5.08-.3,1.27-1.24,2.82-1.73,3.63-.54.91-1.06,1.75-1.56,2.53-2.99,4.67-5.5,6.54-12.01,6.65,0,0,0,0,0,0-.27,0-.56,0-.84,0-9.54-.11-15.66-1.3-15.91-9.9-.05-1.79-.02-6.73.3-10.11Z"/>
            <path class="cls-54" d="M1,15.46c.19-2.01,3.65-6.24,6.6,2.64.2.61.5,1.16.73,1.7,1.53,3.75,5.78,5.25,9.54,3.53.85-.39,2.13-.86,2.93-1.26.95-.63,1.63-1.56,2.3-2.75-.31-.57-5.02-.98-7.72-1.5-1.3-.25-2.11-.55-2.28-.92-.71-.38-1.08-.84-1.26-1.31-.29-.78-.17-1.64.45-2.56,1.07-1.58,10.47-1.83,13-1.44,2.46.38,4.24,1.54,5.71,3.78.35.58.97,1.22,1.31,1.94.9.74.92,2.75.4,5.13-.28,1.27-1.25,2.85-1.75,3.7-.54.9-1.05,1.74-1.55,2.52-2.99,4.68-5.48,6.52-11.98,6.64h0c-.27,0-.55,0-.84,0-9.55-.12-15.62-1.3-15.87-9.86-.05-1.78-.03-6.62.29-9.99Z"/>
            <path class="cls-62" d="M1.02,15.56c.2-2.04,3.69-6.01,6.71,2.68.21.61.52,1.15.75,1.69,1.52,3.65,5.87,5.09,9.59,3.3.83-.4,2.15-.89,2.92-1.27.89-.62,1.48-1.53,2.06-2.7-.4-.57-5.09-.98-7.74-1.5-1.31-.26-2.09-.58-2.24-.96-.69-.37-1.03-.82-1.19-1.28-.26-.76-.15-1.59.48-2.49,1.08-1.55,10.29-1.79,12.81-1.42,2.44.36,4.2,1.49,5.64,3.66.34.56.97,1.19,1.31,1.89.95.73,1.04,2.73.55,5.17-.25,1.26-1.25,2.89-1.78,3.76-.54.9-1.05,1.74-1.55,2.52-2.99,4.7-5.46,6.51-11.94,6.62h0c-.27,0-.55,0-.84,0-9.56-.12-15.58-1.31-15.83-9.82-.05-1.77-.05-6.52.28-9.86Z"/>
            <path class="cls-46" d="M1.03,15.66c.21-2.07,3.73-5.79,6.82,2.73.22.6.55,1.13.78,1.67,1.51,3.54,5.96,4.94,9.65,3.06.82-.42,2.17-.92,2.92-1.29.83-.6,1.33-1.5,1.81-2.65-.5-.57-5.17-.98-7.75-1.51-1.31-.27-2.07-.6-2.21-1-.66-.36-.98-.8-1.12-1.24-.23-.74-.12-1.55.5-2.41,1.09-1.51,10.11-1.75,12.62-1.39,2.41.34,4.17,1.44,5.58,3.55.33.54.98,1.15,1.3,1.83,1,.73,1.16,2.71.7,5.21-.23,1.25-1.26,2.92-1.8,3.83-.54.9-1.05,1.74-1.54,2.51-2.99,4.71-5.44,6.5-11.91,6.6h0c-.27,0-.55,0-.84,0-9.56-.13-15.54-1.31-15.79-9.77-.05-1.76-.07-6.41.27-9.74Z"/>
            <path class="cls-55" d="M1.04,15.76c.22-2.09,3.77-5.56,6.93,2.77.23.6.57,1.12.8,1.66,1.5,3.43,6.05,4.79,9.7,2.83.81-.44,2.19-.95,2.91-1.31.77-.59,1.18-1.47,1.57-2.59-.6-.57-5.24-.98-7.77-1.51-1.32-.27-2.05-.62-2.17-1.04-.64-.35-.93-.78-1.05-1.21-.21-.72-.1-1.5.53-2.34,1.11-1.47,9.93-1.71,12.43-1.37,2.39.33,4.13,1.39,5.51,3.43.32.52.99,1.11,1.3,1.77,1.06.72,1.28,2.7.86,5.26-.21,1.24-1.26,2.96-1.82,3.89-.54.89-1.04,1.73-1.54,2.51-2.99,4.73-5.42,6.49-11.88,6.59h0c-.27,0-.55,0-.84,0-9.57-.14-15.5-1.32-15.74-9.73-.05-1.75-.08-6.31.26-9.62Z"/>
            <path class="cls-48" d="M1.05,15.86c.23-2.12,3.82-5.33,7.04,2.82.24.59.59,1.11.83,1.65,1.49,3.32,6.14,4.63,9.75,2.59.8-.45,2.21-.98,2.91-1.33.71-.58,1.03-1.44,1.32-2.54-.69-.57-5.31-.98-7.78-1.51-1.32-.28-2.03-.64-2.13-1.08-.61-.34-.87-.76-.98-1.17-.18-.69-.07-1.46.56-2.27,1.12-1.44,9.75-1.67,12.24-1.35,2.36.31,4.09,1.34,5.45,3.32.31.51,1,1.08,1.3,1.72,1.11.72,1.4,2.68,1.01,5.3-.19,1.24-1.27,3-1.85,3.96-.53.89-1.04,1.73-1.53,2.5-2.99,4.74-5.4,6.48-11.85,6.57h0c-.27,0-.55,0-.84,0-9.58-.15-15.46-1.32-15.7-9.69-.05-1.74-.1-6.2.26-9.49Z"/>
            <path class="cls-43" d="M1.06,15.96c.24-2.15,3.86-5.11,7.15,2.87.24.59.61,1.1.85,1.63,1.48,3.21,6.23,4.48,9.8,2.35.79-.47,2.23-1.01,2.9-1.35.65-.56.88-1.41,1.08-2.49-.79-.57-5.38-.98-7.8-1.51-1.32-.29-2.01-.66-2.09-1.12-.59-.33-.82-.73-.91-1.14-.15-.67-.04-1.42.59-2.2,1.14-1.4,9.57-1.64,12.05-1.32,2.34.29,4.05,1.29,5.38,3.21.3.49,1,1.04,1.3,1.66,1.16.71,1.52,2.66,1.16,5.34-.16,1.23-1.27,3.03-1.87,4.02-.53.89-1.03,1.72-1.53,2.5-2.99,4.76-5.38,6.46-11.82,6.56h0c-.27,0-.55,0-.83,0-9.59-.16-15.42-1.33-15.66-9.65-.05-1.74-.11-6.1.25-9.37Z"/>
            <path class="cls-25" d="M1.08,16.06c.25-2.18,3.91-4.88,7.26,2.91.25.59.63,1.09.88,1.62,1.46,3.1,6.32,4.32,9.86,2.12.78-.49,2.25-1.04,2.9-1.36.6-.55.73-1.38.83-2.43-.88-.57-5.46-.98-7.81-1.52-1.33-.3-1.99-.68-2.06-1.16-.56-.32-.84-.7-.85-1.1-.24-.62-.02-1.37.62-2.12,1.15-1.36,9.39-1.6,11.86-1.3,2.31.28,4.02,1.23,5.32,3.09.29.47,1.01,1.01,1.29,1.6,1.21.7,1.63,2.65,1.31,5.39-.14,1.22-1.28,3.07-1.89,4.09-.53.89-1.03,1.72-1.52,2.5-2.99,4.77-5.36,6.45-11.79,6.54h0c-.27,0-.55,0-.83,0-9.6-.17-15.38-1.33-15.62-9.61-.05-1.73-.13-6,.24-9.25Z"/>
            <path class="cls-53" d="M1.09,16.16c.26-2.21,3.96-4.65,7.37,2.96.26.58.65,1.07.91,1.6,1.45,3,6.41,4.17,9.91,1.88.77-.51,2.27-1.07,2.9-1.38.54-.54.58-1.35.59-2.38-.98-.57-5.53-.99-7.83-1.52-1.33-.31-1.97-.7-2.02-1.2-.54-.31-.8-.68-.78-1.07-.23-.59,0-1.33.65-2.05,1.17-1.32,9.21-1.56,11.67-1.28,2.29.26,3.98,1.18,5.25,2.98.28.46,1.02.97,1.29,1.54,1.26.7,1.75,2.63,1.46,5.43-.12,1.21-1.29,3.1-1.92,4.16-.53.88-1.03,1.71-1.52,2.49-2.99,4.79-5.33,6.44-11.76,6.53h0c-.27,0-.55,0-.83,0-9.6-.17-15.34-1.34-15.58-9.57-.05-1.72-.15-5.89.23-9.13Z"/>
            <path class="cls-26" d="M1.1,16.26c.27-2.24,4.01-4.43,7.48,3.01.27.58.67,1.06.93,1.59,1.43,2.89,6.51,4.01,9.96,1.64.76-.52,2.29-1.1,2.89-1.4.48-.52.43-1.32.34-2.32-1.08-.57-5.6-.99-7.84-1.52-1.33-.32-1.95-.72-1.98-1.24-.51-.3-.75-.66-.71-1.03-.21-.57.04-1.28.68-1.98,1.18-1.29,9.03-1.52,11.47-1.26,2.26.25,3.94,1.13,5.19,2.86.27.44,1.02.93,1.29,1.49,1.32.69,1.86,2.61,1.62,5.48-.1,1.2-1.29,3.14-1.94,4.22-.53.88-1.02,1.71-1.51,2.49-2.99,4.8-5.31,6.43-11.73,6.51h0c-.27,0-.54,0-.83,0-9.61-.18-15.3-1.34-15.54-9.53-.05-1.71-.16-5.79.22-9Z"/>
            <path class="cls-45" d="M1.11,16.36c.28-2.27,4.07-4.2,7.59,3.05.28.57.69,1.05.96,1.57,1.41,2.78,6.6,3.86,10.01,1.41.75-.54,2.31-1.13,2.89-1.42.42-.51.28-1.29.1-2.27-1.17-.57-5.67-.99-7.86-1.52-1.34-.33-1.94-.74-1.94-1.28-.49-.29-.7-.64-.64-1-.19-.55.06-1.24.71-1.91,1.2-1.25,8.84-1.48,11.28-1.23,2.24.23,3.91,1.08,5.13,2.75.26.42,1.03.9,1.28,1.43,1.37.69,1.97,2.59,1.77,5.52-.08,1.2-1.3,3.17-1.96,4.29-.53.88-1.02,1.71-1.5,2.48-2.99,4.82-5.29,6.42-11.7,6.5h0c-.27,0-.54,0-.83,0-9.62-.19-15.26-1.35-15.5-9.48-.05-1.7-.18-5.68.21-8.88Z"/>
            <path class="cls-67" d="M1.12,16.46c.29-2.3,4.13-3.98,7.7,3.1.29.57.71,1.04.98,1.56,1.39,2.68,6.69,3.71,10.07,1.17.74-.56,2.33-1.16,2.88-1.43.36-.5.13-1.26-.15-2.22-1.27-.57-5.75-.99-7.87-1.53-1.34-.34-1.92-.77-1.91-1.32-.46-.28-.66-.62-.57-.96-.17-.53.09-1.19.74-1.84,1.22-1.21,8.66-1.45,11.09-1.21,2.21.21,3.87,1.03,5.06,2.64.25.41,1.04.86,1.28,1.37,1.42.68,2.08,2.58,1.92,5.56-.07,1.19-1.3,3.21-1.99,4.35-.52.87-1.02,1.7-1.5,2.48-2.99,4.83-5.27,6.4-11.66,6.48h0c-.27,0-.54,0-.82,0-9.63-.2-15.23-1.36-15.46-9.44-.05-1.69-.19-5.58.21-8.76Z"/>
            <path class="cls-44" d="M1.14,16.56c.3-2.33,4.19-3.75,7.81,3.14.3.57.73,1.02,1.01,1.54,1.37,2.57,6.78,3.56,10.12.93.73-.57,2.35-1.19,2.88-1.45.3-.48-.02-1.23-.39-2.16-1.37-.57-5.82-1-7.89-1.53-1.34-.35-1.9-.79-1.87-1.36-.44-.27-.61-.6-.5-.92-.15-.51.12-1.15.77-1.76,1.23-1.18,8.48-1.41,10.9-1.19,2.19.2,3.83.98,5,2.52.24.39,1.05.83,1.28,1.32,1.47.68,2.19,2.56,2.07,5.61-.05,1.18-1.31,3.24-2.01,4.42-.52.87-1.01,1.7-1.49,2.47-2.99,4.85-5.25,6.39-11.63,6.47h0c-.27,0-.54,0-.82,0-9.63-.21-15.19-1.36-15.42-9.4-.05-1.69-.21-5.47.2-8.63Z"/>
            <path class="cls-61" d="M1.15,16.66c.31-2.36,4.25-3.53,7.92,3.19.31.56.75,1.01,1.04,1.53,1.34,2.47,6.87,3.4,10.17.7.72-.59,2.36-1.22,2.88-1.47.25-.47-.17-1.2-.64-2.11-1.46-.57-5.89-1-7.9-1.53-1.35-.35-1.88-.81-1.83-1.4-.41-.26-.56-.58-.43-.89-.13-.48.15-1.1.8-1.69,1.25-1.14,8.3-1.37,10.71-1.17,2.16.18,3.79.92,4.93,2.41.23.37,1.05.79,1.27,1.26,1.53.67,2.3,2.54,2.22,5.65-.03,1.17-1.31,3.28-2.03,4.48-.52.87-1.01,1.69-1.49,2.47-2.98,4.86-5.23,6.38-11.6,6.45h0c-.27,0-.54,0-.82,0-9.64-.22-15.15-1.37-15.38-9.36-.05-1.68-.22-5.37.19-8.51Z"/>
            <path class="cls-42" d="M1.16,16.76c.32-2.39,4.32-3.31,8.03,3.24.32.56.77,1,1.06,1.51,1.32,2.37,6.96,3.25,10.22.46.71-.61,2.38-1.24,2.87-1.49.19-.46-.32-1.17-.88-2.06-1.56-.57-5.96-1.01-7.91-1.53-1.35-.36-1.86-.83-1.8-1.44-.39-.25-.52-.56-.36-.85-.11-.46.18-1.05.83-1.62,1.27-1.1,8.12-1.33,10.52-1.14,2.14.16,3.76.87,4.87,2.3.22.36,1.06.75,1.27,1.2,1.58.66,2.41,2.52,2.37,5.69-.01,1.16-1.32,3.32-2.06,4.55-.52.87-1.01,1.69-1.48,2.46-2.98,4.88-5.21,6.37-11.57,6.44h0c-.27,0-.54,0-.82,0-9.65-.23-15.11-1.37-15.34-9.32-.05-1.67-.24-5.27.18-8.39Z"/>
            <path class="cls-32" d="M1.17,16.86c.33-2.42,4.38-3.09,8.14,3.28.33.55.79.99,1.09,1.5,1.29,2.26,7.05,3.1,10.27.22.7-.62,2.4-1.27,2.87-1.51.13-.45-.47-1.14-1.13-2-1.65-.57-6.03-1.01-7.93-1.54-1.35-.37-1.84-.85-1.76-1.48-.36-.24-.47-.54-.3-.82-.09-.44.2-1.01.85-1.55,1.28-1.06,7.94-1.29,10.33-1.12,2.11.15,3.72.82,4.8,2.18.21.34,1.07.72,1.27,1.14,1.63.66,2.51,2.5,2.53,5.74,0,1.16-1.32,3.35-2.08,4.61-.52.86-1,1.68-1.48,2.46-2.98,4.89-5.19,6.36-11.54,6.42h0c-.26,0-.54,0-.82,0-9.66-.23-15.07-1.38-15.29-9.28-.05-1.66-.25-5.16.17-8.27Z"/>
            <path class="cls-39" d="M1.18,16.96c.34-2.44,4.45-2.87,8.25,3.33.34.55.81.97,1.11,1.48,1.26,2.16,7.15,2.94,10.33-.01.69-.64,2.42-1.3,2.86-1.52.07-.43-.62-1.11-1.37-1.95-1.75-.56-6.11-1.02-7.94-1.54-1.36-.39-1.82-.87-1.72-1.52-.34-.23-.42-.52-.23-.78-.08-.42.23-.96.88-1.47,1.3-1.02,7.76-1.25,10.14-1.1,2.09.13,3.68.77,4.74,2.07.2.32,1.07.68,1.26,1.09,1.68.65,2.62,2.49,2.68,5.78.02,1.15-1.33,3.39-2.1,4.68-.52.86-1,1.68-1.47,2.45-2.98,4.91-5.17,6.34-11.51,6.41h0c-.26,0-.54,0-.81,0-9.66-.24-15.03-1.38-15.25-9.24-.05-1.65-.26-5.06.16-8.14Z"/>
            <path class="cls-60" d="M1.2,17.06c.35-2.47,4.52-2.65,8.36,3.37.35.54.83.96,1.14,1.47,1.23,2.06,7.24,2.79,10.38-.25.68-.66,2.44-1.33,2.86-1.54.01-.42-.77-1.08-1.62-1.9-1.85-.56-6.18-1.02-7.96-1.54-1.36-.4-1.8-.89-1.68-1.56-.31-.22-.38-.49-.16-.75-.06-.4.26-.92.91-1.4,1.32-.98,7.58-1.21,9.95-1.08,2.06.12,3.64.72,4.67,1.95.19.3,1.08.65,1.26,1.03,1.74.65,2.72,2.47,2.83,5.83.04,1.14-1.33,3.42-2.12,4.74-.51.86-1,1.67-1.47,2.45-2.98,4.92-5.14,6.33-11.48,6.39h0c-.26,0-.53,0-.81,0-9.67-.25-14.99-1.39-15.21-9.19-.05-1.64-.28-4.95.15-8.02Z"/>
            <path class="cls-23" d="M1.21,17.16c.36-2.5,4.6-2.43,8.47,3.42.36.54.85.95,1.16,1.45,1.2,1.96,7.33,2.64,10.43-.49.67-.67,2.46-1.36,2.86-1.56-.05-.41-.92-1.05-1.86-1.84-1.94-.56-6.25-1.03-7.97-1.54-1.36-.41-1.78-.91-1.65-1.6-.28-.21-.33-.47-.09-.71-.04-.37.29-.87.94-1.33,1.34-.94,7.4-1.17,9.75-1.05,2.04.1,3.61.67,4.61,1.84.18.29,1.09.61,1.26.97,1.79.64,2.82,2.45,2.98,5.87.05,1.13-1.34,3.46-2.15,4.81-.51.86-.99,1.67-1.46,2.44-2.98,4.94-5.12,6.32-11.45,6.37h0c-.26,0-.53,0-.81,0-9.68-.26-14.95-1.39-15.17-9.15-.05-1.63-.29-4.85.15-7.9Z"/>
            <path class="cls-36" d="M1.22,17.26c.37-2.53,4.67-2.22,8.58,3.47.37.53.87.94,1.19,1.44,1.17,1.86,7.42,2.49,10.48-.72.66-.69,2.48-1.39,2.85-1.58-.1-.39-1.07-1.02-2.11-1.79-2.04-.56-6.32-1.04-7.99-1.54-1.37-.42-1.76-.93-1.61-1.64-.26-.2-.28-.45-.02-.68-.02-.35.32-.82.97-1.26,1.36-.9,7.22-1.13,9.56-1.03,2.01.09,3.57.62,4.54,1.73.17.27,1.09.57,1.26.91,1.84.64,2.92,2.43,3.13,5.91.07,1.12-1.35,3.49-2.17,4.87-.51.85-.99,1.67-1.46,2.44-2.98,4.95-5.1,6.31-11.41,6.36h0c-.26,0-.53,0-.81,0-9.69-.27-14.91-1.4-15.13-9.11-.05-1.63-.31-4.74.14-7.78Z"/>
            <path class="cls-59" d="M1.23,17.36c.38-2.56,4.75-2,8.69,3.51.38.53.89.92,1.22,1.43,1.14,1.76,7.52,2.34,10.54-.96.65-.71,2.5-1.42,2.85-1.6-.16-.38-1.11-1.18-2.35-1.74-2.02-.9-6.39-1.04-8-1.55-1.37-.43-1.75-.96-1.57-1.68-.23-.19-.24-.43.05-.64,0-.33.35-.78,1-1.19,1.38-.86,7.04-1.09,9.37-1.01,1.99.07,3.53.56,4.48,1.61.15.25,1.1.54,1.25.86,1.89.63,3.02,2.42,3.29,5.96.08,1.12-1.35,3.53-2.19,4.94-.51.85-.99,1.66-1.45,2.43-2.98,4.97-5.08,6.3-11.38,6.34h0c-.26,0-.53,0-.81,0-9.7-.28-14.87-1.4-15.09-9.07-.05-1.62-.32-4.64.13-7.65Z"/>
            <path class="cls-68" d="M1.24,17.46c.39-2.59,4.83-1.79,8.8,3.56.39.52.91.91,1.24,1.41,1.1,1.66,7.61,2.18,10.59-1.19.64-.72,2.52-1.45,2.84-1.61-.22-.37-1.27-1.14-2.6-1.68-2.13-.87-6.46-1.05-8.02-1.55-1.37-.44-1.73-.98-1.53-1.72-.21-.18-.19-.41.12-.61.02-.31.38-.73,1.03-1.11,1.4-.82,6.85-1.05,9.18-.99,1.96.06,3.49.51,4.41,1.5.14.24,1.11.5,1.25.8,1.94.62,3.12,2.4,3.44,6,.1,1.11-1.36,3.56-2.22,5-.51.85-.98,1.66-1.45,2.43-2.98,4.98-5.06,6.28-11.35,6.33h0c-.26,0-.53,0-.8,0-9.7-.28-14.83-1.41-15.05-9.03-.05-1.61-.33-4.53.12-7.53Z"/>
            <path class="cls-70" d="M1.25,17.56c.4-2.62,4.91-1.58,8.91,3.61.4.52.93.9,1.27,1.4,1.06,1.56,7.7,2.03,10.64-1.43.63-.74,2.54-1.48,2.84-1.63-.28-.35-1.44-1.1-2.84-1.63-2.24-.85-6.54-1.06-8.03-1.55-1.38-.45-1.71-1-1.5-1.76-.18-.17-.14-.39.18-.57.04-.29.41-.68,1.06-1.04,1.42-.78,6.67-1.01,8.99-.96,1.94.04,3.46.46,4.35,1.38.13.22,1.12.47,1.25.74,2,.62,3.21,2.39,3.59,6.05.11,1.1-1.36,3.6-2.24,5.07-.51.84-.98,1.65-1.44,2.42-2.98,5-5.04,6.27-11.32,6.31h0c-.26,0-.53,0-.8,0-9.71-.29-14.79-1.41-15.01-8.99-.05-1.6-.35-4.43.11-7.41Z"/>
            <path class="cls-50" d="M1.27,17.66c.41-2.65,4.99-1.37,9.02,3.65.41.51.95.89,1.29,1.38,1.03,1.46,7.8,1.88,10.69-1.67.62-.76,2.56-1.51,2.84-1.65-.34-.34-1.6-1.05-3.09-1.57-2.35-.82-6.61-1.07-8.05-1.55-1.38-.47-1.69-1.02-1.46-1.8-.16-.16-.1-.37.25-.54.06-.26.44-.64,1.09-.97,1.44-.74,6.49-.97,8.8-.94,1.91.03,3.42.41,4.28,1.27.12.2,1.12.43,1.24.69,2.05.61,3.31,2.37,3.74,6.09.13,1.09-1.37,3.64-2.26,5.13-.5.84-.98,1.65-1.44,2.42-2.98,5.01-5.02,6.26-11.29,6.3h0c-.26,0-.53,0-.8,0-9.72-.3-14.75-1.42-14.97-8.95-.05-1.59-.36-4.33.1-7.28Z"/>
            <path class="cls-41" d="M1.28,17.76c.43-2.68,5.08-1.16,9.13,3.7.42.51.97.88,1.32,1.37.99,1.36,7.89,1.73,10.75-1.9.61-.77,2.58-1.54,2.83-1.67-.4-.33-1.76-1.01-3.33-1.52-2.46-.8-6.68-1.08-8.06-1.56-1.38-.48-1.67-1.04-1.42-1.84-.13-.15-.05-.35.32-.5.08-.24.47-.59,1.12-.9,1.46-.7,6.31-.98,8.61-.92,1.89.05,3.38.36,4.22,1.16.11.19,1.13.4,1.24.63,2.1.61,3.4,2.36,3.89,6.13.14,1.09-1.37,3.67-2.29,5.2-.5.84-.97,1.64-1.43,2.41-2.98,5.03-5,6.25-11.26,6.28,0,0,0,0,0,0-.26,0-.52,0-.8,0-9.73-.31-14.71-1.42-14.93-8.91-.05-1.58-.37-4.22.09-7.16Z"/>
            <path class="cls-20" d="M1.29,17.86c.44-2.7,5.16-.96,9.24,3.74.43.5.98.87,1.35,1.35.95,1.27,7.98,1.58,10.8-2.14.6-.79,2.59-1.57,2.83-1.68-.45-.31-1.92-.97-3.58-1.47-2.56-.77-6.75-1.09-8.08-1.56-1.38-.49-1.65-1.06-1.39-1.88-.11-.14,0-.33.39-.47.09-.22.5-.54,1.15-.82,1.48-.65,6.13-.94,8.42-.9,1.86.04,3.34.31,4.15,1.04.1.17,1.14.36,1.24.57,2.15.6,3.49,2.34,4.04,6.18.16,1.08-1.38,3.71-2.31,5.26-.5.84-.97,1.64-1.43,2.41-2.98,5.04-4.98,6.24-11.23,6.27,0,0,0,0,0,0-.26,0-.52,0-.8,0-9.73-.32-14.67-1.43-14.89-8.86-.05-1.58-.39-4.12.09-7.04Z"/>
            <path class="cls-73" d="M1.3,17.96c.45-2.73,5.25-.75,9.35,3.79.45.49,1,.86,1.37,1.34.91,1.17,8.08,1.43,10.85-2.38.59-.81,2.61-1.6,2.82-1.7-.51-.3-2.08-.92-3.82-1.41-2.67-.75-6.82-1.09-8.09-1.56-1.39-.51-1.63-1.08-1.35-1.92-.08-.13.04-.31.46-.43.11-.2.53-.49,1.18-.75,1.5-.61,5.95-.9,8.23-.87,1.84.02,3.31.25,4.09.93.09.15,1.14.32,1.23.51,2.21.6,3.58,2.33,4.2,6.22.17,1.07-1.38,3.74-2.33,5.33-.5.83-.97,1.64-1.42,2.4-2.98,5.06-4.96,6.22-11.2,6.25,0,0,0,0,0,0-.26,0-.52,0-.79-.01-9.74-.33-14.63-1.43-14.84-8.82-.05-1.57-.4-4.01.08-6.92Z"/>
            <path class="cls-2" d="M1.31,18.06c.46-2.76,5.33-.55,9.46,3.84.46.49,1.02.85,1.4,1.32.86,1.08,8.17,1.27,10.9-2.61.58-.82,2.63-1.63,2.82-1.72-.57-.29-2.23-.88-4.07-1.36-2.77-.72-6.89-1.1-8.1-1.56-1.39-.52-1.61-1.1-1.31-1.95-.06-.12.09-.28.53-.4.13-.18.56-.44,1.2-.68,1.52-.56,5.77-.81,8.03-.85,1.81-.03,3.27.2,4.03.82.08.14,1.15.29,1.23.46,2.26.59,3.67,2.32,4.35,6.26.18,1.07-1.39,3.78-2.36,5.39-.5.83-.96,1.63-1.42,2.4-2.98,5.07-4.93,6.21-11.17,6.24h0c-.26,0-.52,0-.79-.01-9.75-.33-14.59-1.44-14.8-8.78-.05-1.56-.41-3.91.07-6.79Z"/>
            <path class="cls-63" d="M1.33,18.16c.47-2.79,5.42-.36,9.57,3.88.47.48,1.03.84,1.42,1.31.82.99,8.27,1.12,10.96-2.85.57-.84,2.65-1.66,2.81-1.74-.63-.27-2.39-.84-4.31-1.31-2.87-.7-6.96-1.11-8.12-1.57-1.39-.54-1.59-1.12-1.27-1.99-.03-.11.14-.26.6-.36.15-.15.59-.39,1.23-.61,1.54-.51,5.59-.77,7.84-.83,1.79-.04,3.23.15,3.96.7.07.12,1.16.25,1.23.4,2.31.58,3.76,2.3,4.5,6.31.2,1.06-1.4,3.81-2.38,5.46-.5.83-.96,1.63-1.41,2.39-2.98,5.09-4.91,6.2-11.13,6.22h0c-.26,0-.52,0-.79-.01-9.76-.34-14.55-1.44-14.76-8.74-.05-1.55-.43-3.8.06-6.67Z"/>
            <path class="cls-37" d="M1.34,18.26c.49-2.82,5.51-.16,9.68,3.93.48.47,1.05.83,1.45,1.29.78.9,8.36.97,11.01-3.09.56-.86,2.67-1.69,2.81-1.76-.69-.26-2.54-.79-4.56-1.25-2.98-.68-7.03-1.13-8.13-1.57-1.39-.56-1.57-1.15-1.24-2.03,0-.1.18-.24.66-.33.17-.13.62-.34,1.26-.54,1.57-.47,5.41-.73,7.65-.8,1.76-.06,3.2.1,3.9.59.06.1,1.16.22,1.23.34,2.36.58,3.84,2.29,4.65,6.35.21,1.05-1.4,3.85-2.4,5.52-.49.82-.96,1.62-1.4,2.39-2.98,5.1-4.89,6.19-11.1,6.21h0c-.26,0-.52,0-.79-.01-9.76-.35-14.51-1.45-14.72-8.7-.05-1.54-.44-3.7.05-6.55Z"/>
            <path class="cls-51" d="M1.35,18.36c.5-2.85,5.6.04,9.79,3.97.49.46,1.06.82,1.47,1.28.73.8,8.46.82,11.06-3.32.55-.87,2.69-1.72,2.81-1.77-.75-.25-2.7-.75-4.81-1.2-3.08-.65-7.1-1.14-8.15-1.57-1.39-.58-1.56-1.17-1.2-2.07.02-.09.23-.22.73-.29.19-.11.65-.29,1.29-.46,1.59-.42,5.23-.69,7.46-.78,1.74-.07,3.16.05,3.83.47.05.08,1.17.18,1.22.29,2.41.57,3.93,2.28,4.8,6.4.22,1.05-1.41,3.88-2.43,5.59-.49.82-.95,1.62-1.4,2.38-2.98,5.12-4.87,6.17-11.07,6.19h0c-.26,0-.52,0-.79-.01-9.77-.36-14.47-1.45-14.68-8.66-.05-1.53-.45-3.59.04-6.42Z"/>
            <path class="cls-56" d="M1.36,18.46c.51-2.88,5.68.23,9.9,4.02.51.46,1.07.82,1.5,1.26.69.72,8.55.67,11.11-3.56.54-.89,2.71-1.74,2.8-1.79-.8-.23-2.85-.71-5.05-1.15-3.18-.63-7.17-1.15-8.16-1.57-1.39-.59-1.54-1.19-1.16-2.11.04-.08.29-.12.8-.26.22-.06.67-.24,1.32-.39,1.61-.37,5.05-.65,7.27-.76,1.71-.09,3.12,0,3.77.36.04.07,1.18.14,1.22.23,2.47.57,4.01,2.27,4.96,6.44.24,1.04-1.41,3.92-2.45,5.66-.49.82-.95,1.61-1.39,2.38-2.97,5.13-4.85,6.16-11.04,6.18h0c-.25,0-.52,0-.79-.01-9.78-.37-14.43-1.46-14.64-8.62-.05-1.53-.47-3.49.03-6.3Z"/>
            <path class="cls-14" d="M1.37,18.56c.52-2.91,5.77.42,10.01,4.07.52.45,1.08.81,1.53,1.25.64.63,8.64.52,11.17-3.8.53-.91,2.73-1.77,2.8-1.81-.86-.22-3.01-.66-5.3-1.09-3.28-.61-7.24-1.16-8.18-1.58-1.39-.61-1.52-1.21-1.12-2.15.07-.07.33-.12.87-.22.23-.04.7-.19,1.35-.32,1.63-.32,4.87-.61,7.08-.74,1.69-.1,3.08-.06,3.7.25.03.05,1.19.11,1.22.17,2.52.56,4.09,2.26,5.11,6.48.25,1.04-1.42,3.96-2.47,5.72-.49.82-.95,1.61-1.39,2.37-2.97,5.15-4.83,6.15-11.01,6.16h0c-.25,0-.51,0-.78-.01-9.79-.38-14.39-1.46-14.6-8.57-.04-1.52-.48-3.38.03-6.18Z"/>
            <path class="cls-52" d="M1.39,18.66c.54-2.93,5.86.6,10.12,4.11.53.44,1.09.81,1.55,1.23.6.54,8.75.37,11.22-4.03.52-.92,2.75-1.8,2.79-1.83-.92-.21-3.16-.62-5.54-1.04-3.38-.59-7.3-1.17-8.19-1.58-1.39-.64-1.5-1.23-1.09-2.19.09-.06.37-.12.94-.19.25-.03.73-.14,1.38-.25,1.65-.27,4.68-.56,6.89-.71,1.66-.11,3.05-.11,3.64.13.02.03,1.19.07,1.21.11,2.57.56,4.17,2.25,5.26,6.53.26,1.03-1.42,3.99-2.5,5.79-.49.81-.94,1.6-1.38,2.37-2.97,5.16-4.81,6.14-10.98,6.14h0c-.25,0-.51,0-.78-.01-9.8-.38-14.35-1.47-14.56-8.53-.04-1.51-.49-3.28.02-6.06Z"/>
            <path class="cls-19" d="M1.4,18.76c.55-2.96,5.95.79,10.23,4.16.55.43,1.1.82,1.58,1.22.55.46,8.84.21,11.27-4.27.51-.94,2.77-1.83,2.79-1.84-.98-.19-3.31-.58-5.79-.98-3.48-.57-7.37-1.18-8.21-1.58-1.38-.66-1.48-1.25-1.05-2.23.12-.05.42-.12,1.01-.15.26-.01.76-.09,1.41-.17,1.66-.21,4.5-.52,6.7-.69,1.64-.12,3.01-.16,3.57.02.01.02,1.2.04,1.21.06,2.62.55,4.25,2.25,5.41,6.57.28,1.03-1.43,4.03-2.52,5.85-.49.81-.94,1.6-1.38,2.36-2.97,5.18-4.79,6.13-10.95,6.13h0c-.25,0-.51,0-.78-.01-9.8-.39-14.31-1.48-14.52-8.49-.04-1.5-.5-3.17,0-5.93Z"/>
            <path class="cls-22" d="M16.67,33.13c6.15,0,7.94-.92,10.92-6.11.44-.76.89-1.55,1.37-2.36,1.11-1.85,2.83-4.89,2.54-5.92-1.23-4.37-2.89-6.07-5.56-6.61h-1.21c-1.54-.33-9.9.87-11.45.87-.61,0-.93.07-1.08.12-.45,1-.37,1.59,1.01,2.27,1.34.67,11.77,2.08,14.25,2.51,0,0-2.29.91-2.79,1.86-2.39,4.57-10.81,4.89-11.32,4.5-4.41-3.3-11.31-8.79-11.95-5.41-.51,2.74-.04,4.32,0,5.81.2,6.97,4.67,8.05,14.48,8.45.27.01.53.01.78.01h0Z"/>
          </g>
          <g>
            <path class="cls-38" d="M1.15,16.01S-.83,7.99.41,4.91c.43-1.08,4.35-2.55,5.12-1.76,2.32,2.35.8,12.07.8,12.07.06,1.16-1.05,2.28-2.48,2.5-1.43.22-2.63-.54-2.69-1.71Z"/>
            <path class="cls-57" d="M1.22,16.01S-.67,8.14.51,4.95c.39-1.05,4.26-2.5,4.98-1.72,2.19,2.37.76,12.01.76,12.01.06,1.12-1.03,2.2-2.42,2.42-1.39.22-2.56-.52-2.62-1.64Z"/>
            <path class="cls-33" d="M1.29,16.01S-.52,8.29.62,4.99c.35-1.01,4.18-2.46,4.85-1.69,2.07,2.39.71,11.95.71,11.95.05,1.07-1,2.11-2.35,2.33-1.35.21-2.49-.49-2.54-1.57Z"/>
            <path class="cls-3" d="M1.35,16S-.35,8.45.72,5.02c.31-.97,4.1-2.41,4.71-1.66,1.94,2.4.67,11.89.67,11.89.05,1.03-.98,2.03-2.29,2.24-1.31.21-2.41-.46-2.46-1.5Z"/>
            <path class="cls-47" d="M1.42,16S-.19,8.61.83,5.06c.27-.93,4.02-2.36,4.57-1.62,1.81,2.42.63,11.84.63,11.84.05.98-.95,1.95-2.22,2.15-1.27.2-2.34-.44-2.39-1.42Z"/>
            <path class="cls-27" d="M1.48,16S-.01,8.77.93,5.1c.23-.9,3.93-2.31,4.43-1.59,1.68,2.45.59,11.78.59,11.78.04.94-.93,1.86-2.16,2.06-1.23.2-2.27-.41-2.31-1.35Z"/>
            <path class="cls-65" d="M1.55,15.99S.17,8.93,1.04,5.14c.2-.86,3.85-2.27,4.29-1.55,1.54,2.47.55,11.72.55,11.72.04.9-.9,1.78-2.1,1.97-1.19.19-2.19-.38-2.23-1.28Z"/>
            <path class="cls-69" d="M1.61,15.99s-1.25-6.9-.47-10.81c.16-.82,3.76-2.22,4.15-1.52,1.41,2.5.5,11.67.5,11.67.04.85-.88,1.69-2.03,1.88-1.15.19-2.12-.36-2.15-1.21Z"/>
            <path class="cls-63" d="M1.68,15.99s-1.12-6.73-.43-10.77c.13-.78,3.67-2.17,4.02-1.49,1.26,2.52.46,11.61.46,11.61.03.81-.85,1.61-1.97,1.79-1.11.18-2.05-.33-2.08-1.14Z"/>
            <path class="cls-22" d="M1.75,15.98s-.96-6.56-.39-10.73c.1-.74,3.59-2.12,3.88-1.45,1.11,2.56.42,11.55.42,11.55.03.76-.83,1.53-1.9,1.7-1.08.18-1.97-.3-2-1.07Z"/>
          </g>
          <g class="cls-15">
            <path class="cls-7" d="M25.56,20.18c-2.11-1.79.1-2.44-6.53,2.27-1.6,1.13-3.82,2.16-5.26,3.34-2.98,2.45-4.95.09-6.79-2.37-1.68-2.25-4.4-3.55-5.2.12-.46,2.14,2.44,4.49,3.39,6.36,1.53,3.04,4.25,2.96,7.31,3.95,3.7,1.2,7.27.55,10.58-1.49,1.96-1.22,7.22-8.17,2.51-12.17Z"/>
            <path class="cls-5" d="M24.96,20.52c-2.09-1.57-.53-1.38-6.66,2.67-1.75,1.15-3.88,1.68-5.28,2.69-2.8,2.03-4.69-.28-6.39-2.44-1.56-1.96-4.08-2.92-4.67.42-.4,2.25,2.64,4.55,3.62,6.3,1.54,2.79,4.12,2.59,7.02,3.54,3.72,1.22,7.23.65,10.48-1.47,1.94-1.27,6.55-8.2,1.89-11.71Z"/>
            <path class="cls-4" d="M24.36,20.85c-2.06-1.35-1.2-.38-6.79,3.08-1.91,1.18-3.93,1.19-5.3,2.04-2.59,1.62-4.41-.66-5.99-2.5-1.44-1.68-3.72-2.29-4.14.72-.33,2.37,2.84,4.61,3.85,6.25,1.56,2.54,4,2.22,6.72,3.13,3.75,1.24,7.19.76,10.38-1.45,1.91-1.33,5.88-8.23,1.27-11.25Z"/>
            <path class="cls-9" d="M23.76,21.19c-2.04-1.13-1.91.57-6.92,3.48-2.07,1.2-3.97.69-5.31,1.38-2.36,1.22-4.15-1.04-5.6-2.57-1.33-1.4-3.33-1.65-3.6,1.01-.25,2.49,3.04,4.67,4.08,6.19,1.56,2.29,3.87,1.85,6.43,2.72,3.77,1.27,7.15.86,10.29-1.43,1.89-1.39,5.2-8.26.64-10.79Z"/>
            <path class="cls-11" d="M23.15,21.53c-2.01-.91-2.65,1.48-7.05,3.88-2.23,1.22-3.91.45-5.33.73-1.92,1.21-3.88-1.42-5.2-2.63-1.21-1.12-2.92-1-3.07,1.31-.17,2.62,3.23,4.73,4.31,6.13,1.57,2.04,3.75,1.49,6.14,2.3,3.8,1.3,7.11.97,10.19-1.41,1.86-1.45,4.53-8.29.02-10.32Z"/>
            <path class="cls-12" d="M22.55,21.86c-1.99-.69-3.41,2.35-7.18,4.29-2.41,1.23-3.93.02-5.35.08-1.65.9-3.61-1.79-4.8-2.7-1.1-.83-2.48-.35-2.54,1.61-.08,2.75,3.42,4.79,4.54,6.07,1.57,1.79,3.62,1.12,5.84,1.89,3.82,1.33,7.07,1.08,10.09-1.38,1.84-1.51,3.85-8.32-.6-9.86Z"/>
            <path class="cls-13" d="M21.95,22.2c-1.96-.47-4.18,3.2-7.31,4.69-2.59,1.23-3.96-.41-5.37-.58-1.38.59-3.35-2.17-4.41-2.76-.99-.55-2.02.31-2,1.91.03,2.89,3.6,4.86,4.77,6.02,1.56,1.55,3.5.76,5.55,1.48,3.84,1.36,7.03,1.18,10-1.36,1.81-1.56,3.18-8.35-1.22-9.4Z"/>
            <path class="cls-10" d="M21.35,22.54c-1.94-.25-4.97,4.02-7.44,5.09-2.78,1.21-3.98-.84-5.38-1.23-1.12.27-3.09-2.55-4.01-2.83-.88-.27-1.54.96-1.47,2.21.17,3.02,3.78,4.93,5,5.96,1.55,1.32,3.37.4,5.25,1.07,3.87,1.39,6.99,1.29,9.9-1.34,1.79-1.62,2.51-8.38-1.85-8.94Z"/>
            <path class="cls-8" d="M20.75,22.87c-1.92-.03-5.77,4.81-7.57,5.5-2.99,1.13-4-1.27-5.4-1.88-.85-.04-2.83-2.92-3.61-2.89-.77.02-1.05,1.61-.94,2.51.39,3.15,3.96,5,5.23,5.9,1.53,1.09,3.24.04,4.96.66,3.89,1.43,6.95,1.39,9.8-1.32,1.76-1.68,1.83-8.41-2.47-8.47Z"/>
            <path class="cls-6" d="M20.15,23.21c-1.89.19-6.56,5.58-7.7,5.9-3.24.9-4.02-1.7-5.42-2.54-.58-.35-2.56-3.28-3.21-2.96-.65.32-.54,2.25-.4,2.8.79,3.22,4.14,5.09,5.45,5.84,1.51.87,3.12-.33,4.67.25,3.91,1.46,6.91,1.5,9.71-1.29,1.74-1.74,1.16-8.44-3.09-8.01Z"/>
          </g>
          <g class="cls-34">
            <path class="cls-28" d="M32.25,16.34c-1.29-1.57-10.65-9.09-10.66-9.35-.17-5.16-6.6-3.07-6.49,1.68,0,.26-.74.44-.75.18-.09-5.4-6.46-3.42-6.32.6,0,.2.11.1.1-.1-.07-3.04-6.07-2.31-6.03-.77,0,0-.91,1.52-1.18,5.82-.22,3.55-.43,9.35-.38,11.21.26,9.02,6.28,10.04,16.28,10.27,9.23.21,12.2-4.9,15-9.64.97-1.65,1.48-3.17,1.89-4.19,1.3-3.23.24-3.65-1.46-5.72Z"/>
          </g>
        </g>
      </g>
    </g>
  </g>
</svg>