<?xml version="1.0" encoding="UTF-8"?>
<svg xmlns="http://www.w3.org/2000/svg" xmlns:xlink="http://www.w3.org/1999/xlink" viewBox="0 0 32.52 50.28">
  <defs>
    <style>
      .cls-1 {
        fill: #efb62a;
      }

      .cls-2 {
        fill: #faca45;
      }

      .cls-3 {
        fill: #ecb022;
      }

      .cls-4 {
        opacity: .22;
      }

      .cls-4, .cls-5, .cls-6, .cls-7, .cls-8, .cls-9, .cls-10, .cls-11, .cls-12, .cls-13 {
        fill: #fed04e;
      }

      .cls-14 {
        fill: #fcce4a;
      }

      .cls-5 {
        opacity: .11;
      }

      .cls-15 {
        mix-blend-mode: screen;
        opacity: .2;
      }

      .cls-16 {
        fill: #edb124;
      }

      .cls-17 {
        mask: url(#mask-1);
      }

      .cls-18 {
        fill: #eeb427;
      }

      .cls-19 {
        fill: #fdcf4c;
      }

      .cls-20 {
        fill: #f9c943;
      }

      .cls-21 {
        fill: #efb72b;
      }

      .cls-22 {
        fill: #fdd04d;
      }

      .cls-23 {
        fill: #f6c43c;
      }

      .cls-24 {
        mask: url(#mask);
      }

      .cls-25 {
        fill: #f2bc32;
      }

      .cls-26 {
        fill: #f3bd34;
      }

      .cls-27 {
        fill: #f1bb31;
      }

      .cls-28 {
        fill: url(#linear-gradient-4);
        opacity: .3;
      }

      .cls-28, .cls-29, .cls-30, .cls-31 {
        mix-blend-mode: multiply;
      }

      .cls-32 {
        fill: #f5c139;
      }

      .cls-7 {
        opacity: 0;
      }

      .cls-33 {
        fill: #e9ab1b;
      }

      .cls-34 {
        mask: url(#mask-2);
      }

      .cls-35 {
        filter: url(#luminosity-noclip-3);
      }

      .cls-36 {
        fill: #f7c43d;
      }

      .cls-37 {
        fill: #fbcc47;
      }

      .cls-8 {
        opacity: .89;
      }

      .cls-9 {
        opacity: .33;
      }

      .cls-38 {
        fill: #e3a00d;
      }

      .cls-39 {
        fill: #f6c23a;
      }

      .cls-40 {
        isolation: isolate;
      }

      .cls-41 {
        fill: #f9c842;
      }

      .cls-42 {
        fill: #f5c138;
      }

      .cls-43 {
        fill: #f2bb31;
      }

      .cls-44 {
        fill: #f4bf37;
      }

      .cls-45 {
        fill: #f3be35;
      }

      .cls-46 {
        fill: #f1b92e;
      }

      .cls-10 {
        opacity: .78;
      }

      .cls-47 {
        fill: #efb529;
      }

      .cls-48 {
        fill: #f1ba30;
      }

      .cls-49 {
        fill: #eeb326;
      }

      .cls-50 {
        fill: #f8c741;
      }

      .cls-11 {
        opacity: .44;
      }

      .cls-51 {
        fill: #fbcc48;
      }

      .cls-52 {
        fill: #fccf4b;
      }

      .cls-29 {
        fill: url(#linear-gradient-3);
      }

      .cls-53 {
        fill: #f3bc33;
      }

      .cls-54 {
        fill: #f0b72c;
      }

      .cls-55 {
        fill: #f1b92f;
      }

      .cls-12 {
        opacity: .56;
      }

      .cls-56 {
        fill: #fbcd49;
      }

      .cls-57 {
        fill: #e6a514;
      }

      .cls-58 {
        fill: #eeb428;
      }

      .cls-59 {
        fill: #f7c53e;
      }

      .cls-60 {
        fill: #f6c33b;
      }

      .cls-61 {
        fill: #f5c037;
      }

      .cls-62 {
        fill: #f0b82d;
      }

      .cls-30 {
        fill: url(#linear-gradient);
      }

      .cls-63 {
        fill: #facb46;
      }

      .cls-64 {
        fill: #edb225;
      }

      .cls-65 {
        fill: #f4c038;
      }

      .cls-66 {
        fill: #ecb123;
      }

      .cls-67 {
        fill: #f4bf36;
      }

      .cls-13 {
        opacity: .67;
      }

      .cls-68 {
        fill: #f8c63f;
      }

      .cls-69 {
        fill: #f7c53f;
      }

      .cls-31 {
        fill: url(#linear-gradient-2);
        opacity: .4;
      }

      .cls-70 {
        fill: #f8c740;
      }

      .cls-71 {
        mask: url(#mask-3);
      }

      .cls-72 {
        filter: url(#luminosity-noclip);
      }

      .cls-73 {
        fill: #fac944;
      }
    </style>
    <filter id="luminosity-noclip" x="1.05" y="21.57" width="23.35" height="16.47" color-interpolation-filters="sRGB" filterUnits="userSpaceOnUse">
      <feFlood flood-color="#fff" result="bg"/>
      <feBlend in="SourceGraphic" in2="bg"/>
    </filter>
    <filter id="luminosity-noclip-2" x="1.05" y="-8218.97" width="23.35" height="32766" color-interpolation-filters="sRGB" filterUnits="userSpaceOnUse">
      <feFlood flood-color="#fff" result="bg"/>
      <feBlend in="SourceGraphic" in2="bg"/>
    </filter>
    <mask id="mask-1" x="1.05" y="-8218.97" width="23.35" height="32766" maskUnits="userSpaceOnUse"/>
    <linearGradient id="linear-gradient" x1="-76.08" y1="-46.73" x2="-69.84" y2="-34.4" gradientTransform="translate(83.46 72.13) rotate(1.74)" gradientUnits="userSpaceOnUse">
      <stop offset="0" stop-color="#fff"/>
      <stop offset=".16" stop-color="#fbfbfb"/>
      <stop offset=".29" stop-color="#f1f1f1"/>
      <stop offset=".41" stop-color="#e0e0e0"/>
      <stop offset=".52" stop-color="#c8c8c8"/>
      <stop offset=".63" stop-color="#a9a9a9"/>
      <stop offset=".74" stop-color="#838383"/>
      <stop offset=".84" stop-color="#565656"/>
      <stop offset=".94" stop-color="#232323"/>
      <stop offset="1" stop-color="#000"/>
    </linearGradient>
    <mask id="mask" x="1.05" y="21.57" width="23.35" height="16.47" maskUnits="userSpaceOnUse">
      <g class="cls-72">
        <g class="cls-17">
          <path class="cls-30" d="M13.47,27.95c-1.4-9-7.08-6.91-6.46-3.22.03.19.11.08.08-.1-.44-2.79-6.31,1.54-6.03,5.54.23,3.3.35,3.47.63,5.18,1.35,8.29,25.52-4.97,22.44-7.23-2.28-1.68-10.17,2.99-10.66-.17Z"/>
        </g>
      </g>
    </mask>
    <linearGradient id="linear-gradient-2" x1="-76.08" y1="-46.73" x2="-69.84" y2="-34.4" gradientTransform="translate(83.46 72.13) rotate(1.74)" gradientUnits="userSpaceOnUse">
      <stop offset="0" stop-color="#e3a00d"/>
      <stop offset=".91" stop-color="#e3a00d"/>
      <stop offset="1" stop-color="#e3a00d"/>
    </linearGradient>
    <filter id="luminosity-noclip-3" x=".99" y=".42" width="31.53" height="49.81" color-interpolation-filters="sRGB" filterUnits="userSpaceOnUse">
      <feFlood flood-color="#fff" result="bg"/>
      <feBlend in="SourceGraphic" in2="bg"/>
    </filter>
    <filter id="luminosity-noclip-4" x=".99" y="-8218.97" width="31.53" height="32766" color-interpolation-filters="sRGB" filterUnits="userSpaceOnUse">
      <feFlood flood-color="#fff" result="bg"/>
      <feBlend in="SourceGraphic" in2="bg"/>
    </filter>
    <mask id="mask-3" x=".99" y="-8218.97" width="31.53" height="32766" maskUnits="userSpaceOnUse"/>
    <linearGradient id="linear-gradient-3" x1="-67.97" y1="-19.81" x2="-67.97" y2="-69.97" gradientTransform="translate(83.46 72.13) rotate(1.74)" gradientUnits="userSpaceOnUse">
      <stop offset="0" stop-color="#fff"/>
      <stop offset="0" stop-color="#fcfcfc"/>
      <stop offset=".08" stop-color="#c8c8c8"/>
      <stop offset=".17" stop-color="#999"/>
      <stop offset=".26" stop-color="#6f6f6f"/>
      <stop offset=".35" stop-color="#4d4d4d"/>
      <stop offset=".45" stop-color="#313131"/>
      <stop offset=".56" stop-color="#1b1b1b"/>
      <stop offset=".67" stop-color="#0b0b0b"/>
      <stop offset=".81" stop-color="#020202"/>
      <stop offset="1" stop-color="#000"/>
    </linearGradient>
    <mask id="mask-2" x=".99" y=".42" width="31.53" height="49.81" maskUnits="userSpaceOnUse">
      <g class="cls-35">
        <g class="cls-71">
          <path class="cls-29" d="M30.19,28.1c-1.38-1.29-2.78-1.8-2.78-1.8-.69-7.26,2.63-22.43,2.63-22.43.27-1.61-.8-3.13-2.41-3.41-1.6-.27-3.13.8-3.41,2.41-2.37,13.7-2.89,15.08-3.63,17.31-.42,1.25-1.35.85-1.39.6-4.01-24.39-8.23-11.05-5.78,2.35.04.23-.63.5-.67.26-.74-4.97-6.79-5.1-6.52-3.5,0,0,.15,1.14.76,4.83.03.19.11.08.08-.1-.44-2.79-5.89-1.38-5.66.03,0,0-.65,1.51-.38,5.51.23,3.3.75,8.68,1.03,10.39,1.35,8.29,7.77,10.31,16.55,9.5,8.78-.81,10.38-8.06,12.38-12.77.7-1.64.97-3.11,1.23-4.09.8-3.14-.23-3.39-2.05-5.1Z"/>
        </g>
      </g>
    </mask>
    <linearGradient id="linear-gradient-4" x1="-67.97" y1="-19.81" x2="-67.97" y2="-69.97" gradientTransform="translate(83.46 72.13) rotate(1.74)" gradientUnits="userSpaceOnUse">
      <stop offset="0" stop-color="#e3a00d"/>
      <stop offset=".12" stop-color="#e3a00d"/>
      <stop offset="1" stop-color="#e3a00d"/>
    </linearGradient>
  </defs>
  <g class="cls-40">
    <g id="Ebene_2" data-name="Ebene 2">
      <g id="_1" data-name=" 1">
        <g>
          <g>
            <path class="cls-38" d="M27.68,27.71c-.41-6.01,2.37-23.84,2.37-23.84.27-1.61-.8-3.13-2.41-3.41-1.61-.27-3.13.8-3.41,2.41-2.37,13.7-2.86,15.09-3.63,17.31-.44,1.29-1.35.85-1.39.6-.8-4.74-1.77-13.48-3.04-18.4-1.06-4.09-6.37-2.29-5.97.69,0,0,2.61,20.56,2.57,20.32-.74-4.97-.7-4.45-.7-4.45-.26-1.61-6.09-.66-5.82.95,0,0,.15,1.14.76,4.83.03.19.11.08.08-.1-.44-2.79-5.89-1.38-5.66.03,0,0-.65,1.51-.38,5.51.23,3.3.75,8.68,1.03,10.39,1.35,8.29,7.77,10.31,16.55,9.5,8.78-.81,10.02-7.39,12.53-13.35,1.04-2.45-3.43-8.12-3.49-9Z"/>
            <path class="cls-57" d="M10.29,3.11c-.38-2.79,4.53-4.49,5.6-.87,1.28,4.35,2.41,13.59,3.22,18.43.04.21.48.49.91.19.13-.09.28-.26.41-.53.19-.41.4-.82.58-1.33.62-1.82,1.52-5.89,3.27-15.91.09-.49.27-.91.49-1.24.61-.9,1.69-1.45,2.84-1.25,1.43.25,2.43,1.51,2.38,2.92,0,.14-.02.29-.04.43,0,.06-.12.76-.29,1.9-.66,4.43-2.66,16.9-2.19,21.45.07.68.96,2.19,1.82,3.58.34.55.67,1.42.99,2.11.33.68.66,1.44.81,2.08.16.67.08,1.25-.11,1.71-2.49,5.97-3.96,12.32-12.52,13.02-8.74.69-15.13-1.49-16.3-9.72-.21-1.49-.51-5.34-.76-8.56-.04-.54-.08-1.04-.11-1.51-.27-3.88.29-5.29.28-5.33-.11-.7.99-1.4,2.26-1.62,1.36-.23,2.93.27,3.22,1.68.03.17-.03.27-.05.11-.07-.66-.1-1.28-.18-1.93-.24-1.92-.41-2.72-.42-2.76-.2-1.25,3.14-2.2,4.71-1.69.5.16.86.42.92.81.01.09-.07-.12.36,1.91.13.63.42,1.33.54,2.17-.04-.26-2.64-20.24-2.64-20.24Z"/>
            <path class="cls-33" d="M10.39,3.15c-.35-2.59,4.15-4.2,5.23-1.06,1.29,3.77,2.56,13.52,3.4,18.45.04.24.42.5.82.32.12-.05.27-.16.41-.4.22-.34.5-.73.69-1.23.66-1.69,1.74-6.69,3.38-15.95.1-.53.28-.95.46-1.25.58-.93,1.63-1.52,2.79-1.32,1.4.24,2.38,1.49,2.31,2.88,0,.14-.02.28-.05.42-.02.12-.13.8-.29,1.86-.61,4.08-2.83,16.67-2.31,21,.12.96.97,2.63,1.78,3.8.32.47.61,1.53.97,2.23.34.66.76,1.5.93,2.13.2.71.05,1.32-.14,1.78-2.46,5.99-4.16,12.12-12.51,12.68-8.69.59-15.08-1.76-16.05-9.93-.18-1.51-.36-5.09-.61-8.28-.04-.52-.08-1.01-.11-1.46-.27-3.76.2-5.06.18-5.16-.12-.74.93-1.47,2.17-1.68,1.26-.22,2.78.49,3.14,1.84.04.16,0,.26-.01.13-.02-.54.04-1.1-.03-1.82-.16-1.74-.39-2.63-.4-2.72-.2-1.28,3.2-2.34,4.61-1.69.45.21.77.49.83.88.03.17-.09.07.4,1.89.17.63.62,1.21.71,1.81-.12-.76-2.7-20.15-2.7-20.15Z"/>
            <path class="cls-3" d="M10.5,3.19c-.33-2.4,3.77-3.92,4.86-1.24,1.29,3.2,2.72,13.45,3.58,18.48.05.27.42.6.73.44.12.02.26-.07.42-.26.25-.28.58-.64.8-1.13.69-1.57,1.97-7.48,3.49-15.99.11-.56.28-.99.44-1.26.56-.95,1.58-1.59,2.74-1.39,1.37.24,2.32,1.47,2.24,2.83,0,.14-.02.27-.05.41-.03.18-.13.84-.28,1.82-.57,3.72-2.97,16.44-2.42,20.54.17,1.24.99,3.06,1.74,4.02.3.38.55,1.64.94,2.35.35.64.85,1.55,1.05,2.19.24.76,0,1.39-.18,1.86-2.44,6.01-4.36,11.91-12.5,12.35-8.65.48-15.01-2.04-15.8-10.14-.15-1.53-.21-4.83-.45-8.01-.04-.5-.07-.98-.11-1.41-.26-3.64.11-4.84.08-4.98-.13-.77.88-1.54,2.08-1.74,1.17-.2,2.63.71,3.06,1.99.05.15.01.24.02.14.04-.41.17-.91.12-1.72-.1-1.56-.37-2.55-.39-2.68-.2-1.31,3.26-2.48,4.51-1.69.39.25.68.55.74.94.04.26-.08.27.45,1.87.21.64.82,1.1.87,1.46-.2-1.26-2.77-20.07-2.77-20.07Z"/>
            <path class="cls-47" d="M10.6,3.23c-.31-2.21,3.39-3.64,4.48-1.42,1.29,2.62,2.88,13.38,3.76,18.51.05.3.37.64.64.57.11.07.26.02.43-.12.28-.22.67-.55.9-1.02.71-1.45,2.19-8.28,3.61-16.02.12-.6.28-1.03.41-1.28.53-.98,1.52-1.66,2.69-1.46,1.34.23,2.27,1.45,2.16,2.78-.01.13-.03.27-.05.4-.04.24-.14.88-.28,1.78-.52,3.37-3.1,16.21-2.54,20.08.22,1.52,1.01,3.5,1.7,4.25.28.3.49,1.75.91,2.47.36.62.95,1.61,1.18,2.24.28.8-.03,1.46-.21,1.93-2.42,6.03-4.56,11.69-12.48,12.02-8.61.36-14.94-2.31-15.55-10.35-.12-1.56-.06-4.58-.3-7.74-.04-.49-.07-.95-.1-1.37-.26-3.51.02-4.61-.01-4.8-.13-.81.82-1.6,1.99-1.8,1.08-.18,2.48.93,2.97,2.15.05.13.03.22.06.15.1-.3.31-.73.27-1.61-.06-1.37-.36-2.46-.38-2.63-.2-1.34,3.32-2.63,4.41-1.69.34.29.58.62.64,1.01.05.35-.06.47.49,1.86.26.65,1.02.98,1.03,1.1-.28-1.76-2.83-19.98-2.83-19.98Z"/>
            <path class="cls-27" d="M10.7,3.27c-.29-2.02,3.01-3.36,4.11-1.61,1.29,2.04,3.04,13.3,3.94,18.53.06.33.33.69.56.7.1.12.25.11.44.02.31-.15.76-.47,1.01-.92.73-1.33,2.42-9.08,3.72-16.06.13-.63.28-1.08.39-1.29.49-1.02,1.46-1.73,2.64-1.52,1.31.23,2.22,1.43,2.09,2.73-.01.13-.03.26-.05.39-.05.3-.15.92-.28,1.75-.48,3.02-3.22,15.97-2.65,19.62.28,1.8,1.03,3.94,1.66,4.47.27.22.44,1.85.88,2.6.36.61,1.05,1.66,1.3,2.3.33.84-.06,1.54-.25,2.01-2.39,6.05-4.77,11.47-12.47,11.69-8.57.24-14.87-2.58-15.3-10.57-.09-1.58.09-4.33-.14-7.46-.04-.47-.07-.91-.1-1.32-.25-3.39-.06-4.39-.11-4.63-.14-.84.76-1.67,1.9-1.86.98-.17,2.33,1.15,2.89,2.3.06.12.07.21.09.16.2-.16.44-.54.42-1.51-.02-1.18-.34-2.38-.37-2.59-.2-1.37,3.38-2.78,4.31-1.69.29.34.49.68.55,1.07.06.43-.02.66.53,1.84.31.66,1.22.86,1.2.75-.39-2.25-2.9-19.9-2.9-19.9Z"/>
            <path class="cls-65" d="M10.81,3.31c-.27-1.82,2.61-3.08,3.74-1.79,1.27,1.45,3.2,13.23,4.12,18.56.06.36.28.73.47.82.09.17.25.21.44.16.35-.09.85-.38,1.12-.82.75-1.21,2.64-9.87,3.83-16.1.14-.66.28-1.12.36-1.3.46-1.05,1.41-1.8,2.59-1.59,1.29.22,2.17,1.41,2.02,2.69-.01.13-.03.26-.05.38-.06.35-.15.95-.28,1.71-.43,2.67-3.33,15.74-2.77,19.16.34,2.08,1.07,4.38,1.63,4.69.25.14.38,1.96.85,2.72.37.59,1.15,1.71,1.42,2.35.37.89-.1,1.61-.28,2.08-2.37,6.07-4.97,11.25-12.46,11.36-8.53.12-14.79-2.86-15.06-10.78-.05-1.61.24-4.07,0-7.19-.03-.46-.07-.88-.09-1.27-.25-3.27-.15-4.17-.21-4.45-.14-.88.7-1.74,1.81-1.92.89-.15,2.17,1.37,2.8,2.46.07.11.09.2.13.17.27-.03.57-.36.58-1.41,0-1-.32-2.29-.35-2.55-.2-1.4,3.45-2.93,4.21-1.69.23.38.4.75.46,1.14.08.52.03.84.57,1.83.37.67,1.42.75,1.36.39-.44-2.75-2.97-19.81-2.97-19.81Z"/>
            <path class="cls-69" d="M10.91,3.34c-.24-1.63,2.2-2.8,3.36-1.98,1.24.88,3.35,13.16,4.3,18.58.07.39.24.77.38.95.08.22.25.29.45.3.38.02.93-.29,1.23-.72.77-1.1,2.87-10.67,3.95-16.14.15-.7.28-1.16.33-1.31.41-1.1,1.35-1.87,2.54-1.66,1.26.22,2.11,1.39,1.95,2.64-.02.12-.04.25-.06.37-.07.41-.16.99-.28,1.67-.39,2.32-3.44,15.5-2.88,18.71.41,2.36,1.15,4.73,1.59,4.91.26,0,.32,2.07.83,2.84.38.57,1.25,1.76,1.54,2.41.42.93-.13,1.68-.32,2.16-2.34,6.1-5.18,11.03-12.45,11.03-8.49,0-14.71-3.13-14.81-10.99-.02-1.63.39-3.82.16-6.92-.03-.44-.06-.85-.09-1.22-.24-3.15-.24-3.94-.31-4.27-.15-.92.64-1.81,1.72-1.98.8-.13,2.01,1.59,2.72,2.62.07.1.11.18.16.18.34.06.69-.17.73-1.3.03-.81-.3-2.21-.34-2.51-.2-1.43,3.51-3.08,4.1-1.69.18.42.31.82.37,1.2.09.61.1,1.02.62,1.81.43.67,1.62.63,1.52.04-.51-3.25-3.03-19.73-3.03-19.73Z"/>
            <path class="cls-63" d="M11.01,3.38c-.22-1.44,1.78-2.49,2.99-2.16,1.19.32,3.51,13.09,4.47,18.61.07.42.21.81.29,1.07.08.27.24.4.46.44.42.06,1.01-.2,1.34-.61.78-.99,3.1-11.46,4.06-16.17.16-.73.27-1.21.31-1.32.34-1.14,1.3-1.94,2.49-1.73,1.23.21,2.06,1.37,1.88,2.59-.02.12-.04.24-.06.37-.08.47-.17,1.03-.27,1.64-.34,1.97-3.55,15.27-3,18.25.49,2.64,1.19,5.2,1.55,5.13.25-.05.26,2.18.8,2.96.39.56,1.36,1.82,1.67,2.46.47.97-.17,1.75-.35,2.23-2.32,6.12-5.38,10.79-12.44,10.7-8.45-.14-14.61-3.41-14.56-11.2.02-1.65.54-3.56.32-6.64-.03-.42-.06-.81-.09-1.17-.24-3.03-.33-3.72-.4-4.09-.15-.95.59-1.87,1.63-2.04.7-.12,1.85,1.82,2.64,2.77.08.09.14.16.2.2.41.21.79.01.88-1.2.05-.63-.28-2.12-.33-2.47-.2-1.46,3.58-3.23,4-1.69.13.47.22.88.27,1.26.1.69.18,1.18.66,1.79.52.66,1.82.52,1.69-.32-.59-3.75-3.1-19.65-3.1-19.65Z"/>
            <path class="cls-22" d="M17.02,47.55c-8.41-.26-14.54-3.68-14.31-11.42.05-1.68.68-3.31.47-6.37-.27-3.89-.49-4.57-.58-5.04-.16-.99.53-1.94,1.54-2.1,1.01-.16,3.29,5.82,3.82,2.04.06-.44-.26-2.04-.32-2.43-.2-1.49,3.65-3.38,3.9-1.68.23,1.55.21,2.44.88,3.11.62.62,2.02.4,1.85-.67-.67-4.25-3.16-19.56-3.16-19.56-.2-1.24,1.37-2.14,2.62-2.35,1.25-.2,4.08,15.22,4.86,19.83.16.95,1.38.66,1.91.07.94-1.05,4.37-17.06,4.45-17.54.21-1.2,1.24-2.01,2.44-1.8,1.2.21,2.01,1.35,1.8,2.55-.11.65-.21,1.31-.33,1.96-.3,1.62-3.66,15.03-3.11,17.79.58,2.91,1.21,5.57,1.51,5.35.23-.17.2,2.29.77,3.09.39.54,1.46,1.87,1.79,2.52.51,1.02-.2,1.82-.38,2.31-2.3,6.14-5.58,10.58-12.42,10.37Z"/>
          </g>
          <g class="cls-15">
            <path class="cls-7" d="M28,4.44c.14-.86.27-2.79-.59-2.94-.86-.14-1.67.44-1.81,1.3-.84,5.07-2.18,10.17-2.92,15.25-.3,2.03-.42,5.47-3.35,5.38-2.22-.07-3.97-20.28-4.09-21-.15-.91-1.01-1.52-1.92-1.37-.91.15-2.24.73-2.09,1.64.86,5.18,2.19,10.65,3.06,15.83.22,1.33.75,3.66.28,5-.45,1.25-2.01,1.75-2.94.71-.77-.87-.76-2.58-.97-3.67-.29-1.48-3.78-6.34-3.09-1.27.42,3.08,2.58,7.51-.43,7.2-3.45-.35-4.53-.79-4.22,1.18.71,4.5.27,4.07,1.23,6.5,1.75,4.39,9.15-2.72,8.85-2.57,3.14-1.54,5.12-1.06,6.77-.69,5.33,1.19,6.5-3.06,5.65-5.34-2.24-5.99,2.59-21.14,2.59-21.14Z"/>
            <path class="cls-5" d="M15.15,2.45c.07.43,1.05,10.73,2.14,16.11.46,2.31.99,4.32,1.75,4.83.11.07.21.12.32.12.18,0,.34,0,.5-.02.62-.08,1.09-.33,1.45-.71,1.03-1.08,1.25-3.41,1.44-4.71.57-3.88,1.52-7.77,2.28-11.65.22-1.12.41-2.25.59-3.37.14-.84.87-1.35,1.67-1.39.82-.04.78,1.85.65,2.74,0,.01-.03.11-.09.3-.59,1.97-4.39,14.75-2.57,20.4.51,1.57.2,3.92-1.49,5-.8.51-1.91.75-3.5.6-.59-.06-1.26-.11-2.04-.14h0c-.54-.02-1.14-.02-1.8.03-.91.08-1.94.31-3.15.84-.02-.03-.92.8-2.16,1.7-.53.38-1.13.8-1.76,1.17-1.47.88-3.08,1.51-4.19.98-.42-.19-.75-.54-.98-1.12-.9-2.26-.56-2.13-1.09-6.32-.21-1.67.59-1.64,3.01-1.36.33.04.69.08,1.08.11h0c.87.07,1.31-.26,1.48-.85.39-1.36-.67-4.03-.98-6.16-.18-1.27.06-1.9.29-2.05.2-.12.49.02.8.32.77.75,1.7,2.4,1.91,3.18.19.72.31,1.65.62,2.39.15.36.34.68.59.91.48.43,1.09.5,1.62.29.5-.2.94-.64,1.13-1.24.2-.65.17-1.5.07-2.35-.09-.82-.26-1.64-.32-2.38-.01-.06-.02-.14-.03-.2-.77-4.61-2.22-11.05-2.98-15.66-.1-.6.49-1.24,1.15-1.48.19-.06.45-.12.7-.16.3-.05.61-.02.87.07.53.18.94.63,1.04,1.22Z"/>
            <path class="cls-4" d="M15.08,2.46c.06.38,1.2,11.54,2.15,16.25.42,2.15.91,4.28,1.85,4.77.11.06.22.11.33.11.18,0,.34,0,.5-.03.63-.08,1.1-.34,1.46-.73.97-1.05,1.29-3.58,1.46-4.75.56-3.82,1.53-7.65,2.26-11.47.21-1.11.38-2.22.56-3.32.13-.83.8-1.38,1.52-1.47.79-.1.82,1.63.7,2.54,0,.02-.03.12-.08.3-.53,1.78-4.24,14.15-2.65,19.96.44,1.6.17,3.83-1.23,4.96-.67.54-1.64.85-3.1.91-.58.02-1.26.07-2.06.06h0c-.56,0-1.18-.01-1.87.01-.94.04-2.01.2-3.28.7-.14,0-1.05.76-2.27,1.62-.53.37-1.14.79-1.79,1.19-1.46.89-3.09,1.6-4.22,1.16-.46-.15-.8-.49-1.04-1.09-.83-2.09-.58-2.26-.95-6.14-.15-1.6.65-1.68,2.92-1.43.33.04.67.07,1.04.09h0c.83.05,1.26-.27,1.44-.84.42-1.32-.56-3.87-.89-5.98-.19-1.22.19-1.83.4-1.92.18-.07.44.09.72.39.7.79,1.53,2.39,1.8,3.17.24.7.44,1.55.8,2.18.18.31.38.57.64.75.48.34,1.05.34,1.54.09.46-.24.85-.68,1.01-1.28.17-.65.11-1.49,0-2.32-.1-.77-.26-1.55-.26-2.34,0-.05-.02-.14-.03-.19-.68-4.03-2.23-11.45-2.91-15.48-.09-.52.39-1.32.97-1.53.13-.03.38-.08.64-.12.3-.05.6-.03.86.04.53.15.96.59,1.05,1.17Z"/>
            <path class="cls-9" d="M15,2.47c.05.32,1.34,12.34,2.16,16.38.39,1.99.82,4.25,1.95,4.72.12.05.23.09.34.09.18,0,.35,0,.5-.03.64-.08,1.11-.35,1.47-.75.92-1.03,1.33-3.75,1.48-4.8.55-3.76,1.55-7.54,2.24-11.28.2-1.09.36-2.19.52-3.27.13-.81.73-1.36,1.37-1.56.77-.24.86,1.4.75,2.34,0,.03-.03.13-.07.29-.46,1.59-4.08,13.56-2.72,19.52.37,1.63.14,3.76-.96,4.91-.54.57-1.38.97-2.69,1.22-.58.11-1.25.24-2.09.26h0c-.58,0-1.22,0-1.94,0-.97,0-2.02.28-3.4.56-.25.05-1.18.73-2.39,1.53-.53.36-1.15.79-1.83,1.21-1.45.91-3.1,1.69-4.25,1.34-.5-.11-.85-.44-1.09-1.05-.77-1.92-.6-2.4-.81-5.95-.09-1.54.71-1.73,2.82-1.49.32.04.65.06,1,.08h0c.79.03,1.22-.28,1.41-.83.46-1.28-.45-3.71-.8-5.8-.2-1.16.32-1.77.51-1.79.16-.02.39.15.63.46.63.82,1.36,2.37,1.69,3.16.29.69.57,1.45.99,1.98.2.25.43.46.69.59.48.24,1.02.18,1.46-.11.42-.27.76-.73.88-1.32.14-.66.05-1.48-.06-2.29-.11-.72-.26-1.45-.2-2.31,0-.05-.02-.14-.03-.18-.58-3.45-2.25-11.86-2.83-15.31-.07-.45.29-1.4.79-1.58.06,0,.31-.04.59-.09.29-.05.59-.04.85.02.53.12.97.54,1.06,1.12Z"/>
            <path class="cls-11" d="M14.93,2.49c.04.27,1.49,13.15,2.17,16.52.35,1.84.73,4.23,2.04,4.66.12.04.23.08.35.08.18,0,.35-.01.51-.03.64-.09,1.12-.36,1.47-.77.86-1,1.37-3.93,1.51-4.84.54-3.7,1.56-7.42,2.22-11.1.19-1.07.33-2.16.49-3.23.12-.79.66-1.35,1.22-1.64.76-.39.9,1.18.81,2.13,0,.04-.02.14-.06.29-.39,1.4-3.92,12.96-2.8,19.07.3,1.66.12,3.69-.7,4.87-.42.6-1.12,1.12-2.29,1.53-.58.21-1.25.42-2.11.46h0c-.6.03-1.27,0-2.01-.03-1-.05-2.1.12-3.53.42-.38.08-1.32.69-2.5,1.45-.53.34-1.17.78-1.86,1.23-1.44.92-3.11,1.78-4.28,1.52-.54-.07-.9-.38-1.15-1.01-.7-1.76-.61-2.53-.67-5.77-.03-1.47.77-1.77,2.73-1.55.32.04.64.06.96.06h0c.74.01,1.17-.29,1.38-.81.49-1.24-.33-3.55-.71-5.62-.2-1.11.45-1.7.63-1.66.14.03.35.22.55.53.56.86,1.18,2.36,1.57,3.15.33.67.7,1.36,1.18,1.78.23.2.47.34.74.42.47.14.98.03,1.39-.31.38-.31.67-.78.76-1.35.11-.67,0-1.47-.13-2.26-.11-.68-.26-1.35-.14-2.27,0-.04-.02-.14-.03-.17-.48-2.88-2.27-12.26-2.75-15.14-.06-.37.19-1.48.6-1.63,0,.03.24,0,.54-.05.28-.04.59-.05.84,0,.53.08.98.5,1.07,1.07Z"/>
            <path class="cls-12" d="M14.85,2.5c.04.22,1.63,13.96,2.18,16.65.32,1.68.63,4.22,2.14,4.61.12.03.24.06.36.06.18,0,.35-.01.51-.04.65-.09,1.14-.37,1.48-.78.81-.98,1.42-4.1,1.53-4.89.53-3.64,1.57-7.3,2.2-10.91.19-1.05.3-2.13.46-3.18.11-.78.59-1.36,1.07-1.73.73-.56.95.95.86,1.93,0,.05-.02.15-.06.29-.33,1.21-3.75,12.36-2.87,18.63.24,1.68.1,3.63-.44,4.82-.29.64-.86,1.29-1.89,1.84-.58.31-1.24.6-2.14.66h0c-.61.04-1.31.02-2.08-.05-1.03-.09-2.18-.02-3.65.28-.5.1-1.45.65-2.61,1.36-.54.33-1.18.78-1.9,1.24-1.44.94-3.12,1.87-4.32,1.7-.58-.03-.95-.33-1.2-.97-.63-1.59-.62-2.67-.53-5.59.04-1.41.83-1.82,2.63-1.62.31.03.62.05.93.05h0c.7,0,1.12-.31,1.34-.8.53-1.2-.22-3.39-.62-5.44-.21-1.06.57-1.64.74-1.53.12.08.3.29.47.6.48.9,1,2.34,1.46,3.14.38.66.82,1.26,1.36,1.57.26.15.52.23.79.26.47.05.95-.13,1.31-.5.34-.35.58-.83.64-1.39.07-.68-.06-1.46-.2-2.22-.11-.63-.25-1.25-.07-2.24,0-.03-.02-.14-.03-.17-.39-2.3-2.29-12.66-2.67-14.97-.05-.3.09-1.56.42-1.68-.07.06.18.03.48-.01.28-.04.58-.05.82-.03.53.05.99.45,1.08,1.01Z"/>
            <path class="cls-13" d="M14.78,2.51c.03.16,1.78,14.77,2.19,16.79.28,1.52.53,4.22,2.24,4.55.13.02.25.05.37.05.18,0,.35-.02.51-.04.66-.1,1.15-.38,1.49-.8.76-.95,1.46-4.27,1.56-4.93.52-3.58,1.58-7.18,2.18-10.72.18-1.04.27-2.1.42-3.14.11-.76.51-1.38.93-1.81.69-.74.99.72.91,1.73,0,.06-.02.16-.05.29-.26,1.02-3.58,11.76-2.94,18.19.17,1.71.09,3.59-.18,4.78-.16.68-.59,1.48-1.48,2.15-.57.43-1.24.77-2.16.86h0c-.63.06-1.35.03-2.15-.07-1.06-.13-2.25-.15-3.78.14-.62.12-1.59.61-2.73,1.28-.54.31-1.2.77-1.93,1.26-1.43.95-3.13,1.95-4.35,1.89-.62,0-1-.28-1.26-.93-.57-1.42-.61-2.81-.39-5.41.11-1.35.89-1.86,2.54-1.68.3.03.6.04.89.03h0c.66-.03,1.08-.32,1.31-.79.57-1.16-.1-3.23-.53-5.26-.21-1.01.7-1.58.85-1.4.1.12.25.36.38.68.4.95.83,2.33,1.35,3.13.42.65.94,1.17,1.55,1.37.28.09.56.12.84.1.46-.04.91-.29,1.23-.7.3-.38.49-.88.52-1.43.04-.69-.11-1.45-.26-2.19-.12-.58-.25-1.15-.01-2.2,0-.02-.02-.14-.03-.16-.29-1.73-2.3-13.07-2.59-14.79-.04-.22,0-1.64.24-1.73-.14.1.11.07.43.03.27-.04.58-.06.81-.05.53.02,1,.41,1.09.96Z"/>
            <path class="cls-10" d="M14.7,2.52c.02.11,1.93,15.58,2.2,16.92.25,1.37.43,4.24,2.34,4.49.13.02.25.03.38.03.18,0,.36-.02.52-.04.66-.1,1.16-.38,1.5-.82.71-.92,1.5-4.44,1.58-4.97.52-3.52,1.59-7.06,2.16-10.54.17-1.02.25-2.07.39-3.09.1-.74.42-1.39.78-1.9.64-.92,1.03.5.97,1.53,0,.08-.01.17-.04.29-.2.84-3.41,11.16-3.02,17.74.1,1.74.1,3.54.08,4.73-.01.72-.3,1.67-1.08,2.46-.55.56-1.23.95-2.18,1.07h0c-.65.08-1.39.05-2.22-.09-1.09-.17-2.33-.29-3.9,0-.74.14-1.72.58-2.84,1.19-.54.3-1.21.76-1.97,1.28-1.42.96-3.14,2.04-4.38,2.07-.66.04-1.05-.22-1.31-.89-.5-1.25-.59-2.95-.26-5.23.19-1.28.95-1.9,2.44-1.74.3.03.58.04.85.02h0c.61-.05,1.03-.33,1.27-.78.61-1.12.01-3.07-.43-5.08-.21-.96.84-1.52.96-1.27.08.17.2.43.3.75.32.99.65,2.32,1.23,3.12.46.64,1.07,1.07,1.74,1.17.31.04.6.02.89-.07.46-.13.88-.44,1.16-.9.26-.42.39-.92.4-1.47,0-.69-.17-1.44-.33-2.16-.12-.53-.25-1.06.05-2.16,0-.02-.02-.14-.03-.15-.19-1.15-2.32-13.47-2.51-14.62-.02-.15-.11-1.72.06-1.78-.2.13.04.11.37.07.26-.04.57-.07.8-.08.53-.02,1.01.36,1.1.91Z"/>
            <path class="cls-8" d="M14.63,2.54c0,.05,2.07,16.39,2.21,17.06.21,1.21.33,4.27,2.43,4.44.13.01.26.02.39.01.19,0,.36-.02.52-.05.67-.11,1.17-.39,1.5-.84.66-.89,1.54-4.62,1.6-5.02.51-3.46,1.6-6.94,2.14-10.35.16-1,.22-2.03.35-3.04.1-.73.33-1.4.63-1.99.57-1.1,1.07.27,1.02,1.33,0,.09-.01.18-.04.29-.14.64-3.23,10.56-3.09,17.3.04,1.76.12,3.48.34,4.69.14.76,0,1.87-.67,2.77-.52.68-1.23,1.13-2.21,1.27h0c-.66.09-1.43.06-2.29-.11-1.12-.21-2.4-.42-4.03-.14-.87.15-1.86.54-2.96,1.11-.55.28-1.23.76-2,1.3-1.41.98-3.15,2.13-4.41,2.25-.69.08-1.1-.17-1.37-.85-.43-1.09-.56-3.08-.12-5.04.27-1.22,1.01-1.95,2.35-1.81.29.03.56.03.81,0h0c.57-.07.99-.34,1.24-.76.65-1.08.13-2.9-.34-4.9-.22-.91.97-1.46,1.07-1.14.07.22.14.5.21.82.23,1.03.47,2.31,1.12,3.11.51.62,1.19.98,1.92.96.33,0,.65-.09.94-.23.45-.22.84-.6,1.08-1.1.22-.46.3-.97.28-1.51-.03-.7-.22-1.44-.4-2.13-.12-.49-.25-.96.11-2.13,0,0-.02-.14-.02-.15-.1-.58-2.34-13.87-2.43-14.45-.01-.07-.21-1.8-.13-1.83-.27.16-.03.15.32.1.26-.04.56-.08.79-.1.53-.05,1.02.32,1.11.85Z"/>
            <path class="cls-6" d="M6.2,34.74c-.73.12-1.14-.12-1.42-.81-.62-1.56-.61-7.03,2.28-6.73.29.03.54.03.78-.01h0c.53-.09.94-.35,1.21-.75.68-1.04.25-2.75-.25-4.72-.22-.85,1.11-1.4,1.19-1.01.05.26.09.57.13.89.14,1.08.29,2.3,1.01,3.1.55.61,1.32.89,2.11.76.91-.15,1.68-.8,1.99-1.69.41-1.15.03-2.47-.31-3.65-.12-.44-.25-.86.17-2.09L12.39,1.74c-.57.32.51.1,1.04.01.53-.09,1.03.27,1.12.8l2.22,17.2c.18,1.05.24,4.31,2.53,4.38.34,0,.65,0,.92-.05.68-.11,1.19-.4,1.51-.85.62-.86,1.59-4.79,1.63-5.06.5-3.4,1.61-6.82,2.12-10.17.26-1.69.19-3.47.8-5.07.54-1.39,1.23.31,1.05,1.41-.12.57-4.8,15.5-2.56,21.5.3.79.33,2.05-.27,3.08-.47.81-1.22,1.3-2.23,1.47h0c-.68.11-1.48.07-2.36-.13-1.14-.25-2.47-.55-4.15-.28-.99.16-2,.5-3.07,1.02-.55.27-1.24.75-2.04,1.31-1.41.99-3.16,2.22-4.45,2.43Z"/>
          </g>
          <g class="cls-24">
            <path class="cls-31" d="M13.47,27.95c-1.4-9-7.08-6.91-6.46-3.22.03.19.11.08.08-.1-.44-2.79-6.31,1.54-6.03,5.54.23,3.3.35,3.47.63,5.18,1.35,8.29,25.52-4.97,22.44-7.23-2.28-1.68-10.17,2.99-10.66-.17Z"/>
          </g>
          <g>
            <path class="cls-38" d="M9.76,31.12s-4.49-8.59-4.2-12.22c.1-1.28,3.57-3.56,4.6-2.82,3.06,2.23,4.55,13.29,4.55,13.29.42,1.28-.35,2.72-1.71,3.2-1.36.48-2.81-.16-3.23-1.45Z"/>
            <path class="cls-57" d="M9.83,31.11s-4.35-8.43-4.14-12.18c.07-1.23,3.5-3.5,4.47-2.76,2.94,2.26,4.49,13.23,4.49,13.23.4,1.24-.35,2.62-1.68,3.09-1.33.47-2.73-.15-3.13-1.38Z"/>
            <path class="cls-33" d="M9.89,31.1s-4.2-8.27-4.09-12.14c.03-1.18,3.44-3.43,4.34-2.69,2.82,2.3,4.43,13.17,4.43,13.17.38,1.19-.35,2.52-1.64,2.98-1.29.46-2.65-.13-3.03-1.32Z"/>
            <path class="cls-3" d="M9.96,31.08s-4.06-8.1-4.04-12.1c0-1.13,3.37-3.37,4.21-2.63,2.7,2.35,4.37,13.12,4.37,13.12.37,1.14-.35,2.43-1.6,2.87-1.25.45-2.57-.11-2.93-1.25Z"/>
            <path class="cls-47" d="M10.02,31.07s-3.91-7.94-3.99-12.07c-.02-1.08,3.3-3.3,4.08-2.57,2.57,2.39,4.31,13.06,4.31,13.06.35,1.09-.35,2.33-1.57,2.76-1.21.44-2.49-.1-2.84-1.19Z"/>
            <path class="cls-27" d="M10.09,31.05s-3.75-7.78-3.93-12.03c-.05-1.03,3.23-3.23,3.95-2.51,2.45,2.44,4.25,13,4.25,13,.33,1.04-.35,2.23-1.53,2.65-1.18.42-2.4-.08-2.74-1.12Z"/>
            <path class="cls-65" d="M10.15,31.04s-3.58-7.61-3.88-11.99c-.07-.99,3.16-3.16,3.82-2.45,2.32,2.49,4.19,12.95,4.19,12.95.32.99-.35,2.13-1.49,2.54-1.14.41-2.32-.06-2.64-1.05Z"/>
            <path class="cls-69" d="M10.22,31.02s-3.4-7.45-3.83-11.95c-.09-.94,3.09-3.09,3.69-2.39,2.19,2.54,4.12,12.89,4.12,12.89.3.94-.35,2.03-1.45,2.43-1.1.4-2.24-.04-2.54-.99Z"/>
            <path class="cls-63" d="M10.28,31.01s-3.21-7.29-3.78-11.91c-.11-.89,3.01-3.03,3.57-2.33,2.05,2.6,4.06,12.83,4.06,12.83.28.89-.35,1.94-1.42,2.32-1.06.39-2.16-.03-2.44-.92Z"/>
            <path class="cls-22" d="M10.35,30.99s-3-7.13-3.72-11.87c-.12-.84,2.94-2.96,3.44-2.27,1.91,2.66,4,12.78,4,12.78.26.84-.36,1.84-1.38,2.21-1.03.38-2.08,0-2.34-.85Z"/>
          </g>
          <g>
            <path class="cls-3" d="M.9,27.25c-.11-1.59,2.22-5.29,5.47,4.3,2.85,8.42,9.75,8.5,16.28,1,.74-.85-8.42-.15-9.68-.58-2.41-.82-2.89-2.41-2.26-4.34.63-1.93,11.05-3.54,13.55-3.37,3.24.22,5.48,2,8.01,5.91.76,1.17-.91,6.14-1.48,7.46-2.81,6.52-3.82,11.73-12.18,12.49-8.78.81-15.2-1.22-16.55-9.5-.28-1.71-.93-10.06-1.16-13.36Z"/>
            <path class="cls-66" d="M12.95,31.86c-2.34-.84-2.8-2.37-2.12-4.26.48-1.33,5.65-2.51,9.54-3.04.58-.08,1.16-.15,1.67-.2.96-.09,1.76-.12,2.25-.09,3.21.23,5.43,2.01,7.93,5.89.75,1.17-.91,6.09-1.48,7.42-.39.9-.74,1.77-1.08,2.61-2.06,5.06-3.75,8.9-10.26,9.77,0,0,0,0,0,0-.26.03-.53.07-.8.09-6.93.64-12.34-.5-14.98-5.04-.73-1.24-1.26-2.74-1.54-4.55-.27-1.73-.77-9.83-.92-13-.03-.75.5-1.99,1.42-1.97.96.02,2.42,1.4,4.11,6.16.89,2.5,2.15,4.22,3.63,5.2,1.06.7,2.28,1.02,3.54,1,2.7-.06,5.8-1.8,8.68-5.36.38-.47-2.48-.45-5.18-.44-1.23,0-2.41,0-3.26-.05-.54-.02-.95-.07-1.14-.13Z"/>
            <path class="cls-16" d="M12.94,31.76c-2.26-.85-2.71-2.33-1.99-4.18.51-1.32,5.65-2.49,9.47-3,.57-.08,1.16-.15,1.66-.2.95-.09,1.74-.12,2.23-.08,3.17.24,5.37,2.01,7.85,5.87.74,1.16-.91,6.04-1.49,7.38-.39.9-.74,1.77-1.08,2.6-2.06,5.06-3.74,8.88-10.24,9.75,0,0,0,0,0,0-.26.03-.53.06-.8.09-6.98.64-12.36-.53-14.97-5.11-.71-1.25-1.25-2.74-1.52-4.57-.26-1.76-.62-9.6-.67-12.65-.01-.73.52-1.93,1.44-1.9.95.02,2.44,1.37,4.15,5.98.9,2.42,2.17,4.07,3.63,4.99,1.05.66,2.28.95,3.51.93,2.6-.06,5.64-1.68,8.27-5.24.34-.45-2.51-.43-5.16-.44-1.23,0-2.39-.02-3.21-.1-.53-.02-.91-.07-1.09-.14Z"/>
            <path class="cls-64" d="M12.92,31.65c-2.17-.88-2.61-2.3-1.85-4.1.55-1.31,5.66-2.46,9.41-2.96.56-.08,1.16-.15,1.65-.19.94-.09,1.72-.11,2.21-.07,3.14.25,5.32,2.01,7.77,5.85.74,1.16-.91,5.99-1.49,7.34-.39.89-.74,1.76-1.08,2.6-2.07,5.06-3.73,8.87-10.21,9.74,0,0,0,0,0,0-.26.03-.52.06-.8.09-7.03.65-12.38-.56-14.97-5.18-.7-1.25-1.24-2.74-1.5-4.59-.25-1.78-.46-9.37-.42-12.29,0-.7.54-1.86,1.45-1.83.93.03,2.46,1.33,4.2,5.8.92,2.34,2.2,3.92,3.63,4.78,1.03.62,2.29.88,3.49.86,2.51-.06,5.49-1.57,7.85-5.12.29-.44-2.55-.42-5.14-.43-1.24,0-2.37-.05-3.16-.14-.51-.02-.88-.08-1.04-.14Z"/>
            <path class="cls-49" d="M12.91,31.55c-2.09-.9-2.52-2.26-1.72-4.02.59-1.3,5.66-2.44,9.34-2.92.54-.07,1.16-.15,1.63-.19.93-.08,1.7-.11,2.19-.06,3.11.26,5.27,2.01,7.69,5.84.73,1.15-.91,5.94-1.49,7.3-.38.89-.73,1.76-1.08,2.59-2.07,5.06-3.72,8.85-10.18,9.72,0,0,0,0,0,0-.26.03-.52.06-.8.09-7.08.65-12.41-.59-14.96-5.25-.69-1.26-1.23-2.74-1.48-4.61-.24-1.81-.3-9.14-.18-11.93.03-.67.56-1.79,1.46-1.76.92.04,2.48,1.3,4.25,5.61.93,2.26,2.22,3.76,3.63,4.57,1.02.58,2.29.81,3.46.78,2.41-.06,5.36-1.45,7.44-5,.25-.43-2.58-.4-5.13-.43-1.24-.01-2.35-.07-3.11-.19-.49-.03-.85-.08-.99-.14Z"/>
            <path class="cls-18" d="M12.89,31.44c-2-.94-2.42-2.22-1.58-3.94.63-1.3,5.67-2.41,9.28-2.88.53-.07,1.16-.15,1.62-.19.92-.08,1.69-.1,2.18-.06,3.07.28,5.22,2.01,7.61,5.82.72,1.14-.9,5.89-1.5,7.27-.38.89-.73,1.75-1.07,2.58-2.07,5.06-3.71,8.84-10.15,9.7,0,0,0,0,0,0-.26.03-.52.06-.79.09-7.13.66-12.43-.62-14.95-5.32-.67-1.26-1.22-2.74-1.46-4.63-.23-1.83-.14-8.91.07-11.57.05-.64.58-1.73,1.48-1.69.9.04,2.49,1.26,4.3,5.43.95,2.19,2.24,3.61,3.64,4.36,1,.54,2.29.74,3.43.71,2.32-.06,5.24-1.34,7.03-4.88.21-.41-2.62-.39-5.11-.43-1.24-.02-2.33-.09-3.07-.23-.48-.03-.81-.09-.94-.14Z"/>
            <path class="cls-58" d="M12.88,31.34c-1.9-.98-2.32-2.19-1.45-3.86.67-1.29,5.67-2.39,9.21-2.84.52-.07,1.16-.15,1.61-.19.91-.08,1.67-.09,2.16-.05,3.04.29,5.16,2.01,7.53,5.8.71,1.14-.9,5.84-1.5,7.23-.38.89-.73,1.75-1.07,2.58-2.07,5.07-3.7,8.82-10.12,9.68,0,0,0,0,0,0-.26.03-.52.06-.79.09-7.18.66-12.46-.65-14.94-5.39-.66-1.26-1.21-2.74-1.45-4.65-.22-1.85.02-8.68.32-11.21.07-.62.6-1.66,1.49-1.61.89.05,2.51,1.22,4.35,5.25.96,2.11,2.27,3.46,3.64,4.15.99.5,2.29.67,3.4.64,2.22-.06,4.4-1.66,6.62-4.76.08-.43-2.65-.38-5.09-.43-1.25-.03-2.3-.11-3.02-.28-.46-.03-.78-.09-.89-.15Z"/>
            <path class="cls-47" d="M12.86,31.23c-1.94-.7-2.22-2.15-1.31-3.78.71-1.28,5.68-2.36,9.15-2.8.5-.07,1.16-.15,1.59-.19.9-.07,1.65-.09,2.14-.04,3.01.3,5.11,2.01,7.45,5.79.7,1.13-.9,5.79-1.5,7.19-.38.88-.73,1.74-1.07,2.57-2.07,5.07-3.69,8.81-10.09,9.67,0,0,0,0,0,0-.26.03-.52.06-.79.09-7.23.67-12.49-.68-14.94-5.46-.65-1.27-1.2-2.74-1.43-4.66-.21-1.88.18-8.44.56-10.86.09-.59.62-1.59,1.5-1.54.87.05,2.53,1.19,4.39,5.06.98,2.03,2.29,3.31,3.64,3.94.97.45,2.29.59,3.37.57,2.12-.06,4.13-1.62,6.21-4.64.02-.42-2.68-.36-5.08-.43-1.25-.03-2.28-.14-2.97-.32-.45-.03-.76-.08-.84-.15Z"/>
            <path class="cls-1" d="M12.84,31.13c-1.88-.69-2.12-2.11-1.18-3.7.75-1.28,5.68-2.34,9.09-2.76.49-.07,1.16-.15,1.58-.19.89-.07,1.63-.08,2.12-.03,2.97.31,5.06,2.01,7.37,5.77.69,1.13-.9,5.74-1.51,7.15-.38.88-.73,1.74-1.07,2.57-2.07,5.07-3.69,8.79-10.07,9.65,0,0,0,0,0,0-.26.03-.52.06-.79.09-7.28.67-12.51-.71-14.93-5.53-.64-1.27-1.2-2.75-1.41-4.68-.21-1.9.34-8.2.81-10.5.11-.56.64-1.53,1.52-1.47.86.06,2.55,1.15,4.44,4.88.99,1.96,2.32,3.15,3.64,3.73.95.41,2.29.52,3.35.5,2.03-.06,3.87-1.58,5.8-4.52-.04-.42-2.72-.35-5.06-.43-1.25-.04-2.26-.16-2.92-.37-.43-.03-.73-.08-.79-.15Z"/>
            <path class="cls-21" d="M12.83,31.02c-1.81-.67-2.01-2.08-1.04-3.63.8-1.27,5.69-2.31,9.02-2.73.47-.06,1.15-.15,1.57-.19.88-.07,1.62-.07,2.1-.02,2.94.32,5,2.02,7.29,5.75.69,1.12-.9,5.69-1.51,7.11-.38.88-.73,1.74-1.06,2.56-2.07,5.07-3.68,8.78-10.04,9.63,0,0,0,0,0,0-.25.03-.52.06-.79.09-7.33.67-12.54-.73-14.92-5.6-.62-1.27-1.19-2.75-1.39-4.7-.2-1.92.5-7.96,1.06-10.14.14-.53.66-1.46,1.53-1.4.84.06,2.57,1.11,4.49,4.7,1.01,1.88,2.34,3,3.65,3.52.94.37,2.29.45,3.32.43,1.93-.06,3.61-1.54,5.39-4.4-.1-.41-2.75-.34-5.04-.42-1.26-.05-2.24-.18-2.88-.41-.42-.03-.69-.08-.74-.15Z"/>
            <path class="cls-54" d="M12.81,30.92c-1.74-.65-1.91-2.04-.91-3.55.84-1.26,5.7-2.29,8.96-2.69.46-.06,1.15-.15,1.55-.19.87-.06,1.6-.07,2.08-.01,2.91.33,4.95,2.02,7.21,5.73.68,1.11-.89,5.64-1.51,7.07-.38.88-.72,1.73-1.06,2.55-2.07,5.08-3.67,8.76-10.01,9.61,0,0,0,0,0,0-.25.03-.52.06-.79.09-7.38.68-12.56-.76-14.91-5.67-.61-1.28-1.18-2.75-1.37-4.72-.19-1.95.66-7.72,1.3-9.78.16-.5.68-1.4,1.55-1.33.83.07,2.59,1.08,4.54,4.51,1.02,1.8,2.36,2.85,3.65,3.31.92.33,2.29.38,3.29.36,1.83-.06,3.34-1.5,4.98-4.28-.16-.4-2.79-.33-5.03-.42-1.26-.05-2.22-.21-2.83-.46-.4-.03-.66-.09-.69-.16Z"/>
            <path class="cls-62" d="M12.8,30.81c-1.67-.64-1.8-2-.77-3.47.89-1.26,5.7-2.26,8.89-2.65.45-.06,1.15-.15,1.54-.19.86-.06,1.58-.06,2.07,0,2.87.34,4.9,2.02,7.13,5.72.67,1.11-.89,5.59-1.52,7.04-.38.88-.72,1.73-1.06,2.55-2.07,5.08-3.66,8.75-9.98,9.6,0,0,0,0,0,0-.25.03-.51.06-.78.09-7.43.68-12.59-.79-14.91-5.74-.6-1.28-1.17-2.75-1.35-4.74-.18-1.97.81-7.47,1.55-9.42.18-.47.7-1.33,1.56-1.25.81.07,2.61,1.04,4.58,4.33,1.04,1.73,2.38,2.7,3.65,3.1.9.29,2.3.31,3.26.29,1.74-.06,3.08-1.46,4.57-4.16-.21-.39-2.82-.32-5.01-.42-1.26-.06-2.2-.23-2.78-.5-.39-.03-.63-.09-.64-.16Z"/>
            <path class="cls-46" d="M12.78,30.71c-1.61-.62-1.69-1.97-.64-3.39.93-1.25,5.71-2.24,8.83-2.61.43-.06,1.15-.15,1.53-.18.85-.06,1.56-.06,2.05,0,2.84.35,4.85,2.02,7.05,5.7.66,1.1-.89,5.54-1.52,7-.38.87-.72,1.72-1.06,2.54-2.07,5.08-3.65,8.73-9.95,9.58,0,0,0,0,0,0-.25.03-.51.06-.78.09-7.48.69-12.62-.82-14.9-5.81-.59-1.28-1.16-2.75-1.33-4.76-.17-1.99.97-7.23,1.79-9.06.2-.44.72-1.26,1.57-1.18.8.08,2.63,1.01,4.63,4.14,1.05,1.65,2.41,2.55,3.65,2.89.89.25,2.3.24,3.23.22,1.64-.06,2.81-1.41,4.16-4.04-.27-.38-2.86-.3-4.99-.42-1.27-.07-2.18-.25-2.73-.54-.37-.03-.6-.09-.6-.16Z"/>
            <path class="cls-55" d="M12.77,30.6c-1.54-.6-1.59-1.93-.5-3.31.98-1.24,5.71-2.21,8.76-2.57.42-.06,1.15-.15,1.52-.18.84-.06,1.55-.05,2.03.01,2.81.36,4.79,2.02,6.97,5.68.65,1.1-.89,5.49-1.52,6.96-.38.87-.72,1.72-1.05,2.54-2.07,5.08-3.64,8.72-9.92,9.56,0,0,0,0,0,0-.25.03-.51.06-.78.09-7.53.69-12.64-.84-14.89-5.88-.57-1.29-1.15-2.75-1.31-4.78-.16-2.02,1.12-6.98,2.04-8.71.22-.41.74-1.2,1.59-1.11.78.08,2.65.97,4.68,3.96,1.07,1.57,2.43,2.39,3.66,2.68.87.2,2.3.16,3.21.14,1.55-.06,2.55-1.37,3.74-3.92-.33-.37-2.89-.29-4.98-.42-1.27-.07-2.16-.28-2.69-.59-.36-.03-.57-.09-.55-.16Z"/>
            <path class="cls-48" d="M12.75,30.5c-1.47-.58-1.48-1.89-.37-3.23,1.03-1.24,5.72-2.18,8.7-2.53.41-.06,1.15-.15,1.5-.18.83-.05,1.53-.04,2.01.02,2.77.36,4.74,2.02,6.89,5.67.64,1.09-.88,5.44-1.52,6.92-.37.87-.72,1.71-1.05,2.53-2.08,5.09-3.63,8.7-9.9,9.54,0,0,0,0,0,0-.25.03-.51.06-.78.09-7.58.7-12.67-.87-14.88-5.95-.56-1.29-1.14-2.75-1.29-4.8-.15-2.04,1.27-6.72,2.29-8.35.24-.38.76-1.13,1.6-1.04.77.09,2.68.94,4.73,3.78,1.08,1.5,2.45,2.24,3.66,2.47.85.16,2.3.09,3.18.07,1.45-.06,2.28-1.33,3.33-3.8-.39-.36-2.93-.28-4.96-.41-1.27-.08-2.14-.3-2.64-.63-.34-.03-.54-.09-.5-.17Z"/>
            <path class="cls-43" d="M12.73,30.39c-1.4-.57-1.36-1.85-.23-3.15,1.07-1.23,5.72-2.16,8.64-2.49.39-.05,1.15-.15,1.49-.18.82-.05,1.51-.04,1.99.03,2.74.37,4.69,2.02,6.81,5.65.63,1.08-.88,5.39-1.53,6.88-.37.87-.72,1.71-1.05,2.52-2.08,5.09-3.62,8.69-9.87,9.53,0,0,0,0,0,0-.25.03-.51.06-.78.09-7.63.7-12.7-.9-14.88-6.02-.55-1.29-1.13-2.75-1.27-4.81-.14-2.06,1.42-6.47,2.53-7.99.25-.35.78-1.07,1.61-.96.75.09,2.7.9,4.78,3.59,1.1,1.42,2.47,2.09,3.66,2.26.83.12,2.3.02,3.15,0,1.35-.06,2.02-1.29,2.92-3.68-.45-.35-2.96-.27-4.94-.41-1.28-.09-2.12-.32-2.59-.68-.32-.03-.5-.1-.45-.17Z"/>
            <path class="cls-25" d="M12.72,30.29c-1.34-.55-1.25-1.81-.1-3.07,1.12-1.22,5.73-2.13,8.57-2.45.38-.05,1.15-.15,1.48-.18.81-.05,1.49-.03,1.97.04,2.7.38,4.63,2.02,6.73,5.63.63,1.08-.88,5.34-1.53,6.84-.37.86-.71,1.71-1.05,2.52-2.08,5.09-3.62,8.67-9.84,9.51,0,0,0,0,0,0-.25.03-.51.06-.77.09-7.69.71-12.73-.92-14.87-6.09-.54-1.29-1.12-2.75-1.25-4.83-.13-2.09,1.56-6.21,2.78-7.63.27-.32.8-1,1.63-.89.74.1,2.72.87,4.82,3.41,1.12,1.35,2.49,1.94,3.66,2.05.82.08,2.3-.05,3.12-.07,1.26-.06,1.76-1.25,2.51-3.56-.51-.34-2.99-.27-4.93-.41-1.28-.1-2.09-.35-2.54-.72-.31-.04-.47-.1-.4-.17Z"/>
            <path class="cls-53" d="M12.7,30.18c-1.27-.53-1.14-1.77.04-2.99,1.17-1.21,5.73-2.11,8.51-2.41.37-.05,1.14-.15,1.46-.18.8-.04,1.48-.03,1.96.04,2.67.39,4.58,2.03,6.65,5.61.62,1.07-.88,5.29-1.53,6.81-.37.86-.71,1.7-1.04,2.51-2.08,5.09-3.61,8.66-9.81,9.49,0,0,0,0,0,0-.25.03-.51.06-.77.09-7.74.71-12.75-.95-14.86-6.16-.53-1.3-1.11-2.75-1.23-4.85-.12-2.11,1.69-5.95,3.03-7.27.29-.28.82-.94,1.64-.82.72.1,2.74.84,4.87,3.23,1.13,1.27,2.52,1.63,3.66,1.84.79.14,2.3-.12,3.09-.14,1.16-.06,1.49-1.21,2.1-3.44-.57-.33-3.03-.26-4.91-.41-1.28-.1-2.07-.37-2.5-.77-.29-.04-.44-.1-.35-.17Z"/>
            <path class="cls-26" d="M12.69,30.08c-1.2-.52-1.02-1.73.17-2.91,1.22-1.21,5.74-2.08,8.44-2.38.35-.05,1.14-.15,1.45-.18.79-.04,1.46-.02,1.94.05,2.64.4,4.53,2.03,6.57,5.6.61,1.06-.88,5.24-1.54,6.77-.37.86-.71,1.7-1.04,2.5-2.08,5.09-3.6,8.65-9.78,9.47,0,0,0,0,0,0-.25.03-.51.06-.77.09-7.79.72-12.78-.98-14.85-6.23-.51-1.3-1.1-2.75-1.22-4.87-.11-2.13,1.83-5.7,3.27-6.92.3-.25.84-.87,1.65-.75.71.11,2.77.8,4.92,3.04,1.15,1.19,2.53,1.47,3.67,1.63.77.11,2.31-.19,3.07-.21,1.07-.06,1.23-1.17,1.69-3.32-.62-.32-3.06-.25-4.89-.41-1.29-.11-2.05-.39-2.45-.81-.28-.04-.41-.1-.3-.18Z"/>
            <path class="cls-45" d="M12.67,29.97c-1.13-.5-.91-1.69.31-2.83,1.27-1.2,5.74-2.06,8.38-2.34.34-.05,1.14-.15,1.44-.18.78-.04,1.44-.01,1.92.06,2.6.41,4.47,2.03,6.49,5.58.6,1.06-.87,5.19-1.54,6.73-.37.86-.71,1.69-1.04,2.5-2.08,5.1-3.59,8.63-9.75,9.46h0c-.25.03-.5.06-.77.09-7.84.72-12.81-1-14.85-6.3-.5-1.3-1.1-2.75-1.2-4.89-.1-2.16,1.95-5.44,3.52-6.56.31-.22.86-.81,1.67-.68.69.11,2.79.77,4.97,2.86,1.17,1.12,2.54,1.32,3.67,1.42.76.07,2.31-.27,3.04-.28.97-.06.96-1.12,1.28-3.2-.68-.31-3.1-.24-4.88-.41-1.29-.12-2.03-.42-2.4-.86-.26-.04-.38-.11-.25-.18Z"/>
            <path class="cls-67" d="M12.66,29.87c-1.07-.48-.79-1.64.44-2.75,1.33-1.19,5.75-2.03,8.31-2.3.33-.04,1.14-.15,1.42-.18.77-.04,1.42,0,1.9.07,2.57.42,4.42,2.03,6.41,5.56.59,1.05-.87,5.13-1.54,6.69-.37.86-.71,1.69-1.04,2.49-2.08,5.1-3.58,8.62-9.72,9.44h0c-.25.03-.5.06-.77.09-7.89.73-12.84-1.03-14.84-6.37-.49-1.31-1.09-2.75-1.18-4.91-.09-2.18,2.08-5.2,3.77-6.2.33-.19.88-.74,1.68-.6.68.11,2.81.74,5.01,2.68,1.18,1.04,2.56,1.33,3.67,1.21.74-.08,2.31-.34,3.01-.35.87-.06.7-1.08.87-3.08-.74-.3-3.13-.24-4.86-.4-1.3-.13-2.01-.44-2.35-.9-.25-.04-.35-.11-.2-.18Z"/>
            <path class="cls-44" d="M12.64,29.76c-1-.46-.68-1.6.58-2.67,1.38-1.18,5.75-2.01,8.25-2.26.31-.04,1.14-.15,1.41-.17.76-.03,1.41,0,1.88.08,2.54.43,4.37,2.03,6.33,5.54.58,1.05-.87,5.08-1.55,6.65-.37.85-.71,1.69-1.03,2.49-2.08,5.1-3.57,8.6-9.7,9.42,0,0,0,0,0,0-.25.03-.5.06-.76.09-7.94.73-12.87-1.06-14.83-6.44-.48-1.31-1.08-2.75-1.16-4.93-.08-2.21,2.2-4.95,4.01-5.84.34-.17.9-.67,1.69-.53.66.12,2.84.7,5.06,2.49,1.2.97,2.58,1.18,3.67,1,.72-.12,2.31-.41,2.98-.42.78-.06.44-1.04.46-2.96-.8-.29-3.17-.23-4.84-.4-1.3-.13-1.99-.46-2.31-.95-.23-.04-.32-.11-.15-.18Z"/>
            <path class="cls-61" d="M12.62,29.66c-.93-.45-.56-1.56.71-2.59,1.43-1.16,5.76-1.98,8.18-2.22.3-.04,1.14-.15,1.4-.17.75-.03,1.39,0,1.86.09,2.5.43,4.32,2.03,6.25,5.53.58,1.04-.87,5.03-1.55,6.61-.37.85-.7,1.68-1.03,2.48-2.08,5.1-3.56,8.59-9.67,9.4,0,0,0,0,0,0-.25.03-.5.06-.76.09-7.99.74-12.9-1.08-14.83-6.51-.47-1.31-1.07-2.75-1.14-4.95-.07-2.23,2.32-4.72,4.26-5.48.35-.14.92-.61,1.71-.46.65.12,2.87.67,5.11,2.31,1.22.89,2.59,1.04,3.68.79.7-.16,2.31-.48,2.95-.5.68-.06.17-1,.05-2.84-.86-.28-3.2-.22-4.83-.4-1.3-.14-1.97-.48-2.26-.99-.22-.04-.28-.11-.1-.19Z"/>
            <path class="cls-42" d="M12.61,29.55c-.86-.43-.44-1.51.85-2.51,1.49-1.15,5.76-1.96,8.12-2.18.28-.04,1.14-.15,1.39-.17.74-.03,1.37,0,1.85.09,2.47.44,4.26,2.03,6.17,5.51.57,1.03-.87,4.98-1.55,6.58-.37.85-.7,1.68-1.03,2.47-2.08,5.11-3.55,8.57-9.64,9.39,0,0,0,0,0,0-.25.03-.5.06-.76.09-8.04.74-12.93-1.11-14.82-6.58-.45-1.31-1.06-2.75-1.12-4.96-.06-2.25,2.44-4.49,4.5-5.13.36-.11.94-.54,1.72-.39.63.13,2.89.63,5.16,2.13,1.24.82,2.61.89,3.68.58.68-.19,2.31-.55,2.93-.57.59-.06-.09-.96-.37-2.72-.92-.27-3.24-.22-4.81-.4-1.31-.15-1.95-.51-2.21-1.03-.2-.04-.25-.12-.05-.19Z"/>
            <path class="cls-32" d="M12.59,29.45c-.8-.41-.33-1.47.98-2.43,1.54-1.14,5.77-1.93,8.06-2.14.27-.04,1.14-.15,1.37-.17.73-.02,1.35.01,1.83.1,2.44.45,4.21,2.03,6.09,5.49.56,1.03-.86,4.93-1.56,6.54-.37.85-.7,1.67-1.03,2.47-2.08,5.11-3.55,8.56-9.61,9.37,0,0,0,0,0,0-.25.03-.5.06-.76.09-8.09.74-12.96-1.14-14.81-6.65-.44-1.32-1.05-2.75-1.1-4.98-.05-2.28,2.56-4.26,4.75-4.77.37-.09.96-.48,1.74-.32.62.13,2.92.6,5.21,1.94,1.26.74,2.63.74,3.68.37.66-.23,2.31-.62,2.9-.64.49-.06-.36-.92-.78-2.6-.97-.26-3.27-.21-4.79-.4-1.31-.16-1.93-.53-2.16-1.08-.18-.04-.22-.12,0-.19Z"/>
            <path class="cls-39" d="M12.58,29.34c-.73-.4-.21-1.42,1.12-2.35,1.6-1.12,5.77-1.91,7.99-2.1.26-.04,1.14-.15,1.36-.17.71-.02,1.33.02,1.81.11,2.4.46,4.16,2.04,6.01,5.48.55,1.02-.86,4.88-1.56,6.5-.36.85-.7,1.67-1.02,2.46-2.08,5.11-3.54,8.54-9.58,9.35,0,0,0,0,0,0-.24.03-.5.06-.76.09-8.14.75-12.99-1.16-14.8-6.72-.43-1.32-1.04-2.75-1.08-5-.04-2.3,2.68-4.04,5-4.41.39-.06.98-.42,1.75-.24.6.13,2.95.56,5.25,1.76,1.28.66,2.65.6,3.68.16.64-.27,2.31-.7,2.87-.71.39-.06-.62-.88-1.19-2.48-1.03-.25-3.31-.21-4.78-.39-1.32-.17-1.9-.55-2.12-1.12-.17-.04-.19-.12.04-.19Z"/>
            <path class="cls-60" d="M12.56,29.24c-.66-.38-.09-1.37,1.25-2.27,1.65-1.11,5.78-1.88,7.93-2.06.24-.03,1.13-.15,1.35-.17.7-.02,1.32.03,1.79.12,2.37.46,4.1,2.04,5.93,5.46.54,1.02-.86,4.83-1.56,6.46-.36.84-.7,1.66-1.02,2.46-2.09,5.11-3.53,8.53-9.55,9.33,0,0,0,0,0,0-.24.03-.49.06-.75.09-8.19.75-13.02-1.19-14.8-6.79-.42-1.32-1.03-2.76-1.06-5.02-.03-2.32,2.93-3.23,5.24-4.05.38-.13,1-.35,1.76-.17.59.14,2.98.52,5.3,1.57,1.3.59,2.66.45,3.69-.04.62-.3,2.32-.77,2.84-.78.3-.06-.88-.83-1.6-2.36-1.09-.25-3.34-.2-4.76-.39-1.32-.18-1.88-.58-2.07-1.17-.15-.04-.16-.12.09-.2Z"/>
            <path class="cls-23" d="M12.55,29.13c-.59-.36.03-1.33,1.39-2.2,1.71-1.09,5.78-1.86,7.86-2.02.23-.03,1.13-.15,1.33-.17.69-.01,1.3.03,1.77.13,2.34.47,4.05,2.04,5.85,5.44.53,1.01-.86,4.78-1.56,6.42-.36.84-.7,1.66-1.02,2.45-2.09,5.11-3.52,8.51-9.53,9.32h0c-.24.03-.49.06-.75.09-8.24.76-13.05-1.21-14.79-6.86-.41-1.33-1.02-2.76-1.04-5.04-.02-2.35,3.01-3.04,5.49-3.69.4-.11,1.02-.29,1.78-.1.57.14,3.01.49,5.35,1.39,1.32.51,2.68.31,3.69-.25.6-.34,2.32-.84,2.81-.85.2-.06-1.15-.79-2.01-2.24-1.15-.24-3.37-.2-4.74-.39-1.32-.19-1.86-.6-2.02-1.21-.14-.04-.13-.13.14-.2Z"/>
            <path class="cls-36" d="M12.53,29.03c-.53-.35.15-1.28,1.52-2.12,1.76-1.07,5.79-1.83,7.8-1.99.22-.03,1.13-.15,1.32-.17.68-.01,1.28.04,1.75.13,2.3.48,4,2.04,5.77,5.42.53,1-.86,4.73-1.57,6.38-.36.84-.69,1.66-1.02,2.44-2.09,5.12-3.51,8.5-9.5,9.3h0c-.24.03-.49.06-.75.09-8.29.76-13.08-1.24-14.78-6.93-.4-1.33-1.01-2.76-1.02-5.06-.01-2.37,3.1-2.86,5.74-3.34.42-.08,1.04-.22,1.79-.03.55.14,3.04.45,5.4,1.21,1.34.43,2.7.17,3.69-.46.58-.37,2.32-.91,2.79-.92.11-.06-1.41-.75-2.42-2.12-1.21-.23-3.41-.19-4.73-.39-1.33-.2-1.84-.62-1.97-1.26-.12-.05-.09-.13.19-.2Z"/>
            <path class="cls-59" d="M12.51,28.92c-.46-.33.26-1.23,1.66-2.04,1.82-1.05,5.79-1.81,7.73-1.95.2-.03,1.13-.15,1.31-.17.67,0,1.26.04,1.74.14,2.27.48,3.95,2.04,5.69,5.41.52,1-.85,4.68-1.57,6.35-.36.84-.69,1.65-1.01,2.44-2.09,5.12-3.5,8.48-9.47,9.28h0c-.24.03-.49.06-.75.08-8.34.77-13.11-1.26-14.77-7-.39-1.33-1-2.76-1-5.08,0-2.39,3.2-2.68,5.98-2.98.44-.05,1.06-.16,1.8.05.54.15,3.07.41,5.44,1.02,1.36.35,2.72.02,3.69-.67.57-.41,2.32-.98,2.76-.99,0-.06-1.68-.71-2.83-2-1.27-.22-3.44-.19-4.71-.39-1.33-.21-1.82-.65-1.93-1.3-.11-.05-.06-.13.24-.2Z"/>
            <path class="cls-68" d="M12.5,28.82c-.39-.31.38-1.18,1.79-1.96,1.88-1.03,5.8-1.78,7.67-1.91.19-.03,1.13-.15,1.29-.16.66,0,1.25.05,1.72.15,2.24.49,3.89,2.04,5.61,5.39.51.99-.85,4.63-1.57,6.31-.36.83-.69,1.65-1.01,2.43-2.09,5.12-3.49,8.47-9.44,9.26h0c-.24.03-.49.06-.75.08-8.39.77-13.14-1.29-14.77-7.07-.37-1.33-.99-2.76-.98-5.1,0-2.42,3.33-2.98,6.23-2.62.46.06,1.08-.09,1.82.12.52.15,3.1.37,5.49.84,1.38.27,2.74-.12,3.7-.88.55-.44,2.32-1.06,2.73-1.06-.09-.06-1.94-.67-3.24-1.88-1.33-.21-3.48-.19-4.69-.39-1.33-.22-1.8-.67-1.88-1.35-.09-.05-.03-.13.29-.21Z"/>
            <path class="cls-70" d="M12.48,28.71c-.32-.29.5-1.13,1.93-1.88,1.93-1.01,5.8-1.76,7.61-1.87.18-.02,1.13-.15,1.28-.16.65,0,1.23.05,1.7.16,2.2.5,3.84,2.04,5.53,5.37.5.99-.85,4.58-1.58,6.27-.36.83-.69,1.64-1.01,2.43-2.09,5.12-3.48,8.45-9.41,9.25,0,0,0,0,0,0-.24.03-.49.06-.74.08-8.44.78-13.18-1.31-14.76-7.14-.36-1.34-.98-2.76-.97-5.11.02-2.44,3.47-2.77,6.48-2.26.47.08,1.1-.03,1.83.19.51.15,3.13.32,5.54.66,1.4.19,2.77-.26,3.7-1.09.53-.48,2.32-1.13,2.7-1.14-.18-.06-2.2-.63-3.65-1.76-1.38-.2-3.51-.19-4.67-.38-1.34-.23-1.78-.69-1.83-1.39-.08-.05,0-.14.34-.21Z"/>
            <path class="cls-50" d="M12.47,28.61c-.26-.28.62-1.08,2.06-1.8,1.99-.99,5.81-1.73,7.54-1.83.16-.02,1.13-.15,1.27-.16.64,0,1.21.06,1.68.17,2.17.5,3.79,2.04,5.45,5.36.49.98-.85,4.53-1.58,6.23-.36.83-.69,1.64-1.01,2.42-2.09,5.13-3.48,8.44-9.38,9.23,0,0,0,0,0,0-.24.03-.49.06-.74.08-8.49.78-13.21-1.34-14.75-7.21-.35-1.34-.97-2.76-.95-5.13.03-2.46,3.61-2.56,6.72-1.9.49.1,1.12.03,1.84.26.49.16,3.16.28,5.59.47,1.42.11,2.79-.4,3.7-1.3.52-.51,2.32-1.2,2.68-1.21-.28-.06-2.47-.59-4.07-1.64-1.44-.19-3.55-.18-4.66-.38-1.34-.24-1.76-.72-1.78-1.44-.06-.05.03-.14.39-.21Z"/>
            <path class="cls-41" d="M12.45,28.5c-.19-.26.74-1.03,2.2-1.72,2.05-.97,5.81-1.71,7.48-1.79.15-.02,1.13-.15,1.26-.16.63,0,1.19.06,1.66.18,2.14.51,3.73,2.05,5.37,5.34.48.97-.85,4.48-1.58,6.19-.36.83-.69,1.63-1,2.41-2.09,5.13-3.47,8.42-9.36,9.21,0,0,0,0,0,0-.24.03-.49.06-.74.08-8.54.79-13.24-1.37-14.74-7.28-.34-1.34-.96-2.76-.93-5.15.04-2.49,3.75-2.35,6.97-1.55.51.13,1.14.1,1.86.33.48.16,3.19.4,5.64.29,1.44-.06,2.81-.54,3.7-1.51.5-.55,2.33-1.27,2.65-1.28-.37-.06-2.73-.54-4.48-1.52-1.5-.18-3.58-.18-4.64-.38-1.34-.25-1.74-.74-1.74-1.48-.05-.05.06-.14.44-.21Z"/>
            <path class="cls-20" d="M12.44,28.4c-.12-.24.85-.98,2.33-1.64,2.11-.94,5.82-1.68,7.41-1.75.14-.02,1.12-.15,1.24-.16.62,0,1.18.07,1.64.18,2.11.52,3.68,2.05,5.28,5.32.48.97-.84,4.43-1.59,6.15-.36.83-.68,1.63-1,2.41-2.09,5.13-3.46,8.41-9.33,9.19h0c-.24.03-.48.06-.74.08-8.59.79-13.27-1.39-14.74-7.35-.33-1.34-.95-2.76-.91-5.17.05-2.51,3.89-2.15,7.21-1.19.52.15,1.16.16,1.87.41.47.16,3.22.19,5.68.11,1.46-.05,2.84-.69,3.7-1.72.49-.58,2.33-1.34,2.62-1.35-.47-.06-2.87-.83-4.89-1.4-1.51-.43-3.61-.18-4.62-.38-1.35-.26-1.71-.76-1.69-1.53-.03-.05.1-.14.49-.22Z"/>
            <path class="cls-73" d="M12.42,28.29c-.06-.23.97-.92,2.47-1.56,2.16-.92,5.82-1.66,7.35-1.71.12-.02,1.12-.15,1.23-.16.61,0,1.16.07,1.63.19,2.07.52,3.63,2.05,5.2,5.3.47.96-.84,4.38-1.59,6.11-.36.82-.68,1.63-1,2.4-2.09,5.13-3.45,8.39-9.3,9.18h0c-.24.03-.48.06-.74.08-8.64.8-13.31-1.42-14.73-7.42-.32-1.35-.94-2.76-.89-5.19.06-2.54,4.04-1.94,7.46-.83.54.17,1.18.22,1.88.48.45.16,3.24.15,5.73-.08,1.48-.13,2.86-.83,3.71-1.93.47-.62,2.33-1.41,2.59-1.42-.57-.06-3.16-.76-5.3-1.28-1.58-.39-3.65-.18-4.61-.38-1.35-.28-1.69-.79-1.64-1.57-.01-.05.13-.14.54-.22Z"/>
            <path class="cls-2" d="M12.4,28.19c.01-.21,1.09-.87,2.6-1.48,2.22-.89,5.83-1.63,7.28-1.67.11-.01,1.12-.15,1.22-.16.6.01,1.14.08,1.61.2,2.04.53,3.57,2.05,5.12,5.29.46.96-.84,4.33-1.59,6.08-.35.82-.68,1.62-1,2.39-2.09,5.14-3.44,8.38-9.27,9.16h0c-.24.03-.48.06-.73.08-8.69.8-13.34-1.44-14.72-7.49-.31-1.35-.93-2.76-.87-5.21.07-2.56,4.18-1.72,7.71-.47.56.2,1.21.29,1.9.55.44.17,3.27.1,5.78-.26,1.5-.22,2.89-.97,3.71-2.14.46-.65,2.33-1.49,2.56-1.49-.66-.06-3.45-.69-5.71-1.16-1.65-.35-3.68-.18-4.59-.37-1.35-.29-1.67-.81-1.59-1.61,0-.05.16-.15.58-.22Z"/>
            <path class="cls-63" d="M12.39,28.08c.08-.19,1.21-.82,2.74-1.4,2.28-.87,5.83-1.61,7.22-1.64.09-.01,1.12-.15,1.2-.16.59.01,1.13.09,1.59.21,2.01.53,3.52,2.05,5.04,5.27.45.95-.84,4.28-1.6,6.04-.35.82-.68,1.62-.99,2.39-2.1,5.14-3.43,8.37-9.24,9.14h0c-.24.03-.48.06-.73.08-8.74.81-13.37-1.47-14.71-7.56-.3-1.35-.92-2.76-.85-5.23.08-2.58,4.33-1.51,7.95-.11.58.22,1.23.35,1.91.62.42.17,3.3.05,5.83-.45,1.52-.3,2.92-1.11,3.71-2.35.44-.69,2.33-1.56,2.54-1.56-.76-.06-3.73-.61-6.12-1.04-1.71-.31-3.71-.18-4.57-.37-1.36-.31-1.65-.83-1.55-1.66.02-.05.19-.15.63-.22Z"/>
            <path class="cls-37" d="M12.37,27.97c.15-.18,1.32-.76,2.87-1.32,2.33-.84,5.84-1.58,7.16-1.6.08-.01,1.12-.15,1.19-.16.58.02,1.11.09,1.57.22,1.97.54,3.47,2.05,4.96,5.25.44.94-.83,4.23-1.6,6-.35.82-.68,1.61-.99,2.38-2.1,5.14-3.42,8.35-9.21,9.12h0c-.24.03-.48.06-.73.08-8.8.81-13.41-1.49-14.71-7.63-.29-1.36-.91-2.76-.83-5.25.09-2.61,4.48-1.3,8.2.24.59.25,1.25.41,1.93.69.41.17,3.32,0,5.87-.63,1.53-.38,2.94-1.26,3.71-2.56.43-.72,2.33-1.63,2.51-1.63-.86-.06-4.01-.54-6.53-.92-1.78-.27-3.75-.18-4.56-.37-1.36-.32-1.63-.85-1.5-1.7.03-.05.22-.15.68-.23Z"/>
            <path class="cls-51" d="M12.36,27.87c.21-.16,1.44-.71,3.01-1.24,2.39-.81,5.84-1.56,7.09-1.56.07,0,1.12-.15,1.18-.15.57.02,1.09.1,1.55.23,1.94.54,3.42,2.05,4.88,5.23.43.94-.83,4.18-1.6,5.96-.35.82-.67,1.61-.99,2.38-2.1,5.14-3.41,8.34-9.19,9.11h0c-.24.03-.48.06-.73.08-8.85.81-13.44-1.52-14.7-7.7-.28-1.36-.9-2.76-.81-5.26.1-2.63,4.62-1.09,8.45.6.61.27,1.27.47,1.94.77.39.17,3.34-.04,5.92-.81,1.55-.47,2.97-1.4,3.72-2.77.41-.76,2.33-1.7,2.48-1.7-.95-.06-4.29-.46-6.94-.81-1.84-.24-3.78-.18-4.54-.37-1.36-.34-1.61-.88-1.45-1.75.05-.06.25-.15.73-.23Z"/>
            <path class="cls-56" d="M12.34,27.76c.3-.1,1.55-.66,3.14-1.16,2.45-.78,5.85-1.53,7.03-1.52.05,0,1.12-.15,1.17-.15.56.02,1.07.1,1.54.23,1.91.55,3.36,2.06,4.8,5.22.43.93-.83,4.13-1.6,5.92-.35.81-.67,1.6-.99,2.37-2.1,5.14-3.41,8.32-9.16,9.09h0c-.24.03-.48.06-.73.08-8.9.82-13.48-1.54-14.69-7.77-.27-1.36-.89-2.76-.79-5.28.11-2.65,4.77-.88,8.69.96.63.29,1.29.53,1.95.84.38.17,3.37-.09,5.97-1,1.57-.55,3-1.55,3.72-2.98.4-.79,2.33-1.77,2.45-1.78-1.05-.06-4.56-.39-7.35-.69-1.9-.2-3.81-.18-4.52-.37-1.36-.36-1.59-.9-1.4-1.79.06-.06.3-.08.78-.23Z"/>
            <path class="cls-14" d="M12.33,27.66c.36-.09,1.67-.6,3.28-1.08,2.5-.75,5.85-1.51,6.96-1.48.04,0,1.12-.15,1.15-.15.55.03,1.06.11,1.52.24,1.88.55,3.31,2.06,4.72,5.2.42.93-.83,4.08-1.61,5.88-.35.81-.67,1.6-.98,2.36-2.1,5.15-3.4,8.31-9.13,9.07h0c-.24.03-.48.06-.72.08-8.95.82-13.51-1.57-14.69-7.84-.26-1.36-.88-2.76-.77-5.3.12-2.68,4.92-.66,8.94,1.32.65.32,1.31.6,1.97.91.36.18,3.39-.13,6.02-1.18,1.59-.63,3.03-1.69,3.72-3.19.38-.83,2.34-1.84,2.42-1.85-1.14-.06-4.84-.31-7.76-.57-1.96-.17-3.85-.18-4.51-.37-1.36-.38-1.57-.92-1.36-1.84.08-.06.33-.11.83-.23Z"/>
            <path class="cls-52" d="M12.31,27.55c.42-.08,1.78-.55,3.41-1,2.56-.72,5.86-1.48,6.9-1.44.03,0,1.12-.15,1.14-.15.54.03,1.04.11,1.5.25,1.85.56,3.26,2.06,4.64,5.18.41.92-.83,4.03-1.61,5.85-.35.81-.67,1.6-.98,2.36-2.1,5.15-3.39,8.29-9.1,9.05h0c-.23.03-.47.06-.72.08-9,.83-13.55-1.59-14.68-7.91-.24-1.37-.87-2.76-.75-5.32.13-2.7,5.07-.45,9.19,1.68.67.34,1.33.66,1.98.98.35.18,3.41-.18,6.07-1.36,1.6-.71,3.05-1.83,3.72-3.4.37-.87,2.34-1.92,2.4-1.92-1.24-.06-5.1-.24-8.18-.45-2.02-.14-3.88-.18-4.49-.36-1.36-.41-1.55-.95-1.31-1.88.09-.06.35-.13.88-.24Z"/>
            <path class="cls-19" d="M12.29,27.45c.49-.08,1.9-.49,3.55-.92,2.61-.69,5.86-1.46,6.83-1.4.01,0,1.11-.15,1.13-.15.53.03,1.02.11,1.48.26,1.81.56,3.2,2.06,4.56,5.17.4.91-.82,3.98-1.61,5.81-.35.81-.67,1.59-.98,2.35-2.1,5.15-3.38,8.28-9.07,9.04h0c-.23.03-.47.06-.72.08-9.05.83-13.59-1.62-14.67-7.98-.24-1.37-.86-2.76-.74-5.34.14-2.72,5.22-.23,9.43,2.03.68.37,1.36.72,1.99,1.05.34.18,3.43-.23,6.11-1.55,1.62-.8,3.08-1.98,3.73-3.61.36-.9,2.34-1.99,2.37-1.99-1.34-.06-5.37-.16-8.59-.33-2.08-.11-3.91-.18-4.47-.36-1.36-.43-1.52-.97-1.26-1.93.11-.06.38-.15.93-.24Z"/>
            <path class="cls-22" d="M18.15,47.54c5.67-.76,6.94-3.87,9.04-9.02.31-.76.63-1.54.98-2.35.79-1.84,2.01-4.86,1.62-5.77-1.67-3.88-3.41-5.24-5.94-5.41l-1.11.15c-1.46-.11-9.02,2.02-10.45,2.21-.57.08-.85.18-.98.24-.29.98-.14,1.51,1.21,1.97,1.32.45,11.11.47,13.46.57,0,0-2,1.12-2.34,2.06-1.64,4.51-9.37,5.84-9.89,5.55-4.47-2.5-11.51-6.71-11.68-3.52-.14,2.59.49,3.99.72,5.36,1.04,6.4,5.57,8.89,14.66,8.05.25-.02.49-.05.72-.08h0Z"/>
          </g>
          <g>
            <path class="cls-38" d="M3.41,31.37S-.28,25.04.02,22.11c.1-1.02,3.07-3.24,3.92-2.77,2.56,1.43,3.67,10.07,3.67,10.07.34.98-.33,2.2-1.49,2.75-1.16.54-2.38.19-2.71-.79Z"/>
            <path class="cls-57" d="M3.46,31.35S-.1,25.13.12,22.11c.07-.98,3.01-3.18,3.81-2.7,2.46,1.47,3.62,10.03,3.62,10.03.33.94-.33,2.13-1.46,2.65-1.13.53-2.31.2-2.63-.74Z"/>
            <path class="cls-33" d="M3.52,31.33S.07,25.22.21,22.12c.04-.94,2.95-3.13,3.71-2.64,2.35,1.52,3.57,10,3.57,10,.31.9-.33,2.05-1.43,2.56-1.1.52-2.24.2-2.55-.7Z"/>
            <path class="cls-3" d="M3.57,31.31S.25,25.31.31,22.13c.02-.9,2.89-3.07,3.6-2.58,2.25,1.56,3.52,9.96,3.52,9.96.3.86-.33,1.97-1.39,2.47-1.06.5-2.17.21-2.47-.66Z"/>
            <path class="cls-47" d="M3.63,31.29S.43,25.4.41,22.13c0-.86,2.83-3,3.49-2.51,2.14,1.61,3.47,9.92,3.47,9.92.28.83-.33,1.89-1.36,2.38-1.03.49-2.1.21-2.38-.62Z"/>
            <path class="cls-27" d="M3.68,31.28S.62,25.49.51,22.14c-.03-.82,2.77-2.94,3.38-2.45,2.04,1.66,3.42,9.88,3.42,9.88.27.79-.32,1.81-1.33,2.28-1,.47-2.03.21-2.3-.58Z"/>
            <path class="cls-65" d="M3.74,31.26S.81,25.59.61,22.14c-.05-.78,2.71-2.88,3.27-2.39,1.93,1.72,3.37,9.84,3.37,9.84.26.75-.32,1.74-1.29,2.19-.97.46-1.96.22-2.22-.54Z"/>
            <path class="cls-69" d="M3.79,31.24s-2.77-5.56-3.08-9.09c-.06-.74,2.65-2.82,3.16-2.32,1.82,1.78,3.32,9.8,3.32,9.8.24.71-.32,1.66-1.26,2.1-.94.44-1.89.22-2.13-.5Z"/>
            <path class="cls-63" d="M3.85,31.22s-2.62-5.45-3.04-9.06c-.08-.69,2.59-2.76,3.05-2.26,1.7,1.83,3.27,9.77,3.27,9.77.23.68-.32,1.58-1.23,2.01-.9.43-1.82.23-2.05-.46Z"/>
            <path class="cls-22" d="M3.9,31.2s-2.44-5.34-2.99-9.03c-.1-.65,2.53-2.69,2.94-2.2,1.58,1.9,3.22,9.73,3.22,9.73.21.64-.32,1.5-1.2,1.92-.87.42-1.75.23-1.97-.41Z"/>
          </g>
          <g class="cls-15">
            <path class="cls-7" d="M24.49,32.46c-2.17-1.39-.21-2.26-5.75,2.9-1.33,1.24-3.26,2.46-4.44,3.73-2.45,2.63-4.55.7-6.55-1.35-1.82-1.87-4.5-2.73-4.78.75-.16,2.03,2.81,3.84,3.91,5.45,1.78,2.61,4.55,4.24,7.5,4.78,3.56.65,6.78-.39,9.57-2.68,1.66-1.36,5.38-10.46.55-13.57Z"/>
            <path class="cls-5" d="M23.98,32.85c-2.12-1.19-.66-1.21-5.82,3.29-1.47,1.28-3.38,2.02-4.54,3.13-2.33,2.22-4.35.31-6.19-1.46-1.68-1.62-4.12-2.19-4.25.96-.09,2.12,3,3.87,4.11,5.37,1.77,2.38,4.39,3.92,7.18,4.43,3.58.67,6.72-.51,9.45-2.87,1.63-1.41,4.79-10.18.06-12.84Z"/>
            <path class="cls-4" d="M23.46,33.23c-2.07-.99-1.15-.2-5.89,3.67-1.61,1.32-3.48,1.58-4.63,2.53-2.19,1.81-4.15-.07-5.83-1.57-1.54-1.37-3.72-1.65-3.73,1.17,0,2.22,3.19,3.9,4.32,5.29,1.75,2.15,4.23,3.59,6.86,4.09,3.61.69,6.67-.64,9.34-3.07,1.6-1.46,4.19-9.9-.43-12.11Z"/>
            <path class="cls-9" d="M22.95,33.62c-2.02-.79-1.69.76-5.96,4.06-1.76,1.36-3.58,1.13-4.73,1.93-2.03,1.41-3.95-.45-5.48-1.68-1.4-1.13-3.28-1.11-3.2,1.38.08,2.33,3.38,3.93,4.52,5.21,1.72,1.92,4.07,3.27,6.53,3.75,3.64.71,6.61-.76,9.22-3.26,1.57-1.52,3.6-9.62-.91-11.39Z"/>
            <path class="cls-11" d="M22.44,34c-1.97-.59-2.26,1.69-6.03,4.45-1.91,1.4-3.55.89-4.83,1.33-1.62,1.35-3.75-.83-5.12-1.79-1.26-.88-2.82-.56-2.67,1.59.17,2.44,3.56,3.96,4.73,5.12,1.7,1.69,3.91,2.95,6.21,3.41,3.66.73,6.56-.89,9.1-3.46,1.54-1.57,3-9.33-1.4-10.66Z"/>
            <path class="cls-12" d="M21.93,34.38c-1.92-.39-2.85,2.59-6.1,4.84-2.07,1.43-3.63.5-4.92.73-1.41,1.03-3.55-1.21-4.76-1.9-1.12-.63-2.33-.01-2.14,1.8.27,2.55,3.74,4,4.93,5.04,1.66,1.46,3.75,2.63,5.89,3.06,3.69.75,6.51-1.01,8.99-3.65,1.51-1.62,2.41-9.05-1.89-9.93Z"/>
            <path class="cls-13" d="M21.41,34.77c-1.87-.19-3.46,3.47-6.17,5.23-2.23,1.45-3.7.11-5.02.13-1.2.71-3.35-1.59-4.4-2.01-.98-.39-1.83.53-1.61,2.01.38,2.66,3.92,4.04,5.14,4.96,1.63,1.24,3.59,2.31,5.57,2.72,3.71.78,6.45-1.13,8.87-3.84,1.48-1.67,1.81-8.77-2.38-9.2Z"/>
            <path class="cls-10" d="M20.9,35.15c-1.82,0-4.09,4.32-6.24,5.61-2.41,1.46-3.77-.29-5.12-.47-.99.39-3.16-1.97-4.04-2.11-.84-.14-1.3,1.08-1.08,2.22.53,2.77,4.1,4.08,5.34,4.88,1.59,1.02,3.43,1.99,5.25,2.38,3.74.81,6.4-1.26,8.75-4.04,1.45-1.72,1.22-8.49-2.86-8.47Z"/>
            <path class="cls-8" d="M20.39,35.54c-1.77.21-4.73,5.15-6.31,6-2.61,1.41-3.85-.68-5.21-1.07-.79.07-2.96-2.34-3.69-2.22-.71.12-.77,1.61-.56,2.43.74,2.86,4.27,4.13,5.55,4.8,1.54.82,3.27,1.67,4.93,2.04,3.76.84,6.34-1.38,8.64-4.23,1.42-1.77.62-8.2-3.35-7.74Z"/>
            <path class="cls-6" d="M19.87,35.92c-1.72.41-5.36,5.95-6.38,6.39-2.88,1.23-3.92-1.07-5.31-1.67-.58-.25-2.76-2.71-3.33-2.33-.56.38-.22,2.14-.03,2.64,1.13,2.87,4.44,4.18,5.75,4.72,1.5.61,3.11,1.35,4.61,1.69,3.78.87,6.29-1.51,8.52-4.43,1.39-1.82.03-7.92-3.84-7.01Z"/>
          </g>
          <g class="cls-34">
            <path class="cls-28" d="M30.19,28.1c-1.38-1.29-2.78-1.8-2.78-1.8-.69-7.26,2.63-22.43,2.63-22.43.27-1.61-.8-3.13-2.41-3.41-1.6-.27-3.13.8-3.41,2.41-2.37,13.7-2.89,15.08-3.63,17.31-.42,1.25-1.35.85-1.39.6-4.01-24.39-8.23-11.05-5.78,2.35.04.23-.63.5-.67.26-.74-4.97-6.79-5.1-6.52-3.5,0,0,.15,1.14.76,4.83.03.19.11.08.08-.1-.44-2.79-5.89-1.38-5.66.03,0,0-.65,1.51-.38,5.51.23,3.3.75,8.68,1.03,10.39,1.35,8.29,7.77,10.31,16.55,9.5,8.78-.81,10.38-8.06,12.38-12.77.7-1.64.97-3.11,1.23-4.09.8-3.14-.23-3.39-2.05-5.1Z"/>
          </g>
        </g>
      </g>
    </g>
  </g>
</svg>